<ttFont>
    <TTGlyph name="A" xMin="-23" yMin="0" xMax="558" yMax="645">
      <contour>
        <pt x="398" y="0" on="1"/>
        <pt x="393" y="92" on="1"/>
        <pt x="388" y="132" on="1"/>
        <pt x="275" y="134" on="1"/>
        <pt x="177" y="131" on="1"/>
        <pt x="164" y="101" on="1"/>
        <pt x="133" y="0" on="1"/>
        <pt x="-23" y="0" on="1"/>
        <pt x="262" y="645" on="1"/>
        <pt x="452" y="645" on="1"/>
        <pt x="558" y="0" on="1"/>
      </contour>
      <contour>
        <pt x="341" y="499" on="1"/>
        <pt x="331" y="499" on="1"/>
        <pt x="227" y="252" on="1"/>
        <pt x="299" y="250" on="1"/>
        <pt x="373" y="251" on="1"/>
      </contour>
    </TTGlyph>
    <TTGlyph name="AE" xMin="-47" yMin="0" xMax="795" yMax="645">
      <contour>
        <pt x="770" y="0" on="1"/>
        <pt x="370" y="0" on="1"/>
        <pt x="377" y="92" on="1"/>
        <pt x="379" y="204" on="1"/>
        <pt x="179" y="149" on="1"/>
        <pt x="152" y="101" on="1"/>
        <pt x="110" y="0" on="1"/>
        <pt x="-47" y="0" on="1"/>
        <pt x="323" y="645" on="1"/>
        <pt x="786" y="645" on="1"/>
        <pt x="794" y="633" on="1"/>
        <pt x="769" y="516" on="1"/>
        <pt x="619" y="521" on="1"/>
        <pt x="538" y="521" on="1"/>
        <pt x="534" y="365" on="1"/>
        <pt x="722" y="416" on="1"/>
        <pt x="732" y="407" on="1"/>
        <pt x="732" y="296" on="1"/>
        <pt x="531" y="245" on="1"/>
        <pt x="528" y="123" on="1"/>
        <pt x="625" y="123" on="1"/>
        <pt x="787" y="129" on="1"/>
        <pt x="795" y="117" on="1"/>
      </contour>
      <contour>
        <pt x="384" y="499" on="1"/>
        <pt x="374" y="499" on="1"/>
        <pt x="257" y="289" on="1"/>
        <pt x="381" y="323" on="1"/>
      </contour>
    </TTGlyph>
    <TTGlyph name="AEacute" xMin="-47" yMin="0" xMax="795" yMax="900">
      <component glyphName="AE" x="0" y="0" flags="0x1000"/>
      <component glyphName="acute.cap" x="328" y="178" flags="0x1000"/>
    </TTGlyph>
    <TTGlyph name="Aacute" xMin="-23" yMin="0" xMax="558" yMax="900">
      <component glyphName="A" x="0" y="0" flags="0x1000"/>
      <component glyphName="acute.cap" x="137" y="178" flags="0x1000"/>
    </TTGlyph>
    <TTGlyph name="Abreve" xMin="-23" yMin="0" xMax="558" yMax="880">
      <component glyphName="A" x="0" y="0" flags="0x1000"/>
      <component glyphName="breve.cap" x="126" y="178" flags="0x1000"/>
    </TTGlyph>
    <TTGlyph name="Abreveacute" xMin="-23" yMin="0" xMax="558" yMax="1019">
      <component glyphName="A" x="0" y="0" flags="0x1000"/>
      <component glyphName="breveacute" x="131" y="178" flags="0x1000"/>
    </TTGlyph>
    <TTGlyph name="Abrevedotbelow" xMin="-22" yMin="-210" xMax="559" yMax="880">
      <contour>
        <pt x="307" y="719" on="0"/>
        <pt x="226" y="777" on="0"/>
        <pt x="212" y="832" on="1"/>
        <pt x="252" y="880" on="1"/>
        <pt x="274" y="880" on="1"/>
        <pt x="298" y="827" on="0"/>
        <pt x="374" y="827" on="1"/>
        <pt x="447" y="827" on="0"/>
        <pt x="483" y="880" on="1"/>
        <pt x="505" y="880" on="1"/>
        <pt x="532" y="832" on="1"/>
        <pt x="481" y="719" on="0"/>
        <pt x="367" y="719" on="1"/>
      </contour>
      <contour>
        <pt x="398" y="0" on="1"/>
        <pt x="393" y="92" on="1"/>
        <pt x="388" y="132" on="1"/>
        <pt x="275" y="134" on="1"/>
        <pt x="177" y="131" on="1"/>
        <pt x="164" y="101" on="1"/>
        <pt x="134" y="0" on="1"/>
        <pt x="-22" y="0" on="1"/>
        <pt x="263" y="645" on="1"/>
        <pt x="453" y="645" on="1"/>
        <pt x="559" y="0" on="1"/>
      </contour>
      <contour>
        <pt x="342" y="499" on="1"/>
        <pt x="332" y="499" on="1"/>
        <pt x="228" y="252" on="1"/>
        <pt x="299" y="250" on="1"/>
        <pt x="373" y="251" on="1"/>
      </contour>
      <contour>
        <pt x="300" y="-48" on="0"/>
        <pt x="340" y="-89" on="0"/>
        <pt x="340" y="-125" on="1"/>
        <pt x="340" y="-164" on="0"/>
        <pt x="296" y="-210" on="0"/>
        <pt x="258" y="-210" on="1"/>
        <pt x="221" y="-210" on="0"/>
        <pt x="181" y="-170" on="0"/>
        <pt x="181" y="-132" on="1"/>
        <pt x="181" y="-93" on="0"/>
        <pt x="226" y="-48" on="0"/>
        <pt x="264" y="-48" on="1"/>
      </contour>
    </TTGlyph>
    <TTGlyph name="Abrevegrave" xMin="-23" yMin="0" xMax="558" yMax="1019">
      <component glyphName="A" x="0" y="0" flags="0x1000"/>
      <component glyphName="brevegrave" x="131" y="178" flags="0x1000"/>
    </TTGlyph>
    <TTGlyph name="Abrevehookabove" xMin="-23" yMin="0" xMax="558" yMax="1076">
      <component glyphName="A" x="0" y="0" flags="0x1000"/>
      <component glyphName="brevehookabove" x="131" y="178" flags="0x1000"/>
    </TTGlyph>
    <TTGlyph name="Abrevetilde" xMin="-23" yMin="0" xMax="567" yMax="1046">
      <component glyphName="A" x="0" y="0" flags="0x1000"/>
      <component glyphName="brevetilde" x="131" y="178" flags="0x1000"/>
    </TTGlyph>
    <TTGlyph name="Acaron" xMin="-23" yMin="0" xMax="558" yMax="887">
      <component glyphName="A" x="0" y="0" flags="0x1000"/>
      <component glyphName="caron.cap" x="126" y="178" flags="0x1000"/>
    </TTGlyph>
    <TTGlyph name="Acircumflex" xMin="-23" yMin="0" xMax="558" yMax="895">
      <component glyphName="A" x="0" y="0" flags="0x1000"/>
      <component glyphName="circumflex.cap" x="132" y="178" flags="0x1000"/>
    </TTGlyph>
    <TTGlyph name="Acircumflexacute" xMin="-23" yMin="0" xMax="594" yMax="1016">
      <component glyphName="A" x="0" y="0" flags="0x1000"/>
      <component glyphName="circumflexacute" x="131" y="178" flags="0x1000"/>
    </TTGlyph>
    <TTGlyph name="Acircumflexdotbelow" xMin="-22" yMin="-210" xMax="559" yMax="895">
      <contour>
        <pt x="217" y="786" on="1"/>
        <pt x="299" y="840" on="0"/>
        <pt x="365" y="895" on="1"/>
        <pt x="395" y="895" on="1"/>
        <pt x="448" y="845" on="0"/>
        <pt x="528" y="786" on="1"/>
        <pt x="493" y="725" on="1"/>
        <pt x="478" y="725" on="1"/>
        <pt x="375" y="787" on="1"/>
        <pt x="309" y="753" on="1"/>
        <pt x="271" y="735" on="0"/>
        <pt x="253" y="725" on="1"/>
        <pt x="238" y="725" on="1"/>
      </contour>
      <contour>
        <pt x="398" y="0" on="1"/>
        <pt x="393" y="92" on="1"/>
        <pt x="388" y="132" on="1"/>
        <pt x="275" y="134" on="1"/>
        <pt x="177" y="131" on="1"/>
        <pt x="164" y="101" on="1"/>
        <pt x="134" y="0" on="1"/>
        <pt x="-22" y="0" on="1"/>
        <pt x="263" y="645" on="1"/>
        <pt x="453" y="645" on="1"/>
        <pt x="559" y="0" on="1"/>
      </contour>
      <contour>
        <pt x="342" y="499" on="1"/>
        <pt x="332" y="499" on="1"/>
        <pt x="228" y="252" on="1"/>
        <pt x="299" y="250" on="1"/>
        <pt x="373" y="251" on="1"/>
      </contour>
      <contour>
        <pt x="300" y="-48" on="0"/>
        <pt x="340" y="-89" on="0"/>
        <pt x="340" y="-125" on="1"/>
        <pt x="340" y="-164" on="0"/>
        <pt x="296" y="-210" on="0"/>
        <pt x="258" y="-210" on="1"/>
        <pt x="221" y="-210" on="0"/>
        <pt x="181" y="-170" on="0"/>
        <pt x="181" y="-132" on="1"/>
        <pt x="181" y="-93" on="0"/>
        <pt x="226" y="-48" on="0"/>
        <pt x="264" y="-48" on="1"/>
      </contour>
    </TTGlyph>
    <TTGlyph name="Acircumflexgrave" xMin="-23" yMin="0" xMax="558" yMax="1016">
      <component glyphName="A" x="0" y="0" flags="0x1000"/>
      <component glyphName="circumflexgrave" x="131" y="178" flags="0x1000"/>
    </TTGlyph>
    <TTGlyph name="Acircumflexhookabove" xMin="-23" yMin="0" xMax="558" yMax="1062">
      <component glyphName="A" x="0" y="0" flags="0x1000"/>
      <component glyphName="circumflexhookabove" x="131" y="178" flags="0x1000"/>
    </TTGlyph>
    <TTGlyph name="Acircumflextilde" xMin="-23" yMin="0" xMax="573" yMax="1043">
      <component glyphName="A" x="0" y="0" flags="0x1000"/>
      <component glyphName="circumflextilde" x="140" y="178" flags="0x1000"/>
    </TTGlyph>
    <TTGlyph name="Adieresis" xMin="-23" yMin="0" xMax="558" yMax="872">
      <component glyphName="A" x="0" y="0" flags="0x1000"/>
      <component glyphName="dieresis" x="129" y="178" flags="0x1000"/>
    </TTGlyph>
    <TTGlyph name="Adotbelow" xMin="-23" yMin="-210" xMax="558" yMax="645">
      <component glyphName="A" x="0" y="0" flags="0x1000"/>
      <component glyphName="dotbelowcomb" x="111" y="0" flags="0x1000"/>
    </TTGlyph>
    <TTGlyph name="Agrave" xMin="-23" yMin="0" xMax="558" yMax="901">
      <component glyphName="A" x="0" y="0" flags="0x1000"/>
      <component glyphName="grave.cap" x="131" y="178" flags="0x1000"/>
    </TTGlyph>
    <TTGlyph name="Ahookabove" xMin="-23" yMin="0" xMax="558" yMax="930">
      <component glyphName="A" x="0" y="0" flags="0x1000"/>
      <component glyphName="hookabove" x="87" y="178" flags="0x1000"/>
    </TTGlyph>
    <TTGlyph name="Amacron" xMin="-23" yMin="0" xMax="558" yMax="849">
      <component glyphName="A" x="0" y="0" flags="0x1000"/>
      <component glyphName="macron" x="129" y="178" flags="0x1000"/>
    </TTGlyph>
    <TTGlyph name="Aogonek" xMin="-22" yMin="-197" xMax="559" yMax="645">
      <contour>
        <pt x="542" y="-149" on="1"/>
        <pt x="484" y="-197" on="0"/>
        <pt x="437" y="-197" on="1"/>
        <pt x="398" y="-197" on="0"/>
        <pt x="353" y="-150" on="0"/>
        <pt x="353" y="-109" on="1"/>
        <pt x="353" y="-86" on="0"/>
        <pt x="372" y="-37" on="0"/>
        <pt x="398" y="0" on="1"/>
        <pt x="393" y="92" on="1"/>
        <pt x="388" y="132" on="1"/>
        <pt x="275" y="134" on="1"/>
        <pt x="177" y="131" on="1"/>
        <pt x="164" y="101" on="1"/>
        <pt x="134" y="0" on="1"/>
        <pt x="-22" y="0" on="1"/>
        <pt x="263" y="645" on="1"/>
        <pt x="453" y="645" on="1"/>
        <pt x="559" y="0" on="1"/>
        <pt x="482" y="0" on="1"/>
        <pt x="439" y="-55" on="0"/>
        <pt x="439" y="-85" on="1"/>
        <pt x="439" y="-113" on="0"/>
        <pt x="467" y="-113" on="1"/>
        <pt x="494" y="-113" on="0"/>
        <pt x="531" y="-86" on="1"/>
        <pt x="539" y="-86" on="1"/>
      </contour>
      <contour>
        <pt x="342" y="499" on="1"/>
        <pt x="332" y="499" on="1"/>
        <pt x="228" y="252" on="1"/>
        <pt x="299" y="250" on="1"/>
        <pt x="373" y="251" on="1"/>
      </contour>
    </TTGlyph>
    <TTGlyph name="Aring" xMin="-23" yMin="0" xMax="558" yMax="914">
      <component glyphName="A" x="0" y="0" flags="0x1000"/>
      <component glyphName="ring" x="128" y="178" flags="0x1000"/>
    </TTGlyph>
    <TTGlyph name="Aringacute" xMin="-2" yMin="0" xMax="579" yMax="951">
      <contour>
        <pt x="271" y="867" on="1"/>
        <pt x="399" y="910" on="0"/>
        <pt x="499" y="951" on="1"/>
        <pt x="512" y="946" on="1"/>
        <pt x="538" y="848" on="1"/>
        <pt x="531" y="836" on="1"/>
        <pt x="422" y="814" on="0"/>
        <pt x="299" y="794" on="1"/>
        <pt x="285" y="800" on="1"/>
      </contour>
      <contour>
        <pt x="418" y="0" on="1"/>
        <pt x="413" y="89" on="1"/>
        <pt x="408" y="129" on="1"/>
        <pt x="294" y="131" on="1"/>
        <pt x="196" y="128" on="1"/>
        <pt x="183" y="98" on="1"/>
        <pt x="154" y="0" on="1"/>
        <pt x="-2" y="0" on="1"/>
        <pt x="290" y="626" on="1"/>
        <pt x="278" y="647" on="0"/>
        <pt x="278" y="680" on="1"/>
        <pt x="278" y="729" on="0"/>
        <pt x="331" y="781" on="0"/>
        <pt x="382" y="781" on="1"/>
        <pt x="430" y="781" on="0"/>
        <pt x="480" y="731" on="0"/>
        <pt x="480" y="685" on="1"/>
        <pt x="480" y="645" on="0"/>
        <pt x="462" y="621" on="1"/>
        <pt x="579" y="0" on="1"/>
      </contour>
      <contour>
        <pt x="340" y="717" on="0"/>
        <pt x="340" y="682" on="1"/>
        <pt x="340" y="644" on="0"/>
        <pt x="379" y="644" on="1"/>
        <pt x="417" y="644" on="0"/>
        <pt x="417" y="680" on="1"/>
        <pt x="417" y="717" on="0"/>
        <pt x="378" y="717" on="1"/>
      </contour>
      <contour>
        <pt x="360" y="486" on="1"/>
        <pt x="350" y="486" on="1"/>
        <pt x="246" y="245" on="1"/>
        <pt x="318" y="243" on="1"/>
        <pt x="392" y="245" on="1"/>
      </contour>
    </TTGlyph>
    <TTGlyph name="Atilde" xMin="-23" yMin="0" xMax="558" yMax="894">
      <component glyphName="A" x="0" y="0" flags="0x1000"/>
      <component glyphName="tilde" x="130" y="178" flags="0x1000"/>
    </TTGlyph>
    <TTGlyph name="B" xMin="43" yMin="-6" xMax="567" yMax="646">
      <contour>
        <pt x="508" y="312" on="0"/>
        <pt x="558" y="249" on="0"/>
        <pt x="558" y="198" on="1"/>
        <pt x="558" y="97" on="0"/>
        <pt x="400" y="-6" on="0"/>
        <pt x="234" y="-6" on="1"/>
        <pt x="159" y="-6" on="0"/>
        <pt x="43" y="0" on="1"/>
        <pt x="75" y="191" on="1"/>
        <pt x="123" y="645" on="1"/>
        <pt x="363" y="646" on="1"/>
        <pt x="458" y="646" on="0"/>
        <pt x="567" y="572" on="0"/>
        <pt x="567" y="501" on="1"/>
        <pt x="567" y="445" on="0"/>
        <pt x="508" y="358" on="0"/>
        <pt x="451" y="333" on="1"/>
      </contour>
      <contour>
        <pt x="403" y="394" on="0"/>
        <pt x="403" y="472" on="1"/>
        <pt x="403" y="508" on="0"/>
        <pt x="359" y="536" on="0"/>
        <pt x="300" y="536" on="1"/>
        <pt x="263" y="535" on="1"/>
        <pt x="240" y="376" on="1"/>
        <pt x="324" y="373" on="1"/>
      </contour>
      <contour>
        <pt x="331" y="104" on="0"/>
        <pt x="397" y="154" on="0"/>
        <pt x="397" y="199" on="1"/>
        <pt x="397" y="228" on="0"/>
        <pt x="364" y="261" on="0"/>
        <pt x="329" y="269" on="1"/>
        <pt x="225" y="267" on="1"/>
        <pt x="216" y="206" on="1"/>
        <pt x="207" y="108" on="1"/>
        <pt x="257" y="104" on="0"/>
        <pt x="272" y="104" on="1"/>
      </contour>
    </TTGlyph>
    <TTGlyph name="C" xMin="32" yMin="-10" xMax="550" yMax="654">
      <contour>
        <pt x="477" y="654" on="0"/>
        <pt x="550" y="620" on="1"/>
        <pt x="507" y="490" on="1"/>
        <pt x="494" y="484" on="1"/>
        <pt x="440" y="524" on="0"/>
        <pt x="368" y="524" on="1"/>
        <pt x="283" y="524" on="0"/>
        <pt x="202" y="406" on="0"/>
        <pt x="202" y="286" on="1"/>
        <pt x="202" y="123" on="0"/>
        <pt x="326" y="123" on="1"/>
        <pt x="399" y="123" on="0"/>
        <pt x="467" y="158" on="1"/>
        <pt x="479" y="150" on="1"/>
        <pt x="450" y="19" on="1"/>
        <pt x="378" y="-10" on="0"/>
        <pt x="305" y="-10" on="1"/>
        <pt x="173" y="-10" on="0"/>
        <pt x="32" y="131" on="0"/>
        <pt x="32" y="260" on="1"/>
        <pt x="32" y="383" on="0"/>
        <pt x="114" y="560" on="0"/>
        <pt x="273" y="654" on="0"/>
        <pt x="384" y="654" on="1"/>
      </contour>
    </TTGlyph>
    <TTGlyph name="C.ss01" xMin="-127" yMin="0" xMax="576" yMax="508">
      <contour>
        <pt x="239" y="390" on="0"/>
        <pt x="183" y="315" on="0"/>
        <pt x="183" y="232" on="1"/>
        <pt x="183" y="119" on="0"/>
        <pt x="277" y="119" on="1"/>
        <pt x="332" y="119" on="0"/>
        <pt x="384" y="141" on="1"/>
        <pt x="395" y="134" on="1"/>
        <pt x="378" y="54" on="1"/>
        <pt x="520" y="54" on="1"/>
        <pt x="514" y="0" on="1"/>
        <pt x="-127" y="0" on="1"/>
        <pt x="-120" y="54" on="1"/>
        <pt x="89" y="54" on="1"/>
        <pt x="33" y="107" on="0"/>
        <pt x="33" y="209" on="1"/>
        <pt x="33" y="377" on="0"/>
        <pt x="142" y="453" on="1"/>
        <pt x="-70" y="453" on="1"/>
        <pt x="-64" y="508" on="1"/>
        <pt x="576" y="508" on="1"/>
        <pt x="569" y="453" on="1"/>
        <pt x="440" y="453" on="1"/>
        <pt x="412" y="367" on="1"/>
        <pt x="401" y="362" on="1"/>
        <pt x="358" y="390" on="0"/>
        <pt x="302" y="390" on="1"/>
      </contour>
    </TTGlyph>
    <TTGlyph name="Cacute" xMin="32" yMin="-10" xMax="550" yMax="900">
      <component glyphName="C" x="0" y="0" flags="0x1000"/>
      <component glyphName="acute.cap" x="126" y="178" flags="0x1000"/>
    </TTGlyph>
    <TTGlyph name="Ccaron" xMin="32" yMin="-10" xMax="550" yMax="887">
      <component glyphName="C" x="0" y="0" flags="0x1000"/>
      <component glyphName="caron.cap" x="114" y="178" flags="0x1000"/>
    </TTGlyph>
    <TTGlyph name="Ccedilla" xMin="32" yMin="-203" xMax="550" yMax="654">
      <contour>
        <pt x="477" y="654" on="0"/>
        <pt x="550" y="620" on="1"/>
        <pt x="506" y="490" on="1"/>
        <pt x="494" y="484" on="1"/>
        <pt x="440" y="524" on="0"/>
        <pt x="368" y="524" on="1"/>
        <pt x="283" y="524" on="0"/>
        <pt x="202" y="406" on="0"/>
        <pt x="202" y="286" on="1"/>
        <pt x="202" y="123" on="0"/>
        <pt x="326" y="123" on="1"/>
        <pt x="399" y="123" on="0"/>
        <pt x="466" y="158" on="1"/>
        <pt x="479" y="150" on="1"/>
        <pt x="450" y="19" on="1"/>
        <pt x="388" y="-6" on="0"/>
        <pt x="332" y="-9" on="1"/>
        <pt x="324" y="-45" on="1"/>
        <pt x="358" y="-64" on="1"/>
        <pt x="400" y="-88" on="0"/>
        <pt x="400" y="-125" on="1"/>
        <pt x="400" y="-159" on="0"/>
        <pt x="346" y="-203" on="0"/>
        <pt x="300" y="-203" on="1"/>
        <pt x="254" y="-203" on="0"/>
        <pt x="215" y="-176" on="1"/>
        <pt x="225" y="-113" on="1"/>
        <pt x="232" y="-111" on="1"/>
        <pt x="263" y="-140" on="0"/>
        <pt x="290" y="-140" on="1"/>
        <pt x="312" y="-140" on="0"/>
        <pt x="312" y="-121" on="1"/>
        <pt x="312" y="-111" on="0"/>
        <pt x="297" y="-103" on="1"/>
        <pt x="247" y="-75" on="1"/>
        <pt x="262" y="-8" on="1"/>
        <pt x="150" y="3" on="0"/>
        <pt x="32" y="142" on="0"/>
        <pt x="32" y="260" on="1"/>
        <pt x="32" y="383" on="0"/>
        <pt x="114" y="560" on="0"/>
        <pt x="272" y="654" on="0"/>
        <pt x="383" y="654" on="1"/>
      </contour>
    </TTGlyph>
    <TTGlyph name="Ccircumflex" xMin="32" yMin="-10" xMax="550" yMax="895">
      <component glyphName="C" x="0" y="0" flags="0x1000"/>
      <component glyphName="circumflex.cap" x="121" y="178" flags="0x1000"/>
    </TTGlyph>
    <TTGlyph name="Cdotaccent" xMin="32" yMin="-10" xMax="550" yMax="886">
      <component glyphName="C" x="0" y="0" flags="0x1000"/>
      <component glyphName="dotaccent" x="118" y="178" flags="0x1000"/>
    </TTGlyph>
    <TTGlyph name="D" xMin="42" yMin="-8" xMax="643" yMax="649">
      <contour>
        <pt x="505" y="649" on="0"/>
        <pt x="643" y="517" on="0"/>
        <pt x="643" y="396" on="1"/>
        <pt x="643" y="206" on="0"/>
        <pt x="454" y="-8" on="0"/>
        <pt x="278" y="-8" on="1"/>
        <pt x="179" y="-8" on="0"/>
        <pt x="43" y="0" on="1"/>
        <pt x="42" y="0" on="1"/>
        <pt x="74" y="191" on="1"/>
        <pt x="122" y="645" on="1"/>
        <pt x="381" y="649" on="1"/>
      </contour>
      <contour>
        <pt x="475" y="113" on="0"/>
        <pt x="475" y="372" on="1"/>
        <pt x="475" y="451" on="0"/>
        <pt x="419" y="524" on="0"/>
        <pt x="361" y="524" on="1"/>
        <pt x="320" y="524" on="0"/>
        <pt x="265" y="519" on="1"/>
        <pt x="219" y="206" on="1"/>
        <pt x="212" y="121" on="1"/>
        <pt x="268" y="113" on="0"/>
        <pt x="314" y="113" on="1"/>
      </contour>
    </TTGlyph>
    <TTGlyph name="D.ss01" xMin="-127" yMin="0" xMax="694" yMax="508">
      <contour>
        <pt x="479" y="453" on="1"/>
        <pt x="535" y="403" on="0"/>
        <pt x="535" y="307" on="1"/>
        <pt x="535" y="134" on="0"/>
        <pt x="422" y="54" on="1"/>
        <pt x="638" y="54" on="1"/>
        <pt x="632" y="0" on="1"/>
        <pt x="-127" y="0" on="1"/>
        <pt x="-120" y="54" on="1"/>
        <pt x="53" y="54" on="1"/>
        <pt x="69" y="152" on="1"/>
        <pt x="100" y="453" on="1"/>
        <pt x="-70" y="453" on="1"/>
        <pt x="-64" y="508" on="1"/>
        <pt x="694" y="508" on="1"/>
        <pt x="688" y="453" on="1"/>
      </contour>
      <contour>
        <pt x="240" y="108" on="0"/>
        <pt x="271" y="108" on="1"/>
        <pt x="385" y="108" on="0"/>
        <pt x="385" y="284" on="1"/>
        <pt x="385" y="340" on="0"/>
        <pt x="345" y="389" on="0"/>
        <pt x="302" y="389" on="1"/>
        <pt x="269" y="389" on="0"/>
        <pt x="233" y="386" on="1"/>
        <pt x="200" y="166" on="1"/>
        <pt x="196" y="115" on="1"/>
      </contour>
    </TTGlyph>
    <TTGlyph name="Dcaron" xMin="42" yMin="-8" xMax="643" yMax="887">
      <component glyphName="D" x="0" y="0" flags="0x1000"/>
      <component glyphName="caron.cap" x="117" y="178" flags="0x1000"/>
    </TTGlyph>
    <TTGlyph name="Dcroat" xMin="42" yMin="-8" xMax="643" yMax="849">
      <component glyphName="D" x="0" y="0" flags="0x1000"/>
      <component glyphName="macron" x="120" y="178" flags="0x1000"/>
    </TTGlyph>
    <TTGlyph name="Delta" xMin="-23" yMin="0" xMax="558" yMax="645">
      <contour>
        <pt x="-23" y="0" on="1"/>
        <pt x="262" y="645" on="1"/>
        <pt x="452" y="645" on="1"/>
        <pt x="558" y="0" on="1"/>
      </contour>
      <contour>
        <pt x="171" y="118" on="1"/>
        <pt x="389" y="118" on="1"/>
        <pt x="341" y="499" on="1"/>
        <pt x="330" y="499" on="1"/>
      </contour>
    </TTGlyph>
    <TTGlyph name="E" xMin="42" yMin="0" xMax="552" yMax="645">
      <contour>
        <pt x="246" y="388" on="1"/>
        <pt x="350" y="387" on="1"/>
        <pt x="453" y="390" on="1"/>
        <pt x="461" y="379" on="1"/>
        <pt x="436" y="262" on="1"/>
        <pt x="324" y="265" on="1"/>
        <pt x="228" y="264" on="1"/>
        <pt x="220" y="206" on="1"/>
        <pt x="212" y="124" on="1"/>
        <pt x="317" y="123" on="1"/>
        <pt x="476" y="129" on="1"/>
        <pt x="483" y="117" on="1"/>
        <pt x="459" y="0" on="1"/>
        <pt x="42" y="0" on="1"/>
        <pt x="73" y="191" on="1"/>
        <pt x="122" y="645" on="1"/>
        <pt x="544" y="645" on="1"/>
        <pt x="552" y="633" on="1"/>
        <pt x="526" y="516" on="1"/>
        <pt x="374" y="521" on="1"/>
        <pt x="265" y="520" on="1"/>
      </contour>
    </TTGlyph>
    <TTGlyph name="Eacute" xMin="42" yMin="0" xMax="552" yMax="900">
      <component glyphName="E" x="0" y="0" flags="0x1000"/>
      <component glyphName="acute.cap" x="111" y="178" flags="0x1000"/>
    </TTGlyph>
    <TTGlyph name="Ebreve" xMin="42" yMin="0" xMax="552" yMax="880">
      <component glyphName="E" x="0" y="0" flags="0x1000"/>
      <component glyphName="breve.cap" x="100" y="178" flags="0x1000"/>
    </TTGlyph>
    <TTGlyph name="Ecaron" xMin="42" yMin="0" xMax="552" yMax="887">
      <component glyphName="E" x="0" y="0" flags="0x1000"/>
      <component glyphName="caron.cap" x="100" y="178" flags="0x1000"/>
    </TTGlyph>
    <TTGlyph name="Ecircumflex" xMin="42" yMin="0" xMax="552" yMax="895">
      <component glyphName="E" x="0" y="0" flags="0x1000"/>
      <component glyphName="circumflex.cap" x="107" y="178" flags="0x1000"/>
    </TTGlyph>
    <TTGlyph name="Ecircumflexacute" xMin="42" yMin="0" xMax="569" yMax="1016">
      <component glyphName="E" x="0" y="0" flags="0x1000"/>
      <component glyphName="circumflexacute" x="106" y="178" flags="0x1000"/>
    </TTGlyph>
    <TTGlyph name="Ecircumflexdotbelow" xMin="42" yMin="-210" xMax="552" yMax="895">
      <component glyphName="E" x="0" y="0" flags="0x1000"/>
      <component glyphName="dotbelowcomb" x="123" y="0" flags="0x1000"/>
      <component glyphName="circumflex.cap" x="107" y="178" flags="0x1000"/>
    </TTGlyph>
    <TTGlyph name="Ecircumflexgrave" xMin="42" yMin="0" xMax="552" yMax="1016">
      <component glyphName="E" x="0" y="0" flags="0x1000"/>
      <component glyphName="circumflexgrave" x="106" y="178" flags="0x1000"/>
    </TTGlyph>
    <TTGlyph name="Ecircumflexhookabove" xMin="42" yMin="0" xMax="552" yMax="1062">
      <component glyphName="E" x="0" y="0" flags="0x1000"/>
      <component glyphName="circumflexhookabove" x="106" y="178" flags="0x1000"/>
    </TTGlyph>
    <TTGlyph name="Ecircumflextilde" xMin="42" yMin="0" xMax="552" yMax="1016">
      <component glyphName="E" x="0" y="0" flags="0x1000"/>
      <component glyphName="circumflexgrave" x="106" y="178" flags="0x1000"/>
    </TTGlyph>
    <TTGlyph name="Edieresis" xMin="42" yMin="0" xMax="552" yMax="872">
      <component glyphName="E" x="0" y="0" flags="0x1000"/>
      <component glyphName="dieresis" x="104" y="178" flags="0x1000"/>
    </TTGlyph>
    <TTGlyph name="Edotaccent" xMin="42" yMin="0" xMax="552" yMax="886">
      <component glyphName="E" x="0" y="0" flags="0x1000"/>
      <component glyphName="dotaccent" x="104" y="178" flags="0x1000"/>
    </TTGlyph>
    <TTGlyph name="Edotbelow" xMin="42" yMin="-210" xMax="552" yMax="645">
      <component glyphName="E" x="0" y="0" flags="0x1000"/>
      <component glyphName="dotbelowcomb" x="123" y="0" flags="0x1000"/>
    </TTGlyph>
    <TTGlyph name="Egrave" xMin="42" yMin="0" xMax="552" yMax="901">
      <component glyphName="E" x="0" y="0" flags="0x1000"/>
      <component glyphName="grave.cap" x="106" y="178" flags="0x1000"/>
    </TTGlyph>
    <TTGlyph name="Ehookabove" xMin="42" yMin="0" xMax="552" yMax="930">
      <component glyphName="E" x="0" y="0" flags="0x1000"/>
      <component glyphName="hookabove" x="61" y="178" flags="0x1000"/>
    </TTGlyph>
    <TTGlyph name="Emacron" xMin="42" yMin="0" xMax="552" yMax="849">
      <component glyphName="E" x="0" y="0" flags="0x1000"/>
      <component glyphName="macron" x="104" y="178" flags="0x1000"/>
    </TTGlyph>
    <TTGlyph name="Eng" xMin="42" yMin="-175" xMax="673" yMax="648">
      <contour>
        <pt x="596" y="55" on="1"/>
        <pt x="589" y="-4" on="0"/>
        <pt x="540" y="-86" on="0"/>
        <pt x="444" y="-148" on="0"/>
        <pt x="363" y="-175" on="1"/>
        <pt x="328" y="-92" on="1"/>
        <pt x="329" y="-78" on="1"/>
        <pt x="405" y="-41" on="0"/>
        <pt x="431" y="0" on="1"/>
        <pt x="242" y="404" on="1"/>
        <pt x="231" y="404" on="1"/>
        <pt x="209" y="226" on="1"/>
        <pt x="187" y="0" on="1"/>
        <pt x="42" y="0" on="1"/>
        <pt x="75" y="190" on="1"/>
        <pt x="123" y="645" on="1"/>
        <pt x="294" y="645" on="1"/>
        <pt x="473" y="254" on="1"/>
        <pt x="483" y="254" on="1"/>
        <pt x="526" y="639" on="1"/>
        <pt x="673" y="648" on="1"/>
        <pt x="609" y="203" on="1"/>
      </contour>
    </TTGlyph>
    <TTGlyph name="Eogonek" xMin="42" yMin="-197" xMax="552" yMax="645">
      <contour>
        <pt x="246" y="388" on="1"/>
        <pt x="350" y="387" on="1"/>
        <pt x="453" y="390" on="1"/>
        <pt x="460" y="379" on="1"/>
        <pt x="436" y="262" on="1"/>
        <pt x="324" y="265" on="1"/>
        <pt x="228" y="264" on="1"/>
        <pt x="220" y="206" on="1"/>
        <pt x="212" y="124" on="1"/>
        <pt x="318" y="123" on="1"/>
        <pt x="476" y="129" on="1"/>
        <pt x="483" y="117" on="1"/>
        <pt x="459" y="0" on="1"/>
        <pt x="391" y="0" on="1"/>
        <pt x="369" y="-33" on="1"/>
        <pt x="353" y="-59" on="0"/>
        <pt x="353" y="-78" on="1"/>
        <pt x="353" y="-114" on="0"/>
        <pt x="390" y="-114" on="1"/>
        <pt x="418" y="-114" on="0"/>
        <pt x="454" y="-88" on="1"/>
        <pt x="462" y="-88" on="1"/>
        <pt x="473" y="-149" on="1"/>
        <pt x="418" y="-197" on="0"/>
        <pt x="367" y="-197" on="1"/>
        <pt x="324" y="-197" on="0"/>
        <pt x="272" y="-145" on="0"/>
        <pt x="272" y="-106" on="1"/>
        <pt x="272" y="-62" on="0"/>
        <pt x="302" y="-21" on="1"/>
        <pt x="317" y="0" on="1"/>
        <pt x="42" y="0" on="1"/>
        <pt x="74" y="191" on="1"/>
        <pt x="122" y="645" on="1"/>
        <pt x="545" y="645" on="1"/>
        <pt x="552" y="633" on="1"/>
        <pt x="527" y="516" on="1"/>
        <pt x="374" y="521" on="1"/>
        <pt x="265" y="520" on="1"/>
      </contour>
    </TTGlyph>
    <TTGlyph name="Eth" xMin="23" yMin="-8" xMax="672" yMax="649">
      <contour>
        <pt x="534" y="649" on="0"/>
        <pt x="672" y="517" on="0"/>
        <pt x="672" y="396" on="1"/>
        <pt x="672" y="206" on="0"/>
        <pt x="483" y="-8" on="0"/>
        <pt x="307" y="-8" on="1"/>
        <pt x="209" y="-8" on="0"/>
        <pt x="71" y="0" on="1"/>
        <pt x="103" y="191" on="1"/>
        <pt x="111" y="265" on="1"/>
        <pt x="29" y="265" on="1"/>
        <pt x="23" y="276" on="1"/>
        <pt x="36" y="370" on="1"/>
        <pt x="122" y="370" on="1"/>
        <pt x="150" y="645" on="1"/>
        <pt x="151" y="645" on="1"/>
        <pt x="410" y="649" on="1"/>
      </contour>
      <contour>
        <pt x="503" y="113" on="0"/>
        <pt x="503" y="372" on="1"/>
        <pt x="503" y="452" on="0"/>
        <pt x="448" y="524" on="0"/>
        <pt x="389" y="524" on="1"/>
        <pt x="348" y="524" on="0"/>
        <pt x="293" y="519" on="1"/>
        <pt x="272" y="370" on="1"/>
        <pt x="375" y="370" on="1"/>
        <pt x="381" y="359" on="1"/>
        <pt x="367" y="265" on="1"/>
        <pt x="256" y="265" on="1"/>
        <pt x="248" y="206" on="1"/>
        <pt x="241" y="121" on="1"/>
        <pt x="297" y="113" on="0"/>
        <pt x="342" y="113" on="1"/>
      </contour>
    </TTGlyph>
    <TTGlyph name="Etilde" xMin="42" yMin="0" xMax="552" yMax="894">
      <component glyphName="E" x="0" y="0" flags="0x1000"/>
      <component glyphName="tilde" x="104" y="178" flags="0x1000"/>
    </TTGlyph>
    <TTGlyph name="Euro" xMin="-1" yMin="-8" xMax="484" yMax="513">
      <contour>
        <pt x="428" y="513" on="0"/>
        <pt x="484" y="488" on="1"/>
        <pt x="448" y="383" on="1"/>
        <pt x="438" y="377" on="1"/>
        <pt x="398" y="405" on="0"/>
        <pt x="340" y="405" on="1"/>
        <pt x="266" y="405" on="0"/>
        <pt x="236" y="343" on="1"/>
        <pt x="369" y="343" on="1"/>
        <pt x="375" y="337" on="1"/>
        <pt x="362" y="270" on="1"/>
        <pt x="17" y="270" on="1"/>
        <pt x="13" y="278" on="1"/>
        <pt x="25" y="343" on="1"/>
        <pt x="97" y="343" on="1"/>
        <pt x="130" y="426" on="0"/>
        <pt x="261" y="513" on="0"/>
        <pt x="356" y="513" on="1"/>
      </contour>
      <contour>
        <pt x="360" y="100" on="0"/>
        <pt x="417" y="124" on="1"/>
        <pt x="427" y="118" on="1"/>
        <pt x="404" y="14" on="1"/>
        <pt x="349" y="-8" on="0"/>
        <pt x="289" y="-8" on="1"/>
        <pt x="91" y="-8" on="0"/>
        <pt x="71" y="157" on="1"/>
        <pt x="4" y="157" on="1"/>
        <pt x="-1" y="164" on="1"/>
        <pt x="11" y="230" on="1"/>
        <pt x="355" y="230" on="1"/>
        <pt x="360" y="223" on="1"/>
        <pt x="348" y="157" on="1"/>
        <pt x="218" y="157" on="1"/>
        <pt x="237" y="100" on="0"/>
        <pt x="307" y="100" on="1"/>
      </contour>
    </TTGlyph>
    <TTGlyph name="F" xMin="42" yMin="0" xMax="525" yMax="645">
      <contour>
        <pt x="243" y="368" on="1"/>
        <pt x="322" y="367" on="1"/>
        <pt x="433" y="370" on="1"/>
        <pt x="441" y="358" on="1"/>
        <pt x="416" y="241" on="1"/>
        <pt x="296" y="244" on="1"/>
        <pt x="225" y="244" on="1"/>
        <pt x="220" y="206" on="1"/>
        <pt x="201" y="0" on="1"/>
        <pt x="42" y="0" on="1"/>
        <pt x="73" y="191" on="1"/>
        <pt x="122" y="645" on="1"/>
        <pt x="517" y="645" on="1"/>
        <pt x="525" y="633" on="1"/>
        <pt x="499" y="515" on="1"/>
        <pt x="347" y="521" on="1"/>
        <pt x="265" y="520" on="1"/>
      </contour>
    </TTGlyph>
    <TTGlyph name="G" xMin="31" yMin="-10" xMax="600" yMax="654">
      <contour>
        <pt x="519" y="654" on="0"/>
        <pt x="600" y="619" on="1"/>
        <pt x="548" y="476" on="1"/>
        <pt x="534" y="476" on="1"/>
        <pt x="488" y="503" on="0"/>
        <pt x="418" y="526" on="0"/>
        <pt x="375" y="526" on="1"/>
        <pt x="285" y="526" on="0"/>
        <pt x="197" y="406" on="0"/>
        <pt x="197" y="258" on="1"/>
        <pt x="197" y="179" on="0"/>
        <pt x="258" y="112" on="0"/>
        <pt x="327" y="112" on="1"/>
        <pt x="350" y="112" on="0"/>
        <pt x="392" y="123" on="1"/>
        <pt x="399" y="170" on="1"/>
        <pt x="409" y="273" on="1"/>
        <pt x="556" y="283" on="1"/>
        <pt x="543" y="196" on="1"/>
        <pt x="523" y="32" on="1"/>
        <pt x="410" y="-10" on="0"/>
        <pt x="308" y="-10" on="1"/>
        <pt x="173" y="-10" on="0"/>
        <pt x="31" y="128" on="0"/>
        <pt x="31" y="254" on="1"/>
        <pt x="31" y="446" on="0"/>
        <pt x="227" y="654" on="0"/>
        <pt x="410" y="654" on="1"/>
      </contour>
    </TTGlyph>
    <TTGlyph name="Gbreve" xMin="31" yMin="-10" xMax="600" yMax="880">
      <component glyphName="G" x="0" y="0" flags="0x1000"/>
      <component glyphName="breve.cap" x="140" y="178" flags="0x1000"/>
    </TTGlyph>
    <TTGlyph name="Gcircumflex" xMin="31" yMin="-10" xMax="600" yMax="895">
      <component glyphName="G" x="0" y="0" flags="0x1000"/>
      <component glyphName="circumflex.cap" x="146" y="178" flags="0x1000"/>
    </TTGlyph>
    <TTGlyph name="Gcommaaccent" xMin="31" yMin="-288" xMax="600" yMax="654">
      <component glyphName="G" x="0" y="0" flags="0x1000"/>
      <component glyphName="commaaccentcomb" x="156" y="1" flags="0x1000"/>
    </TTGlyph>
    <TTGlyph name="Gdieresis" xMin="31" yMin="-10" xMax="600" yMax="872">
      <component glyphName="G" x="0" y="0" flags="0x1000"/>
      <component glyphName="dieresis" x="143" y="178" flags="0x1000"/>
    </TTGlyph>
    <TTGlyph name="Gdotaccent" xMin="31" yMin="-10" xMax="600" yMax="886">
      <component glyphName="G" x="0" y="0" flags="0x1000"/>
      <component glyphName="dotaccent" x="144" y="178" flags="0x1000"/>
    </TTGlyph>
    <TTGlyph name="Gtilde" xMin="31" yMin="-10" xMax="600" yMax="894">
      <component glyphName="G" x="0" y="0" flags="0x1000"/>
      <component glyphName="tilde" x="144" y="178" flags="0x1000"/>
    </TTGlyph>
    <TTGlyph name="H" xMin="42" yMin="0" xMax="672" yMax="645">
      <contour>
        <pt x="608" y="206" on="1"/>
        <pt x="589" y="0" on="1"/>
        <pt x="430" y="0" on="1"/>
        <pt x="463" y="191" on="1"/>
        <pt x="470" y="257" on="1"/>
        <pt x="341" y="259" on="1"/>
        <pt x="226" y="256" on="1"/>
        <pt x="219" y="206" on="1"/>
        <pt x="201" y="0" on="1"/>
        <pt x="42" y="0" on="1"/>
        <pt x="74" y="191" on="1"/>
        <pt x="122" y="645" on="1"/>
        <pt x="283" y="645" on="1"/>
        <pt x="245" y="388" on="1"/>
        <pt x="366" y="385" on="1"/>
        <pt x="483" y="387" on="1"/>
        <pt x="510" y="645" on="1"/>
        <pt x="672" y="645" on="1"/>
      </contour>
    </TTGlyph>
    <TTGlyph name="Hbar" xMin="55" yMin="0" xMax="738" yMax="645">
      <contour>
        <pt x="662" y="474" on="1"/>
        <pt x="624" y="206" on="1"/>
        <pt x="604" y="0" on="1"/>
        <pt x="446" y="0" on="1"/>
        <pt x="478" y="191" on="1"/>
        <pt x="485" y="257" on="1"/>
        <pt x="356" y="259" on="1"/>
        <pt x="242" y="256" on="1"/>
        <pt x="235" y="206" on="1"/>
        <pt x="216" y="0" on="1"/>
        <pt x="57" y="0" on="1"/>
        <pt x="89" y="191" on="1"/>
        <pt x="119" y="474" on="1"/>
        <pt x="61" y="474" on="1"/>
        <pt x="55" y="482" on="1"/>
        <pt x="60" y="560" on="1"/>
        <pt x="128" y="560" on="1"/>
        <pt x="137" y="645" on="1"/>
        <pt x="298" y="645" on="1"/>
        <pt x="286" y="560" on="1"/>
        <pt x="516" y="560" on="1"/>
        <pt x="525" y="645" on="1"/>
        <pt x="687" y="645" on="1"/>
        <pt x="675" y="560" on="1"/>
        <pt x="731" y="560" on="1"/>
        <pt x="738" y="551" on="1"/>
        <pt x="733" y="474" on="1"/>
      </contour>
      <contour>
        <pt x="273" y="474" on="1"/>
        <pt x="261" y="388" on="1"/>
        <pt x="381" y="385" on="1"/>
        <pt x="498" y="387" on="1"/>
        <pt x="507" y="474" on="1"/>
      </contour>
    </TTGlyph>
    <TTGlyph name="Hcircumflex" xMin="42" yMin="0" xMax="672" yMax="895">
      <component glyphName="H" x="0" y="0" flags="0x1000"/>
      <component glyphName="circumflex.cap" x="176" y="178" flags="0x1000"/>
    </TTGlyph>
    <TTGlyph name="I" xMin="42" yMin="0" xMax="283" yMax="645">
      <contour>
        <pt x="201" y="0" on="1"/>
        <pt x="42" y="0" on="1"/>
        <pt x="74" y="191" on="1"/>
        <pt x="122" y="645" on="1"/>
        <pt x="283" y="645" on="1"/>
        <pt x="219" y="206" on="1"/>
      </contour>
    </TTGlyph>
    <TTGlyph name="I.ss01" xMin="-127" yMin="0" xMax="416" yMax="508">
      <contour>
        <pt x="187" y="54" on="1"/>
        <pt x="360" y="54" on="1"/>
        <pt x="354" y="0" on="1"/>
        <pt x="-127" y="0" on="1"/>
        <pt x="-120" y="54" on="1"/>
        <pt x="45" y="54" on="1"/>
        <pt x="61" y="149" on="1"/>
        <pt x="92" y="453" on="1"/>
        <pt x="-70" y="453" on="1"/>
        <pt x="-64" y="508" on="1"/>
        <pt x="416" y="508" on="1"/>
        <pt x="410" y="453" on="1"/>
        <pt x="239" y="453" on="1"/>
        <pt x="196" y="164" on="1"/>
      </contour>
    </TTGlyph>
    <TTGlyph name="IJ" xMin="42" yMin="-108" xMax="621" yMax="645">
      <component glyphName="I" x="0" y="0" flags="0x1000"/>
      <component glyphName="J" x="304" y="0" flags="0x1000"/>
    </TTGlyph>
    <TTGlyph name="Iacute" xMin="42" yMin="0" xMax="360" yMax="900">
      <component glyphName="I" x="0" y="0" flags="0x1000"/>
      <component glyphName="acute.cap" x="-15" y="178" flags="0x1000"/>
    </TTGlyph>
    <TTGlyph name="Iacute_J.loclNLD" xMin="42" yMin="-108" xMax="662" yMax="900">
      <component glyphName="I" x="0" y="0" flags="0x1000"/>
      <component glyphName="acute.cap" x="-15" y="178" flags="0x1000"/>
      <component glyphName="J" x="304" y="0" flags="0x1000"/>
      <component glyphName="acute.cap" x="287" y="178" flags="0x1000"/>
    </TTGlyph>
    <TTGlyph name="Ibreve" xMin="42" yMin="0" xMax="380" yMax="880">
      <component glyphName="I" x="0" y="0" flags="0x1000"/>
      <component glyphName="breve.cap" x="-26" y="178" flags="0x1000"/>
    </TTGlyph>
    <TTGlyph name="Icaron" xMin="42" yMin="0" xMax="375" yMax="887">
      <component glyphName="I" x="0" y="0" flags="0x1000"/>
      <component glyphName="caron.cap" x="-26" y="178" flags="0x1000"/>
    </TTGlyph>
    <TTGlyph name="Icircumflex" xMin="42" yMin="0" xMax="376" yMax="895">
      <component glyphName="I" x="0" y="0" flags="0x1000"/>
      <component glyphName="circumflex.cap" x="-20" y="178" flags="0x1000"/>
    </TTGlyph>
    <TTGlyph name="Idieresis" xMin="42" yMin="0" xMax="372" yMax="871">
      <component glyphName="I" x="0" y="0" flags="0x1000"/>
      <component glyphName="dieresis.i" x="-23" y="178" flags="0x1000"/>
    </TTGlyph>
    <TTGlyph name="Idotaccent" xMin="42" yMin="0" xMax="300" yMax="886">
      <component glyphName="I" x="0" y="0" flags="0x1000"/>
      <component glyphName="dotaccent" x="-22" y="178" flags="0x1000"/>
    </TTGlyph>
    <TTGlyph name="Idotbelow" xMin="31" yMin="-210" xMax="283" yMax="645">
      <component glyphName="I" x="0" y="0" flags="0x1000"/>
      <component glyphName="dotbelowcomb" x="-39" y="0" flags="0x1000"/>
    </TTGlyph>
    <TTGlyph name="Igrave" xMin="42" yMin="0" xMax="354" yMax="901">
      <component glyphName="I" x="0" y="0" flags="0x1000"/>
      <component glyphName="grave.cap" x="-21" y="178" flags="0x1000"/>
    </TTGlyph>
    <TTGlyph name="Ihookabove" xMin="42" yMin="0" xMax="285" yMax="930">
      <component glyphName="I" x="0" y="0" flags="0x1000"/>
      <component glyphName="hookabove" x="-65" y="178" flags="0x1000"/>
    </TTGlyph>
    <TTGlyph name="Imacron" xMin="42" yMin="0" xMax="343" yMax="849">
      <component glyphName="I" x="0" y="0" flags="0x1000"/>
      <component glyphName="macron.i" x="-23" y="178" flags="0x1000"/>
    </TTGlyph>
    <TTGlyph name="Iogonek" xMin="-5" yMin="-197" xMax="283" yMax="645">
      <contour>
        <pt x="220" y="206" on="1"/>
        <pt x="201" y="0" on="1"/>
        <pt x="119" y="0" on="1"/>
        <pt x="76" y="-54" on="0"/>
        <pt x="76" y="-84" on="1"/>
        <pt x="76" y="-114" on="0"/>
        <pt x="109" y="-114" on="1"/>
        <pt x="141" y="-114" on="0"/>
        <pt x="171" y="-87" on="1"/>
        <pt x="179" y="-87" on="1"/>
        <pt x="192" y="-149" on="1"/>
        <pt x="137" y="-197" on="0"/>
        <pt x="87" y="-197" on="1"/>
        <pt x="46" y="-197" on="0"/>
        <pt x="-5" y="-147" on="0"/>
        <pt x="-5" y="-107" on="1"/>
        <pt x="-5" y="-83" on="0"/>
        <pt x="16" y="-35" on="0"/>
        <pt x="42" y="2" on="1"/>
        <pt x="74" y="191" on="1"/>
        <pt x="122" y="645" on="1"/>
        <pt x="283" y="645" on="1"/>
      </contour>
    </TTGlyph>
    <TTGlyph name="Itilde" xMin="42" yMin="0" xMax="381" yMax="891">
      <component glyphName="I" x="0" y="0" flags="0x1000"/>
      <component glyphName="tilde.i" x="-22" y="178" flags="0x1000"/>
    </TTGlyph>
    <TTGlyph name="J" xMin="-22" yMin="-108" xMax="317" yMax="645">
      <contour>
        <pt x="254" y="213" on="1"/>
        <pt x="246" y="122" on="1"/>
        <pt x="238" y="63" on="0"/>
        <pt x="189" y="-19" on="0"/>
        <pt x="93" y="-81" on="0"/>
        <pt x="13" y="-108" on="1"/>
        <pt x="-22" y="-25" on="1"/>
        <pt x="-21" y="-12" on="1"/>
        <pt x="40" y="18" on="0"/>
        <pt x="93" y="78" on="0"/>
        <pt x="99" y="126" on="1"/>
        <pt x="108" y="197" on="1"/>
        <pt x="144" y="530" on="1"/>
        <pt x="49" y="528" on="1"/>
        <pt x="40" y="539" on="1"/>
        <pt x="60" y="645" on="1"/>
        <pt x="317" y="645" on="1"/>
      </contour>
    </TTGlyph>
    <TTGlyph name="Jcircumflex" xMin="-22" yMin="-108" xMax="374" yMax="895">
      <component glyphName="J" x="0" y="0" flags="0x1000"/>
      <component glyphName="circumflex.cap" x="-22" y="178" flags="0x1000"/>
    </TTGlyph>
    <TTGlyph name="K" xMin="41" yMin="-11" xMax="637" yMax="645">
      <contour>
        <pt x="466" y="195" on="0"/>
        <pt x="580" y="33" on="1"/>
        <pt x="575" y="16" on="1"/>
        <pt x="493" y="-4" on="0"/>
        <pt x="415" y="-11" on="1"/>
        <pt x="399" y="-1" on="1"/>
        <pt x="300" y="180" on="0"/>
        <pt x="235" y="319" on="1"/>
        <pt x="219" y="206" on="1"/>
        <pt x="200" y="0" on="1"/>
        <pt x="41" y="0" on="1"/>
        <pt x="74" y="191" on="1"/>
        <pt x="122" y="645" on="1"/>
        <pt x="283" y="645" on="1"/>
        <pt x="241" y="355" on="1"/>
        <pt x="423" y="580" on="1"/>
        <pt x="467" y="645" on="1"/>
        <pt x="637" y="645" on="1"/>
        <pt x="390" y="333" on="1"/>
      </contour>
    </TTGlyph>
    <TTGlyph name="Kcommaaccent" xMin="41" yMin="-288" xMax="637" yMax="645">
      <component glyphName="K" x="0" y="0" flags="0x1000"/>
      <component glyphName="commaaccentcomb" x="138" y="1" flags="0x1000"/>
    </TTGlyph>
    <TTGlyph name="L" xMin="38" yMin="0" xMax="419" yMax="645">
      <contour>
        <pt x="394" y="0" on="1"/>
        <pt x="38" y="0" on="1"/>
        <pt x="70" y="191" on="1"/>
        <pt x="118" y="645" on="1"/>
        <pt x="279" y="645" on="1"/>
        <pt x="216" y="206" on="1"/>
        <pt x="209" y="131" on="1"/>
        <pt x="412" y="131" on="1"/>
        <pt x="419" y="119" on="1"/>
      </contour>
    </TTGlyph>
    <TTGlyph name="L.ss01" xMin="-128" yMin="0" xMax="518" yMax="508">
      <contour>
        <pt x="188" y="123" on="1"/>
        <pt x="351" y="123" on="1"/>
        <pt x="340" y="54" on="1"/>
        <pt x="461" y="54" on="1"/>
        <pt x="455" y="0" on="1"/>
        <pt x="-128" y="0" on="1"/>
        <pt x="-121" y="54" on="1"/>
        <pt x="43" y="54" on="1"/>
        <pt x="60" y="155" on="1"/>
        <pt x="92" y="453" on="1"/>
        <pt x="-72" y="453" on="1"/>
        <pt x="-65" y="508" on="1"/>
        <pt x="518" y="508" on="1"/>
        <pt x="512" y="453" on="1"/>
        <pt x="235" y="453" on="1"/>
        <pt x="194" y="170" on="1"/>
      </contour>
    </TTGlyph>
    <TTGlyph name="Lacute" xMin="38" yMin="0" xMax="419" yMax="900">
      <component glyphName="L" x="0" y="0" flags="0x1000"/>
      <component glyphName="acute.cap" x="-21" y="178" flags="0x1000"/>
    </TTGlyph>
    <TTGlyph name="Lcaron" xMin="38" yMin="0" xMax="496" yMax="645">
      <contour>
        <pt x="419" y="119" on="1"/>
        <pt x="394" y="0" on="1"/>
        <pt x="38" y="0" on="1"/>
        <pt x="70" y="191" on="1"/>
        <pt x="118" y="645" on="1"/>
        <pt x="279" y="645" on="1"/>
        <pt x="216" y="206" on="1"/>
        <pt x="209" y="131" on="1"/>
        <pt x="412" y="131" on="1"/>
      </contour>
      <contour>
        <pt x="434" y="374" on="1"/>
        <pt x="365" y="363" on="1"/>
        <pt x="356" y="372" on="1"/>
        <pt x="378" y="588" on="1"/>
        <pt x="489" y="594" on="1"/>
        <pt x="496" y="585" on="1"/>
      </contour>
    </TTGlyph>
    <TTGlyph name="Lcommaaccent" xMin="38" yMin="-288" xMax="419" yMax="645">
      <component glyphName="L" x="0" y="0" flags="0x1000"/>
      <component glyphName="commaaccentcomb" x="45" y="1" flags="0x1000"/>
    </TTGlyph>
    <TTGlyph name="Ldot" xMin="44" yMin="0" xMax="472" yMax="645">
      <component glyphName="L" x="6" y="0" flags="0x1000"/>
      <component glyphName="period" x="298" y="320" flags="0x1000"/>
    </TTGlyph>
    <TTGlyph name="Lslash" xMin="-5" yMin="0" xMax="426" yMax="645">
      <contour>
        <pt x="402" y="0" on="1"/>
        <pt x="46" y="0" on="1"/>
        <pt x="78" y="191" on="1"/>
        <pt x="82" y="230" on="1"/>
        <pt x="24" y="202" on="1"/>
        <pt x="12" y="210" on="1"/>
        <pt x="-5" y="302" on="1"/>
        <pt x="95" y="350" on="1"/>
        <pt x="125" y="645" on="1"/>
        <pt x="286" y="645" on="1"/>
        <pt x="255" y="429" on="1"/>
        <pt x="348" y="474" on="1"/>
        <pt x="361" y="467" on="1"/>
        <pt x="379" y="376" on="1"/>
        <pt x="238" y="307" on="1"/>
        <pt x="224" y="206" on="1"/>
        <pt x="217" y="131" on="1"/>
        <pt x="419" y="131" on="1"/>
        <pt x="426" y="119" on="1"/>
      </contour>
    </TTGlyph>
    <TTGlyph name="M" xMin="8" yMin="0" xMax="744" yMax="645">
      <contour>
        <pt x="578" y="0" on="1"/>
        <pt x="595" y="196" on="1"/>
        <pt x="604" y="413" on="1"/>
        <pt x="594" y="413" on="1"/>
        <pt x="424" y="65" on="1"/>
        <pt x="303" y="65" on="1"/>
        <pt x="234" y="413" on="1"/>
        <pt x="224" y="413" on="1"/>
        <pt x="179" y="210" on="1"/>
        <pt x="141" y="0" on="1"/>
        <pt x="8" y="0" on="1"/>
        <pt x="151" y="645" on="1"/>
        <pt x="334" y="645" on="1"/>
        <pt x="346" y="551" on="1"/>
        <pt x="393" y="271" on="1"/>
        <pt x="403" y="271" on="1"/>
        <pt x="526" y="548" on="1"/>
        <pt x="564" y="645" on="1"/>
        <pt x="744" y="645" on="1"/>
        <pt x="719" y="0" on="1"/>
      </contour>
    </TTGlyph>
    <TTGlyph name="M.ss01" xMin="-127" yMin="0" xMax="809" yMax="508">
      <contour>
        <pt x="592" y="54" on="1"/>
        <pt x="752" y="54" on="1"/>
        <pt x="746" y="0" on="1"/>
        <pt x="-127" y="0" on="1"/>
        <pt x="-120" y="54" on="1"/>
        <pt x="34" y="54" on="1"/>
        <pt x="124" y="453" on="1"/>
        <pt x="-70" y="453" on="1"/>
        <pt x="-64" y="508" on="1"/>
        <pt x="809" y="508" on="1"/>
        <pt x="802" y="453" on="1"/>
        <pt x="607" y="453" on="1"/>
      </contour>
      <contour>
        <pt x="300" y="453" on="1"/>
        <pt x="303" y="429" on="1"/>
        <pt x="337" y="269" on="1"/>
        <pt x="345" y="269" on="1"/>
        <pt x="422" y="426" on="1"/>
        <pt x="434" y="453" on="1"/>
      </contour>
      <contour>
        <pt x="483" y="173" on="1"/>
        <pt x="488" y="302" on="1"/>
        <pt x="480" y="302" on="1"/>
        <pt x="364" y="90" on="1"/>
        <pt x="258" y="90" on="1"/>
        <pt x="205" y="302" on="1"/>
        <pt x="197" y="302" on="1"/>
        <pt x="171" y="184" on="1"/>
        <pt x="150" y="54" on="1"/>
        <pt x="471" y="54" on="1"/>
      </contour>
    </TTGlyph>
    <TTGlyph name="N" xMin="42" yMin="0" xMax="673" yMax="648">
      <contour>
        <pt x="590" y="0" on="1"/>
        <pt x="418" y="0" on="1"/>
        <pt x="242" y="404" on="1"/>
        <pt x="232" y="404" on="1"/>
        <pt x="209" y="226" on="1"/>
        <pt x="187" y="0" on="1"/>
        <pt x="42" y="0" on="1"/>
        <pt x="74" y="190" on="1"/>
        <pt x="122" y="645" on="1"/>
        <pt x="293" y="645" on="1"/>
        <pt x="470" y="241" on="1"/>
        <pt x="480" y="241" on="1"/>
        <pt x="525" y="639" on="1"/>
        <pt x="673" y="648" on="1"/>
        <pt x="608" y="203" on="1"/>
      </contour>
    </TTGlyph>
    <TTGlyph name="Nacute" xMin="42" yMin="0" xMax="673" yMax="900">
      <component glyphName="N" x="0" y="0" flags="0x1000"/>
      <component glyphName="acute.cap" x="181" y="178" flags="0x1000"/>
    </TTGlyph>
    <TTGlyph name="Ncaron" xMin="42" yMin="0" xMax="673" yMax="887">
      <component glyphName="N" x="0" y="0" flags="0x1000"/>
      <component glyphName="caron.cap" x="170" y="178" flags="0x1000"/>
    </TTGlyph>
    <TTGlyph name="Ncommaaccent" xMin="42" yMin="-288" xMax="673" yMax="648">
      <component glyphName="N" x="0" y="0" flags="0x1000"/>
      <component glyphName="commaaccentcomb" x="155" y="1" flags="0x1000"/>
    </TTGlyph>
    <TTGlyph name="Ntilde" xMin="42" yMin="0" xMax="673" yMax="894">
      <component glyphName="N" x="0" y="0" flags="0x1000"/>
      <component glyphName="tilde" x="174" y="178" flags="0x1000"/>
    </TTGlyph>
    <TTGlyph name="O" xMin="32" yMin="-11" xMax="633" yMax="655">
      <contour>
        <pt x="497" y="655" on="0"/>
        <pt x="633" y="516" on="0"/>
        <pt x="633" y="380" on="1"/>
        <pt x="633" y="264" on="0"/>
        <pt x="553" y="87" on="0"/>
        <pt x="399" y="-11" on="0"/>
        <pt x="291" y="-11" on="1"/>
        <pt x="168" y="-11" on="0"/>
        <pt x="32" y="131" on="0"/>
        <pt x="32" y="268" on="1"/>
        <pt x="32" y="384" on="0"/>
        <pt x="111" y="559" on="0"/>
        <pt x="265" y="655" on="0"/>
        <pt x="373" y="655" on="1"/>
      </contour>
      <contour>
        <pt x="277" y="527" on="0"/>
        <pt x="197" y="410" on="0"/>
        <pt x="197" y="269" on="1"/>
        <pt x="197" y="182" on="0"/>
        <pt x="246" y="109" on="0"/>
        <pt x="307" y="109" on="1"/>
        <pt x="385" y="109" on="0"/>
        <pt x="465" y="227" on="0"/>
        <pt x="465" y="369" on="1"/>
        <pt x="465" y="455" on="0"/>
        <pt x="416" y="527" on="0"/>
        <pt x="355" y="527" on="1"/>
      </contour>
    </TTGlyph>
    <TTGlyph name="OE" xMin="31" yMin="-12" xMax="902" yMax="657">
      <contour>
        <pt x="447" y="657" on="0"/>
        <pt x="503" y="650" on="1"/>
        <pt x="573" y="645" on="0"/>
        <pt x="585" y="645" on="1"/>
        <pt x="893" y="645" on="1"/>
        <pt x="902" y="633" on="1"/>
        <pt x="876" y="516" on="1"/>
        <pt x="725" y="521" on="1"/>
        <pt x="614" y="521" on="1"/>
        <pt x="596" y="388" on="1"/>
        <pt x="698" y="387" on="1"/>
        <pt x="804" y="390" on="1"/>
        <pt x="811" y="379" on="1"/>
        <pt x="786" y="262" on="1"/>
        <pt x="672" y="265" on="1"/>
        <pt x="576" y="264" on="1"/>
        <pt x="570" y="205" on="1"/>
        <pt x="562" y="124" on="1"/>
        <pt x="664" y="123" on="1"/>
        <pt x="826" y="129" on="1"/>
        <pt x="833" y="117" on="1"/>
        <pt x="809" y="0" on="1"/>
        <pt x="506" y="0" on="1"/>
        <pt x="475" y="1" on="0"/>
        <pt x="402" y="-5" on="1"/>
        <pt x="341" y="-12" on="0"/>
        <pt x="293" y="-12" on="1"/>
        <pt x="167" y="-12" on="0"/>
        <pt x="31" y="132" on="0"/>
        <pt x="31" y="262" on="1"/>
        <pt x="31" y="383" on="0"/>
        <pt x="121" y="562" on="0"/>
        <pt x="287" y="657" on="0"/>
        <pt x="399" y="657" on="1"/>
      </contour>
      <contour>
        <pt x="282" y="529" on="0"/>
        <pt x="198" y="408" on="0"/>
        <pt x="198" y="265" on="1"/>
        <pt x="198" y="184" on="0"/>
        <pt x="257" y="108" on="0"/>
        <pt x="322" y="108" on="1"/>
        <pt x="377" y="108" on="0"/>
        <pt x="397" y="121" on="1"/>
        <pt x="417" y="133" on="0"/>
        <pt x="420" y="168" on="1"/>
        <pt x="453" y="469" on="1"/>
        <pt x="454" y="476" on="0"/>
        <pt x="454" y="488" on="1"/>
        <pt x="454" y="509" on="0"/>
        <pt x="446" y="514" on="1"/>
        <pt x="429" y="529" on="0"/>
        <pt x="369" y="529" on="1"/>
      </contour>
    </TTGlyph>
    <TTGlyph name="Oacute" xMin="32" yMin="-11" xMax="633" yMax="900">
      <component glyphName="O" x="0" y="0" flags="0x1000"/>
      <component glyphName="acute.cap" x="156" y="178" flags="0x1000"/>
    </TTGlyph>
    <TTGlyph name="Obreve" xMin="32" yMin="-11" xMax="633" yMax="880">
      <component glyphName="O" x="0" y="0" flags="0x1000"/>
      <component glyphName="breve.cap" x="144" y="178" flags="0x1000"/>
    </TTGlyph>
    <TTGlyph name="Ocaron" xMin="32" yMin="-11" xMax="633" yMax="887">
      <component glyphName="O" x="0" y="0" flags="0x1000"/>
      <component glyphName="caron.cap" x="144" y="178" flags="0x1000"/>
    </TTGlyph>
    <TTGlyph name="Ocircumflex" xMin="32" yMin="-11" xMax="633" yMax="895">
      <component glyphName="O" x="0" y="0" flags="0x1000"/>
      <component glyphName="circumflex.cap" x="151" y="178" flags="0x1000"/>
    </TTGlyph>
    <TTGlyph name="Ocircumflexacute" xMin="32" yMin="-11" xMax="633" yMax="1016">
      <component glyphName="O" x="0" y="0" flags="0x1000"/>
      <component glyphName="circumflexacute" x="150" y="178" flags="0x1000"/>
    </TTGlyph>
    <TTGlyph name="Ocircumflexdotbelow" xMin="32" yMin="-210" xMax="633" yMax="895">
      <contour>
        <pt x="318" y="840" on="0"/>
        <pt x="384" y="895" on="1"/>
        <pt x="414" y="895" on="1"/>
        <pt x="467" y="845" on="0"/>
        <pt x="547" y="786" on="1"/>
        <pt x="512" y="725" on="1"/>
        <pt x="497" y="725" on="1"/>
        <pt x="394" y="787" on="1"/>
        <pt x="328" y="753" on="1"/>
        <pt x="290" y="735" on="0"/>
        <pt x="272" y="725" on="1"/>
        <pt x="257" y="725" on="1"/>
        <pt x="236" y="786" on="1"/>
      </contour>
      <contour>
        <pt x="497" y="655" on="0"/>
        <pt x="633" y="516" on="0"/>
        <pt x="633" y="380" on="1"/>
        <pt x="633" y="264" on="0"/>
        <pt x="553" y="87" on="0"/>
        <pt x="399" y="-11" on="0"/>
        <pt x="291" y="-11" on="1"/>
        <pt x="168" y="-11" on="0"/>
        <pt x="32" y="131" on="0"/>
        <pt x="32" y="268" on="1"/>
        <pt x="32" y="384" on="0"/>
        <pt x="111" y="559" on="0"/>
        <pt x="265" y="655" on="0"/>
        <pt x="373" y="655" on="1"/>
      </contour>
      <contour>
        <pt x="276" y="527" on="0"/>
        <pt x="197" y="410" on="0"/>
        <pt x="197" y="269" on="1"/>
        <pt x="197" y="182" on="0"/>
        <pt x="246" y="109" on="0"/>
        <pt x="307" y="109" on="1"/>
        <pt x="385" y="109" on="0"/>
        <pt x="465" y="228" on="0"/>
        <pt x="465" y="369" on="1"/>
        <pt x="465" y="455" on="0"/>
        <pt x="416" y="527" on="0"/>
        <pt x="355" y="527" on="1"/>
      </contour>
      <contour>
        <pt x="344" y="-48" on="0"/>
        <pt x="384" y="-89" on="0"/>
        <pt x="384" y="-125" on="1"/>
        <pt x="384" y="-164" on="0"/>
        <pt x="340" y="-210" on="0"/>
        <pt x="302" y="-210" on="1"/>
        <pt x="265" y="-210" on="0"/>
        <pt x="225" y="-170" on="0"/>
        <pt x="225" y="-132" on="1"/>
        <pt x="225" y="-93" on="0"/>
        <pt x="270" y="-48" on="0"/>
        <pt x="308" y="-48" on="1"/>
      </contour>
    </TTGlyph>
    <TTGlyph name="Ocircumflexgrave" xMin="32" yMin="-11" xMax="633" yMax="1016">
      <component glyphName="O" x="0" y="0" flags="0x1000"/>
      <component glyphName="circumflexgrave" x="150" y="178" flags="0x1000"/>
    </TTGlyph>
    <TTGlyph name="Ocircumflexhookabove" xMin="32" yMin="-11" xMax="633" yMax="1062">
      <component glyphName="O" x="0" y="0" flags="0x1000"/>
      <component glyphName="circumflexhookabove" x="150" y="178" flags="0x1000"/>
    </TTGlyph>
    <TTGlyph name="Ocircumflextilde" xMin="32" yMin="-11" xMax="633" yMax="1043">
      <component glyphName="O" x="0" y="0" flags="0x1000"/>
      <component glyphName="circumflextilde" x="159" y="178" flags="0x1000"/>
    </TTGlyph>
    <TTGlyph name="Odieresis" xMin="32" yMin="-11" xMax="633" yMax="872">
      <component glyphName="O" x="0" y="0" flags="0x1000"/>
      <component glyphName="dieresis" x="148" y="178" flags="0x1000"/>
    </TTGlyph>
    <TTGlyph name="Odotbelow" xMin="32" yMin="-210" xMax="633" yMax="655">
      <component glyphName="O" x="0" y="0" flags="0x1000"/>
      <component glyphName="dotbelowcomb" x="155" y="0" flags="0x1000"/>
    </TTGlyph>
    <TTGlyph name="Ograve" xMin="32" yMin="-11" xMax="633" yMax="901">
      <component glyphName="O" x="0" y="0" flags="0x1000"/>
      <component glyphName="grave.cap" x="150" y="178" flags="0x1000"/>
    </TTGlyph>
    <TTGlyph name="Ohm" xMin="-8" yMin="-7" xMax="713" yMax="655">
      <component glyphName="Omega" x="0" y="0" flags="0x1000"/>
    </TTGlyph>
    <TTGlyph name="Ohookabove" xMin="32" yMin="-11" xMax="633" yMax="930">
      <component glyphName="O" x="0" y="0" flags="0x1000"/>
      <component glyphName="hookabove" x="105" y="178" flags="0x1000"/>
    </TTGlyph>
    <TTGlyph name="Ohorn" xMin="32" yMin="-11" xMax="723" yMax="781">
      <contour>
        <pt x="688" y="781" on="0"/>
        <pt x="723" y="734" on="0"/>
        <pt x="723" y="697" on="1"/>
        <pt x="723" y="643" on="0"/>
        <pt x="647" y="565" on="0"/>
        <pt x="589" y="555" on="1"/>
        <pt x="632" y="488" on="0"/>
        <pt x="632" y="381" on="1"/>
        <pt x="632" y="266" on="0"/>
        <pt x="550" y="88" on="0"/>
        <pt x="396" y="-11" on="0"/>
        <pt x="290" y="-11" on="1"/>
        <pt x="165" y="-11" on="0"/>
        <pt x="32" y="133" on="0"/>
        <pt x="32" y="274" on="1"/>
        <pt x="32" y="387" on="0"/>
        <pt x="117" y="560" on="0"/>
        <pt x="269" y="655" on="0"/>
        <pt x="367" y="655" on="1"/>
        <pt x="418" y="655" on="0"/>
        <pt x="485" y="637" on="1"/>
        <pt x="524" y="626" on="0"/>
        <pt x="541" y="626" on="1"/>
        <pt x="568" y="626" on="0"/>
        <pt x="601" y="655" on="0"/>
        <pt x="601" y="682" on="1"/>
        <pt x="601" y="716" on="0"/>
        <pt x="578" y="739" on="1"/>
        <pt x="582" y="751" on="1"/>
        <pt x="628" y="781" on="0"/>
        <pt x="660" y="781" on="1"/>
      </contour>
      <contour>
        <pt x="277" y="527" on="0"/>
        <pt x="197" y="409" on="0"/>
        <pt x="197" y="273" on="1"/>
        <pt x="197" y="185" on="0"/>
        <pt x="246" y="109" on="0"/>
        <pt x="310" y="109" on="1"/>
        <pt x="386" y="109" on="0"/>
        <pt x="466" y="228" on="0"/>
        <pt x="466" y="365" on="1"/>
        <pt x="466" y="452" on="0"/>
        <pt x="418" y="527" on="0"/>
        <pt x="354" y="527" on="1"/>
      </contour>
    </TTGlyph>
    <TTGlyph name="Ohornacute" xMin="32" yMin="-11" xMax="723" yMax="900">
      <component glyphName="Ohorn" x="0" y="0" flags="0x1000"/>
      <component glyphName="acute.cap" x="156" y="178" flags="0x1000"/>
    </TTGlyph>
    <TTGlyph name="Ohorndotbelow" xMin="32" yMin="-210" xMax="723" yMax="781">
      <component glyphName="Ohorn" x="0" y="0" flags="0x1000"/>
      <component glyphName="dotbelowcomb" x="155" y="0" flags="0x1000"/>
    </TTGlyph>
    <TTGlyph name="Ohorngrave" xMin="32" yMin="-11" xMax="723" yMax="901">
      <component glyphName="Ohorn" x="0" y="0" flags="0x1000"/>
      <component glyphName="grave.cap" x="150" y="178" flags="0x1000"/>
    </TTGlyph>
    <TTGlyph name="Ohornhookabove" xMin="32" yMin="-11" xMax="723" yMax="930">
      <component glyphName="Ohorn" x="0" y="0" flags="0x1000"/>
      <component glyphName="hookabove" x="105" y="178" flags="0x1000"/>
    </TTGlyph>
    <TTGlyph name="Ohorntilde" xMin="32" yMin="-11" xMax="723" yMax="894">
      <component glyphName="Ohorn" x="0" y="0" flags="0x1000"/>
      <component glyphName="tilde" x="148" y="178" flags="0x1000"/>
    </TTGlyph>
    <TTGlyph name="Ohungarumlaut" xMin="32" yMin="-11" xMax="633" yMax="894">
      <component glyphName="O" x="0" y="0" flags="0x1000"/>
      <component glyphName="hungarumlaut.cap" x="150" y="178" flags="0x1000"/>
    </TTGlyph>
    <TTGlyph name="Omacron" xMin="32" yMin="-11" xMax="633" yMax="849">
      <component glyphName="O" x="0" y="0" flags="0x1000"/>
      <component glyphName="macron" x="148" y="178" flags="0x1000"/>
    </TTGlyph>
    <TTGlyph name="Omega" xMin="-8" yMin="-7" xMax="713" yMax="655">
      <contour>
        <pt x="550" y="655" on="0"/>
        <pt x="690" y="523" on="0"/>
        <pt x="690" y="411" on="1"/>
        <pt x="690" y="260" on="0"/>
        <pt x="553" y="123" on="1"/>
        <pt x="556" y="118" on="1"/>
        <pt x="622" y="118" on="1"/>
        <pt x="706" y="127" on="1"/>
        <pt x="713" y="118" on="1"/>
        <pt x="680" y="-7" on="1"/>
        <pt x="561" y="0" on="1"/>
        <pt x="418" y="0" on="1"/>
        <pt x="381" y="-3" on="1"/>
        <pt x="374" y="3" on="1"/>
        <pt x="386" y="97" on="1"/>
        <pt x="522" y="222" on="0"/>
        <pt x="522" y="385" on="1"/>
        <pt x="522" y="454" on="0"/>
        <pt x="470" y="528" on="0"/>
        <pt x="407" y="528" on="1"/>
        <pt x="334" y="528" on="0"/>
        <pt x="255" y="423" on="0"/>
        <pt x="255" y="318" on="1"/>
        <pt x="255" y="185" on="0"/>
        <pt x="326" y="97" on="1"/>
        <pt x="315" y="3" on="1"/>
        <pt x="307" y="-3" on="1"/>
        <pt x="271" y="0" on="1"/>
        <pt x="101" y="0" on="1"/>
        <pt x="-1" y="-5" on="1"/>
        <pt x="-8" y="5" on="1"/>
        <pt x="25" y="125" on="1"/>
        <pt x="116" y="118" on="1"/>
        <pt x="163" y="118" on="1"/>
        <pt x="165" y="123" on="1"/>
        <pt x="92" y="217" on="0"/>
        <pt x="92" y="341" on="1"/>
        <pt x="92" y="430" on="0"/>
        <pt x="169" y="572" on="0"/>
        <pt x="317" y="655" on="0"/>
        <pt x="420" y="655" on="1"/>
      </contour>
    </TTGlyph>
    <TTGlyph name="Oogonek" xMin="32" yMin="-197" xMax="633" yMax="655">
      <contour>
        <pt x="403" y="-59" on="0"/>
        <pt x="403" y="-78" on="1"/>
        <pt x="403" y="-114" on="0"/>
        <pt x="440" y="-114" on="1"/>
        <pt x="468" y="-114" on="0"/>
        <pt x="504" y="-88" on="1"/>
        <pt x="512" y="-88" on="1"/>
        <pt x="523" y="-149" on="1"/>
        <pt x="468" y="-197" on="0"/>
        <pt x="417" y="-197" on="1"/>
        <pt x="374" y="-197" on="0"/>
        <pt x="322" y="-145" on="0"/>
        <pt x="322" y="-106" on="1"/>
        <pt x="322" y="-62" on="0"/>
        <pt x="352" y="-21" on="1"/>
        <pt x="364" y="-5" on="1"/>
        <pt x="329" y="-11" on="0"/>
        <pt x="291" y="-11" on="1"/>
        <pt x="168" y="-11" on="0"/>
        <pt x="32" y="131" on="0"/>
        <pt x="32" y="268" on="1"/>
        <pt x="32" y="384" on="0"/>
        <pt x="111" y="559" on="0"/>
        <pt x="265" y="655" on="0"/>
        <pt x="373" y="655" on="1"/>
        <pt x="497" y="655" on="0"/>
        <pt x="633" y="516" on="0"/>
        <pt x="633" y="380" on="1"/>
        <pt x="633" y="257" on="0"/>
        <pt x="544" y="73" on="0"/>
        <pt x="459" y="28" on="1"/>
        <pt x="419" y="-33" on="1"/>
      </contour>
      <contour>
        <pt x="197" y="182" on="0"/>
        <pt x="246" y="109" on="0"/>
        <pt x="307" y="109" on="1"/>
        <pt x="385" y="109" on="0"/>
        <pt x="465" y="228" on="0"/>
        <pt x="465" y="369" on="1"/>
        <pt x="465" y="455" on="0"/>
        <pt x="416" y="527" on="0"/>
        <pt x="355" y="527" on="1"/>
        <pt x="276" y="527" on="0"/>
        <pt x="197" y="410" on="0"/>
        <pt x="197" y="269" on="1"/>
      </contour>
    </TTGlyph>
    <TTGlyph name="Oslash" xMin="32" yMin="-124" xMax="633" yMax="742">
      <contour>
        <pt x="633" y="523" on="0"/>
        <pt x="633" y="380" on="1"/>
        <pt x="633" y="264" on="0"/>
        <pt x="553" y="87" on="0"/>
        <pt x="399" y="-11" on="0"/>
        <pt x="291" y="-11" on="1"/>
        <pt x="244" y="-11" on="0"/>
        <pt x="202" y="0" on="1"/>
        <pt x="128" y="-124" on="1"/>
        <pt x="48" y="-87" on="1"/>
        <pt x="43" y="-73" on="1"/>
        <pt x="114" y="46" on="1"/>
        <pt x="32" y="119" on="0"/>
        <pt x="32" y="268" on="1"/>
        <pt x="32" y="384" on="0"/>
        <pt x="111" y="559" on="0"/>
        <pt x="265" y="655" on="0"/>
        <pt x="373" y="655" on="1"/>
        <pt x="425" y="655" on="0"/>
        <pt x="468" y="643" on="1"/>
        <pt x="527" y="742" on="1"/>
        <pt x="605" y="706" on="1"/>
        <pt x="612" y="690" on="1"/>
        <pt x="555" y="595" on="1"/>
      </contour>
      <contour>
        <pt x="385" y="109" on="0"/>
        <pt x="465" y="228" on="0"/>
        <pt x="465" y="369" on="1"/>
        <pt x="465" y="455" on="0"/>
        <pt x="416" y="527" on="0"/>
        <pt x="355" y="527" on="1"/>
        <pt x="276" y="527" on="0"/>
        <pt x="197" y="410" on="0"/>
        <pt x="197" y="269" on="1"/>
        <pt x="197" y="182" on="0"/>
        <pt x="246" y="109" on="0"/>
        <pt x="307" y="109" on="1"/>
      </contour>
    </TTGlyph>
    <TTGlyph name="Oslashacute" xMin="32" yMin="-124" xMax="633" yMax="902">
      <component glyphName="Oslash" x="0" y="0" flags="0x1000"/>
      <component glyphName="acute.cap" x="142" y="180" flags="0x1000"/>
    </TTGlyph>
    <TTGlyph name="Otilde" xMin="32" yMin="-11" xMax="633" yMax="894">
      <component glyphName="O" x="0" y="0" flags="0x1000"/>
      <component glyphName="tilde" x="148" y="178" flags="0x1000"/>
    </TTGlyph>
    <TTGlyph name="P" xMin="42" yMin="0" xMax="578" yMax="646">
      <contour>
        <pt x="472" y="646" on="0"/>
        <pt x="578" y="556" on="0"/>
        <pt x="578" y="472" on="1"/>
        <pt x="578" y="392" on="0"/>
        <pt x="505" y="268" on="0"/>
        <pt x="371" y="198" on="0"/>
        <pt x="283" y="198" on="1"/>
        <pt x="219" y="198" on="1"/>
        <pt x="201" y="0" on="1"/>
        <pt x="42" y="0" on="1"/>
        <pt x="74" y="191" on="1"/>
        <pt x="122" y="645" on="1"/>
        <pt x="378" y="646" on="1"/>
      </contour>
      <contour>
        <pt x="410" y="342" on="0"/>
        <pt x="410" y="447" on="1"/>
        <pt x="410" y="489" on="0"/>
        <pt x="368" y="530" on="0"/>
        <pt x="321" y="532" on="1"/>
        <pt x="266" y="529" on="1"/>
        <pt x="236" y="316" on="1"/>
        <pt x="322" y="312" on="1"/>
      </contour>
    </TTGlyph>
    <TTGlyph name="Q" xMin="32" yMin="-205" xMax="694" yMax="655">
      <contour>
        <pt x="658" y="-160" on="0"/>
        <pt x="610" y="-200" on="1"/>
        <pt x="598" y="-205" on="1"/>
        <pt x="427" y="-132" on="0"/>
        <pt x="298" y="-11" on="1"/>
        <pt x="289" y="-11" on="1"/>
        <pt x="166" y="-11" on="0"/>
        <pt x="32" y="131" on="0"/>
        <pt x="32" y="268" on="1"/>
        <pt x="32" y="384" on="0"/>
        <pt x="112" y="559" on="0"/>
        <pt x="266" y="655" on="0"/>
        <pt x="375" y="655" on="1"/>
        <pt x="499" y="655" on="0"/>
        <pt x="633" y="517" on="0"/>
        <pt x="633" y="380" on="1"/>
        <pt x="633" y="253" on="0"/>
        <pt x="537" y="67" on="0"/>
        <pt x="448" y="23" on="1"/>
        <pt x="561" y="-48" on="0"/>
        <pt x="690" y="-83" on="1"/>
        <pt x="694" y="-99" on="1"/>
      </contour>
      <contour>
        <pt x="197" y="182" on="0"/>
        <pt x="246" y="109" on="0"/>
        <pt x="307" y="109" on="1"/>
        <pt x="385" y="109" on="0"/>
        <pt x="465" y="227" on="0"/>
        <pt x="465" y="369" on="1"/>
        <pt x="465" y="455" on="0"/>
        <pt x="416" y="527" on="0"/>
        <pt x="355" y="527" on="1"/>
        <pt x="277" y="527" on="0"/>
        <pt x="197" y="410" on="0"/>
        <pt x="197" y="269" on="1"/>
      </contour>
    </TTGlyph>
    <TTGlyph name="R" xMin="42" yMin="-11" xMax="579" yMax="646">
      <contour>
        <pt x="579" y="408" on="0"/>
        <pt x="506" y="291" on="0"/>
        <pt x="440" y="253" on="1"/>
        <pt x="496" y="143" on="0"/>
        <pt x="560" y="37" on="1"/>
        <pt x="557" y="20" on="1"/>
        <pt x="478" y="-5" on="0"/>
        <pt x="396" y="-11" on="1"/>
        <pt x="382" y="2" on="1"/>
        <pt x="333" y="122" on="0"/>
        <pt x="304" y="209" on="1"/>
        <pt x="219" y="209" on="1"/>
        <pt x="219" y="206" on="1"/>
        <pt x="201" y="0" on="1"/>
        <pt x="42" y="0" on="1"/>
        <pt x="74" y="191" on="1"/>
        <pt x="122" y="645" on="1"/>
        <pt x="379" y="646" on="1"/>
        <pt x="473" y="646" on="0"/>
        <pt x="579" y="559" on="0"/>
        <pt x="579" y="479" on="1"/>
      </contour>
      <contour>
        <pt x="324" y="324" on="1"/>
        <pt x="410" y="356" on="0"/>
        <pt x="410" y="453" on="1"/>
        <pt x="410" y="492" on="0"/>
        <pt x="366" y="530" on="0"/>
        <pt x="321" y="532" on="1"/>
        <pt x="266" y="529" on="1"/>
        <pt x="237" y="328" on="1"/>
      </contour>
    </TTGlyph>
    <TTGlyph name="Racute" xMin="42" yMin="-11" xMax="579" yMax="913">
      <component glyphName="R" x="0" y="0" flags="0x1000"/>
      <component glyphName="acute" x="128" y="178" flags="0x1000"/>
    </TTGlyph>
    <TTGlyph name="Rcaron" xMin="42" yMin="-11" xMax="579" yMax="905">
      <component glyphName="R" x="0" y="0" flags="0x1000"/>
      <component glyphName="caron" x="121" y="178" flags="0x1000"/>
    </TTGlyph>
    <TTGlyph name="Rcommaaccent" xMin="42" yMin="-288" xMax="579" yMax="646">
      <component glyphName="R" x="0" y="0" flags="0x1000"/>
      <component glyphName="commaaccentcomb" x="107" y="1" flags="0x1000"/>
    </TTGlyph>
    <TTGlyph name="S" xMin="4" yMin="-10" xMax="504" yMax="655">
      <contour>
        <pt x="420" y="655" on="0"/>
        <pt x="504" y="621" on="1"/>
        <pt x="463" y="488" on="1"/>
        <pt x="439" y="478" on="1"/>
        <pt x="405" y="503" on="0"/>
        <pt x="333" y="531" on="0"/>
        <pt x="305" y="531" on="1"/>
        <pt x="270" y="531" on="0"/>
        <pt x="228" y="497" on="0"/>
        <pt x="228" y="473" on="1"/>
        <pt x="228" y="449" on="0"/>
        <pt x="271" y="414" on="0"/>
        <pt x="319" y="389" on="1"/>
        <pt x="367" y="363" on="0"/>
        <pt x="427" y="321" on="0"/>
        <pt x="471" y="254" on="0"/>
        <pt x="471" y="207" on="1"/>
        <pt x="471" y="148" on="0"/>
        <pt x="402" y="48" on="0"/>
        <pt x="279" y="-10" on="0"/>
        <pt x="201" y="-10" on="1"/>
        <pt x="102" y="-10" on="0"/>
        <pt x="4" y="30" on="1"/>
        <pt x="43" y="173" on="1"/>
        <pt x="60" y="182" on="1"/>
        <pt x="98" y="147" on="0"/>
        <pt x="192" y="109" on="0"/>
        <pt x="228" y="109" on="1"/>
        <pt x="267" y="109" on="0"/>
        <pt x="309" y="144" on="0"/>
        <pt x="309" y="169" on="1"/>
        <pt x="309" y="195" on="0"/>
        <pt x="264" y="232" on="0"/>
        <pt x="217" y="257" on="1"/>
        <pt x="171" y="281" on="0"/>
        <pt x="111" y="322" on="0"/>
        <pt x="68" y="389" on="0"/>
        <pt x="68" y="436" on="1"/>
        <pt x="68" y="497" on="0"/>
        <pt x="137" y="597" on="0"/>
        <pt x="258" y="655" on="0"/>
        <pt x="333" y="655" on="1"/>
      </contour>
    </TTGlyph>
    <TTGlyph name="Sacute" xMin="4" yMin="-10" xMax="504" yMax="913">
      <component glyphName="S" x="0" y="0" flags="0x1000"/>
      <component glyphName="acute" x="84" y="178" flags="0x1000"/>
    </TTGlyph>
    <TTGlyph name="Scaron" xMin="4" yMin="-10" xMax="504" yMax="905">
      <component glyphName="S" x="0" y="0" flags="0x1000"/>
      <component glyphName="caron" x="77" y="178" flags="0x1000"/>
    </TTGlyph>
    <TTGlyph name="Scedilla" xMin="4" yMin="-203" xMax="503" yMax="655">
      <contour>
        <pt x="227" y="449" on="0"/>
        <pt x="270" y="414" on="0"/>
        <pt x="318" y="389" on="1"/>
        <pt x="366" y="363" on="0"/>
        <pt x="427" y="321" on="0"/>
        <pt x="471" y="254" on="0"/>
        <pt x="471" y="207" on="1"/>
        <pt x="471" y="153" on="0"/>
        <pt x="413" y="59" on="0"/>
        <pt x="307" y="-1" on="0"/>
        <pt x="238" y="-8" on="1"/>
        <pt x="230" y="-45" on="1"/>
        <pt x="264" y="-64" on="1"/>
        <pt x="306" y="-88" on="0"/>
        <pt x="306" y="-125" on="1"/>
        <pt x="306" y="-159" on="0"/>
        <pt x="252" y="-203" on="0"/>
        <pt x="206" y="-203" on="1"/>
        <pt x="160" y="-203" on="0"/>
        <pt x="121" y="-176" on="1"/>
        <pt x="131" y="-113" on="1"/>
        <pt x="138" y="-111" on="1"/>
        <pt x="169" y="-140" on="0"/>
        <pt x="196" y="-140" on="1"/>
        <pt x="218" y="-140" on="0"/>
        <pt x="218" y="-121" on="1"/>
        <pt x="218" y="-111" on="0"/>
        <pt x="203" y="-103" on="1"/>
        <pt x="153" y="-75" on="1"/>
        <pt x="168" y="-9" on="1"/>
        <pt x="87" y="-3" on="0"/>
        <pt x="4" y="30" on="1"/>
        <pt x="43" y="173" on="1"/>
        <pt x="60" y="182" on="1"/>
        <pt x="98" y="147" on="0"/>
        <pt x="191" y="109" on="0"/>
        <pt x="228" y="109" on="1"/>
        <pt x="266" y="109" on="0"/>
        <pt x="309" y="144" on="0"/>
        <pt x="309" y="169" on="1"/>
        <pt x="309" y="195" on="0"/>
        <pt x="264" y="232" on="0"/>
        <pt x="217" y="257" on="1"/>
        <pt x="171" y="281" on="0"/>
        <pt x="111" y="322" on="0"/>
        <pt x="68" y="389" on="0"/>
        <pt x="68" y="436" on="1"/>
        <pt x="68" y="497" on="0"/>
        <pt x="137" y="597" on="0"/>
        <pt x="258" y="655" on="0"/>
        <pt x="333" y="655" on="1"/>
        <pt x="420" y="655" on="0"/>
        <pt x="503" y="621" on="1"/>
        <pt x="463" y="488" on="1"/>
        <pt x="439" y="478" on="1"/>
        <pt x="405" y="503" on="0"/>
        <pt x="333" y="531" on="0"/>
        <pt x="305" y="531" on="1"/>
        <pt x="270" y="531" on="0"/>
        <pt x="227" y="497" on="0"/>
        <pt x="227" y="473" on="1"/>
      </contour>
    </TTGlyph>
    <TTGlyph name="Scircumflex" xMin="4" yMin="-10" xMax="504" yMax="908">
      <component glyphName="S" x="0" y="0" flags="0x1000"/>
      <component glyphName="circumflex" x="87" y="178" flags="0x1000"/>
    </TTGlyph>
    <TTGlyph name="Scommaaccent" xMin="4" yMin="-288" xMax="504" yMax="655">
      <component glyphName="S" x="0" y="0" flags="0x1000"/>
      <component glyphName="commaaccentcomb" x="60" y="1" flags="0x1000"/>
    </TTGlyph>
    <TTGlyph name="T" xMin="49" yMin="0" xMax="539" yMax="645">
      <contour>
        <pt x="515" y="516" on="1"/>
        <pt x="393" y="522" on="1"/>
        <pt x="365" y="522" on="1"/>
        <pt x="321" y="206" on="1"/>
        <pt x="302" y="0" on="1"/>
        <pt x="143" y="0" on="1"/>
        <pt x="176" y="191" on="1"/>
        <pt x="212" y="522" on="1"/>
        <pt x="183" y="522" on="1"/>
        <pt x="57" y="516" on="1"/>
        <pt x="49" y="528" on="1"/>
        <pt x="73" y="645" on="1"/>
        <pt x="532" y="645" on="1"/>
        <pt x="539" y="633" on="1"/>
      </contour>
    </TTGlyph>
    <TTGlyph name="Tbar" xMin="49" yMin="0" xMax="539" yMax="645">
      <contour>
        <pt x="339" y="339" on="1"/>
        <pt x="425" y="339" on="1"/>
        <pt x="435" y="328" on="1"/>
        <pt x="429" y="255" on="1"/>
        <pt x="327" y="255" on="1"/>
        <pt x="320" y="206" on="1"/>
        <pt x="302" y="0" on="1"/>
        <pt x="143" y="0" on="1"/>
        <pt x="176" y="191" on="1"/>
        <pt x="183" y="255" on="1"/>
        <pt x="101" y="255" on="1"/>
        <pt x="91" y="266" on="1"/>
        <pt x="97" y="339" on="1"/>
        <pt x="192" y="339" on="1"/>
        <pt x="211" y="522" on="1"/>
        <pt x="183" y="522" on="1"/>
        <pt x="57" y="516" on="1"/>
        <pt x="49" y="528" on="1"/>
        <pt x="73" y="645" on="1"/>
        <pt x="532" y="645" on="1"/>
        <pt x="539" y="633" on="1"/>
        <pt x="516" y="516" on="1"/>
        <pt x="394" y="522" on="1"/>
        <pt x="364" y="522" on="1"/>
      </contour>
    </TTGlyph>
    <TTGlyph name="Tcaron" xMin="49" yMin="0" xMax="539" yMax="905">
      <component glyphName="T" x="0" y="0" flags="0x1000"/>
      <component glyphName="caron" x="73" y="178" flags="0x1000"/>
    </TTGlyph>
    <TTGlyph name="Tcedilla" xMin="49" yMin="-197" xMax="539" yMax="645">
      <contour>
        <pt x="516" y="516" on="1"/>
        <pt x="394" y="522" on="1"/>
        <pt x="364" y="522" on="1"/>
        <pt x="320" y="206" on="1"/>
        <pt x="302" y="0" on="1"/>
        <pt x="256" y="0" on="1"/>
        <pt x="246" y="-44" on="1"/>
        <pt x="278" y="-63" on="1"/>
        <pt x="318" y="-86" on="0"/>
        <pt x="318" y="-121" on="1"/>
        <pt x="318" y="-154" on="0"/>
        <pt x="266" y="-197" on="0"/>
        <pt x="223" y="-197" on="1"/>
        <pt x="183" y="-197" on="0"/>
        <pt x="142" y="-171" on="1"/>
        <pt x="152" y="-111" on="1"/>
        <pt x="158" y="-108" on="1"/>
        <pt x="189" y="-137" on="0"/>
        <pt x="214" y="-137" on="1"/>
        <pt x="234" y="-137" on="0"/>
        <pt x="234" y="-119" on="1"/>
        <pt x="234" y="-108" on="0"/>
        <pt x="220" y="-100" on="1"/>
        <pt x="173" y="-73" on="1"/>
        <pt x="189" y="0" on="1"/>
        <pt x="143" y="0" on="1"/>
        <pt x="176" y="191" on="1"/>
        <pt x="211" y="522" on="1"/>
        <pt x="183" y="522" on="1"/>
        <pt x="57" y="516" on="1"/>
        <pt x="49" y="528" on="1"/>
        <pt x="73" y="645" on="1"/>
        <pt x="532" y="645" on="1"/>
        <pt x="539" y="633" on="1"/>
      </contour>
    </TTGlyph>
    <TTGlyph name="Thorn" xMin="42" yMin="0" xMax="572" yMax="645">
      <contour>
        <pt x="467" y="547" on="0"/>
        <pt x="572" y="459" on="0"/>
        <pt x="572" y="376" on="1"/>
        <pt x="572" y="297" on="0"/>
        <pt x="500" y="174" on="0"/>
        <pt x="368" y="105" on="0"/>
        <pt x="281" y="105" on="1"/>
        <pt x="212" y="105" on="1"/>
        <pt x="202" y="0" on="1"/>
        <pt x="42" y="0" on="1"/>
        <pt x="74" y="191" on="1"/>
        <pt x="122" y="645" on="1"/>
        <pt x="284" y="645" on="1"/>
        <pt x="270" y="547" on="1"/>
        <pt x="375" y="547" on="1"/>
      </contour>
      <contour>
        <pt x="407" y="247" on="0"/>
        <pt x="407" y="351" on="1"/>
        <pt x="407" y="392" on="0"/>
        <pt x="365" y="433" on="0"/>
        <pt x="319" y="435" on="1"/>
        <pt x="253" y="431" on="1"/>
        <pt x="223" y="222" on="1"/>
        <pt x="319" y="218" on="1"/>
      </contour>
    </TTGlyph>
    <TTGlyph name="U" xMin="53" yMin="-10" xMax="630" yMax="645">
      <contour>
        <pt x="573" y="226" on="1"/>
        <pt x="559" y="112" on="0"/>
        <pt x="415" y="-10" on="0"/>
        <pt x="288" y="-10" on="1"/>
        <pt x="177" y="-10" on="0"/>
        <pt x="53" y="87" on="0"/>
        <pt x="53" y="176" on="1"/>
        <pt x="53" y="198" on="0"/>
        <pt x="56" y="223" on="1"/>
        <pt x="70" y="320" on="1"/>
        <pt x="106" y="645" on="1"/>
        <pt x="264" y="645" on="1"/>
        <pt x="208" y="244" on="1"/>
        <pt x="206" y="220" on="0"/>
        <pt x="206" y="211" on="1"/>
        <pt x="206" y="163" on="0"/>
        <pt x="252" y="118" on="0"/>
        <pt x="301" y="118" on="1"/>
        <pt x="359" y="118" on="0"/>
        <pt x="420" y="177" on="0"/>
        <pt x="427" y="240" on="1"/>
        <pt x="470" y="645" on="1"/>
        <pt x="630" y="645" on="1"/>
        <pt x="585" y="318" on="1"/>
      </contour>
    </TTGlyph>
    <TTGlyph name="Uacute" xMin="53" yMin="-10" xMax="630" yMax="900">
      <component glyphName="U" x="0" y="0" flags="0x1000"/>
      <component glyphName="acute.cap" x="152" y="178" flags="0x1000"/>
    </TTGlyph>
    <TTGlyph name="Ubreve" xMin="53" yMin="-10" xMax="630" yMax="890">
      <component glyphName="U" x="0" y="0" flags="0x1000"/>
      <component glyphName="breve" x="140" y="178" flags="0x1000"/>
    </TTGlyph>
    <TTGlyph name="Ucaron" xMin="53" yMin="-10" xMax="630" yMax="905">
      <component glyphName="U" x="0" y="0" flags="0x1000"/>
      <component glyphName="caron" x="140" y="178" flags="0x1000"/>
    </TTGlyph>
    <TTGlyph name="Ucircumflex" xMin="53" yMin="-10" xMax="630" yMax="895">
      <component glyphName="U" x="0" y="0" flags="0x1000"/>
      <component glyphName="circumflex.cap" x="147" y="178" flags="0x1000"/>
    </TTGlyph>
    <TTGlyph name="Udieresis" xMin="53" yMin="-10" xMax="630" yMax="872">
      <component glyphName="U" x="0" y="0" flags="0x1000"/>
      <component glyphName="dieresis" x="144" y="178" flags="0x1000"/>
    </TTGlyph>
    <TTGlyph name="Udieresisacute" xMin="53" yMin="-10" xMax="630" yMax="1046">
      <component glyphName="U" x="0" y="0" flags="0x1000"/>
      <component glyphName="dieresisacute" x="147" y="178" flags="0x1000"/>
    </TTGlyph>
    <TTGlyph name="Udieresiscaron" xMin="53" yMin="-10" xMax="630" yMax="1032">
      <component glyphName="U" x="0" y="0" flags="0x1000"/>
      <component glyphName="dieresiscaron" x="147" y="178" flags="0x1000"/>
    </TTGlyph>
    <TTGlyph name="Udieresisgrave" xMin="53" yMin="-10" xMax="630" yMax="1046">
      <component glyphName="U" x="0" y="0" flags="0x1000"/>
      <component glyphName="dieresisgrave" x="141" y="178" flags="0x1000"/>
    </TTGlyph>
    <TTGlyph name="Udieresismacron" xMin="53" yMin="-10" xMax="630" yMax="1002">
      <component glyphName="U" x="0" y="0" flags="0x1000"/>
      <component glyphName="dieresismacron" x="147" y="178" flags="0x1000"/>
    </TTGlyph>
    <TTGlyph name="Udotbelow" xMin="53" yMin="-210" xMax="630" yMax="645">
      <component glyphName="U" x="0" y="0" flags="0x1000"/>
      <component glyphName="dotbelowcomb" x="131" y="0" flags="0x1000"/>
    </TTGlyph>
    <TTGlyph name="Ugrave" xMin="53" yMin="-10" xMax="630" yMax="901">
      <component glyphName="U" x="0" y="0" flags="0x1000"/>
      <component glyphName="grave.cap" x="147" y="178" flags="0x1000"/>
    </TTGlyph>
    <TTGlyph name="Uhookabove" xMin="53" yMin="-10" xMax="630" yMax="930">
      <component glyphName="U" x="0" y="0" flags="0x1000"/>
      <component glyphName="hookabove" x="102" y="178" flags="0x1000"/>
    </TTGlyph>
    <TTGlyph name="Uhorn" xMin="53" yMin="-10" xMax="708" yMax="795">
      <contour>
        <pt x="708" y="671" on="0"/>
        <pt x="662" y="608" on="0"/>
        <pt x="622" y="590" on="1"/>
        <pt x="585" y="318" on="1"/>
        <pt x="573" y="226" on="1"/>
        <pt x="559" y="112" on="0"/>
        <pt x="415" y="-10" on="0"/>
        <pt x="288" y="-10" on="1"/>
        <pt x="177" y="-10" on="0"/>
        <pt x="53" y="87" on="0"/>
        <pt x="53" y="176" on="1"/>
        <pt x="53" y="198" on="0"/>
        <pt x="56" y="223" on="1"/>
        <pt x="70" y="320" on="1"/>
        <pt x="106" y="645" on="1"/>
        <pt x="264" y="645" on="1"/>
        <pt x="208" y="244" on="1"/>
        <pt x="206" y="220" on="0"/>
        <pt x="206" y="211" on="1"/>
        <pt x="206" y="163" on="0"/>
        <pt x="252" y="118" on="0"/>
        <pt x="301" y="118" on="1"/>
        <pt x="359" y="118" on="0"/>
        <pt x="420" y="177" on="0"/>
        <pt x="427" y="240" on="1"/>
        <pt x="470" y="645" on="1"/>
        <pt x="529" y="645" on="1"/>
        <pt x="588" y="645" on="0"/>
        <pt x="588" y="694" on="1"/>
        <pt x="588" y="728" on="0"/>
        <pt x="558" y="753" on="1"/>
        <pt x="561" y="765" on="1"/>
        <pt x="604" y="795" on="0"/>
        <pt x="636" y="795" on="1"/>
        <pt x="666" y="795" on="0"/>
        <pt x="708" y="745" on="0"/>
        <pt x="708" y="708" on="1"/>
      </contour>
    </TTGlyph>
    <TTGlyph name="Uhornacute" xMin="53" yMin="-10" xMax="708" yMax="900">
      <component glyphName="Uhorn" x="0" y="0" flags="0x1000"/>
      <component glyphName="acute.cap" x="136" y="178" flags="0x1000"/>
    </TTGlyph>
    <TTGlyph name="Uhorndotbelow" xMin="53" yMin="-210" xMax="708" yMax="795">
      <component glyphName="Uhorn" x="0" y="0" flags="0x1000"/>
      <component glyphName="dotbelowcomb" x="138" y="0" flags="0x1000"/>
    </TTGlyph>
    <TTGlyph name="Uhorngrave" xMin="53" yMin="-10" xMax="708" yMax="901">
      <component glyphName="Uhorn" x="0" y="0" flags="0x1000"/>
      <component glyphName="grave.cap" x="131" y="178" flags="0x1000"/>
    </TTGlyph>
    <TTGlyph name="Uhornhookabove" xMin="53" yMin="-10" xMax="708" yMax="930">
      <component glyphName="Uhorn" x="0" y="0" flags="0x1000"/>
      <component glyphName="hookabove" x="86" y="178" flags="0x1000"/>
    </TTGlyph>
    <TTGlyph name="Uhorntilde" xMin="53" yMin="-10" xMax="708" yMax="894">
      <component glyphName="Uhorn" x="0" y="0" flags="0x1000"/>
      <component glyphName="tilde" x="129" y="178" flags="0x1000"/>
    </TTGlyph>
    <TTGlyph name="Uhungarumlaut" xMin="53" yMin="-10" xMax="630" yMax="894">
      <component glyphName="U" x="0" y="0" flags="0x1000"/>
      <component glyphName="hungarumlaut.cap" x="147" y="178" flags="0x1000"/>
    </TTGlyph>
    <TTGlyph name="Umacron" xMin="53" yMin="-10" xMax="630" yMax="849">
      <component glyphName="U" x="0" y="0" flags="0x1000"/>
      <component glyphName="macron" x="144" y="178" flags="0x1000"/>
    </TTGlyph>
    <TTGlyph name="Uogonek" xMin="53" yMin="-197" xMax="630" yMax="645">
      <contour>
        <pt x="585" y="318" on="1"/>
        <pt x="573" y="226" on="1"/>
        <pt x="558" y="97" on="0"/>
        <pt x="471" y="39" on="1"/>
        <pt x="426" y="-35" on="1"/>
        <pt x="409" y="-60" on="0"/>
        <pt x="409" y="-81" on="1"/>
        <pt x="409" y="-114" on="0"/>
        <pt x="445" y="-114" on="1"/>
        <pt x="476" y="-114" on="0"/>
        <pt x="508" y="-88" on="1"/>
        <pt x="516" y="-88" on="1"/>
        <pt x="528" y="-148" on="1"/>
        <pt x="472" y="-197" on="0"/>
        <pt x="423" y="-197" on="1"/>
        <pt x="380" y="-197" on="0"/>
        <pt x="329" y="-146" on="0"/>
        <pt x="329" y="-106" on="1"/>
        <pt x="329" y="-65" on="0"/>
        <pt x="358" y="-24" on="1"/>
        <pt x="373" y="-2" on="1"/>
        <pt x="331" y="-10" on="0"/>
        <pt x="288" y="-10" on="1"/>
        <pt x="177" y="-10" on="0"/>
        <pt x="53" y="87" on="0"/>
        <pt x="53" y="176" on="1"/>
        <pt x="53" y="198" on="0"/>
        <pt x="56" y="223" on="1"/>
        <pt x="70" y="320" on="1"/>
        <pt x="106" y="645" on="1"/>
        <pt x="264" y="645" on="1"/>
        <pt x="208" y="244" on="1"/>
        <pt x="206" y="220" on="0"/>
        <pt x="206" y="211" on="1"/>
        <pt x="206" y="163" on="0"/>
        <pt x="252" y="118" on="0"/>
        <pt x="301" y="118" on="1"/>
        <pt x="359" y="118" on="0"/>
        <pt x="420" y="177" on="0"/>
        <pt x="427" y="240" on="1"/>
        <pt x="470" y="645" on="1"/>
        <pt x="630" y="645" on="1"/>
      </contour>
    </TTGlyph>
    <TTGlyph name="Uring" xMin="53" yMin="-10" xMax="630" yMax="914">
      <component glyphName="U" x="0" y="0" flags="0x1000"/>
      <component glyphName="ring" x="144" y="178" flags="0x1000"/>
    </TTGlyph>
    <TTGlyph name="Utilde" xMin="53" yMin="-10" xMax="630" yMax="894">
      <component glyphName="U" x="0" y="0" flags="0x1000"/>
      <component glyphName="tilde" x="145" y="178" flags="0x1000"/>
    </TTGlyph>
    <TTGlyph name="V" xMin="58" yMin="0" xMax="639" yMax="645">
      <contour>
        <pt x="165" y="0" on="1"/>
        <pt x="58" y="645" on="1"/>
        <pt x="219" y="645" on="1"/>
        <pt x="224" y="552" on="1"/>
        <pt x="277" y="145" on="1"/>
        <pt x="286" y="145" on="1"/>
        <pt x="453" y="543" on="1"/>
        <pt x="484" y="645" on="1"/>
        <pt x="639" y="645" on="1"/>
        <pt x="355" y="0" on="1"/>
      </contour>
    </TTGlyph>
    <TTGlyph name="V.ss01" xMin="-127" yMin="0" xMax="650" yMax="508">
      <contour>
        <pt x="333" y="54" on="1"/>
        <pt x="594" y="54" on="1"/>
        <pt x="587" y="0" on="1"/>
        <pt x="-127" y="0" on="1"/>
        <pt x="-120" y="54" on="1"/>
        <pt x="136" y="54" on="1"/>
        <pt x="68" y="453" on="1"/>
        <pt x="-70" y="453" on="1"/>
        <pt x="-64" y="508" on="1"/>
        <pt x="650" y="508" on="1"/>
        <pt x="643" y="453" on="1"/>
        <pt x="514" y="453" on="1"/>
      </contour>
      <contour>
        <pt x="204" y="453" on="1"/>
        <pt x="206" y="420" on="1"/>
        <pt x="242" y="136" on="1"/>
        <pt x="251" y="136" on="1"/>
        <pt x="370" y="411" on="1"/>
        <pt x="383" y="453" on="1"/>
      </contour>
    </TTGlyph>
    <TTGlyph name="W" xMin="69" yMin="0" xMax="940" yMax="645">
      <contour>
        <pt x="493" y="0" on="1"/>
        <pt x="447" y="281" on="1"/>
        <pt x="438" y="281" on="1"/>
        <pt x="324" y="0" on="1"/>
        <pt x="155" y="0" on="1"/>
        <pt x="69" y="645" on="1"/>
        <pt x="224" y="645" on="1"/>
        <pt x="223" y="558" on="1"/>
        <pt x="266" y="162" on="1"/>
        <pt x="276" y="162" on="1"/>
        <pt x="410" y="491" on="1"/>
        <pt x="388" y="645" on="1"/>
        <pt x="550" y="645" on="1"/>
        <pt x="551" y="542" on="1"/>
        <pt x="600" y="162" on="1"/>
        <pt x="609" y="162" on="1"/>
        <pt x="764" y="549" on="1"/>
        <pt x="793" y="645" on="1"/>
        <pt x="940" y="645" on="1"/>
        <pt x="660" y="0" on="1"/>
      </contour>
    </TTGlyph>
    <TTGlyph name="Wacute" xMin="69" yMin="0" xMax="940" yMax="900">
      <component glyphName="W" x="0" y="0" flags="0x1000"/>
      <component glyphName="acute.cap" x="260" y="178" flags="0x1000"/>
    </TTGlyph>
    <TTGlyph name="Wcircumflex" xMin="69" yMin="0" xMax="940" yMax="895">
      <component glyphName="W" x="0" y="0" flags="0x1000"/>
      <component glyphName="circumflex.cap" x="255" y="178" flags="0x1000"/>
    </TTGlyph>
    <TTGlyph name="Wdieresis" xMin="69" yMin="0" xMax="940" yMax="872">
      <component glyphName="W" x="0" y="0" flags="0x1000"/>
      <component glyphName="dieresis" x="252" y="178" flags="0x1000"/>
    </TTGlyph>
    <TTGlyph name="Wgrave" xMin="69" yMin="0" xMax="940" yMax="901">
      <component glyphName="W" x="0" y="0" flags="0x1000"/>
      <component glyphName="grave.cap" x="254" y="178" flags="0x1000"/>
    </TTGlyph>
    <TTGlyph name="X" xMin="-19" yMin="0" xMax="644" yMax="645">
      <contour>
        <pt x="573" y="0" on="1"/>
        <pt x="387" y="0" on="1"/>
        <pt x="365" y="70" on="1"/>
        <pt x="296" y="214" on="1"/>
        <pt x="180" y="61" on="1"/>
        <pt x="143" y="0" on="1"/>
        <pt x="-19" y="0" on="1"/>
        <pt x="216" y="324" on="1"/>
        <pt x="62" y="645" on="1"/>
        <pt x="249" y="645" on="1"/>
        <pt x="272" y="574" on="1"/>
        <pt x="337" y="437" on="1"/>
        <pt x="442" y="582" on="1"/>
        <pt x="478" y="645" on="1"/>
        <pt x="644" y="645" on="1"/>
        <pt x="419" y="331" on="1"/>
      </contour>
    </TTGlyph>
    <TTGlyph name="X.ss01" xMin="-127" yMin="0" xMax="666" yMax="508">
      <contour>
        <pt x="464" y="54" on="1"/>
        <pt x="610" y="54" on="1"/>
        <pt x="604" y="0" on="1"/>
        <pt x="-127" y="0" on="1"/>
        <pt x="-120" y="54" on="1"/>
        <pt x="36" y="54" on="1"/>
        <pt x="191" y="251" on="1"/>
        <pt x="85" y="453" on="1"/>
        <pt x="-70" y="453" on="1"/>
        <pt x="-64" y="508" on="1"/>
        <pt x="666" y="508" on="1"/>
        <pt x="660" y="453" on="1"/>
        <pt x="502" y="453" on="1"/>
        <pt x="359" y="265" on="1"/>
      </contour>
      <contour>
        <pt x="246" y="428" on="1"/>
        <pt x="291" y="346" on="1"/>
        <pt x="359" y="435" on="1"/>
        <pt x="369" y="453" on="1"/>
        <pt x="238" y="453" on="1"/>
      </contour>
      <contour>
        <pt x="303" y="82" on="1"/>
        <pt x="257" y="168" on="1"/>
        <pt x="180" y="76" on="1"/>
        <pt x="167" y="54" on="1"/>
        <pt x="312" y="54" on="1"/>
      </contour>
    </TTGlyph>
    <TTGlyph name="Y" xMin="51" yMin="0" xMax="623" yMax="645">
      <contour>
        <pt x="339" y="176" on="1"/>
        <pt x="324" y="0" on="1"/>
        <pt x="166" y="0" on="1"/>
        <pt x="196" y="176" on="1"/>
        <pt x="199" y="215" on="1"/>
        <pt x="51" y="645" on="1"/>
        <pt x="216" y="645" on="1"/>
        <pt x="224" y="597" on="1"/>
        <pt x="290" y="370" on="1"/>
        <pt x="300" y="370" on="1"/>
        <pt x="433" y="592" on="1"/>
        <pt x="459" y="645" on="1"/>
        <pt x="623" y="645" on="1"/>
        <pt x="345" y="213" on="1"/>
      </contour>
    </TTGlyph>
    <TTGlyph name="Yacute" xMin="51" yMin="0" xMax="623" yMax="900">
      <component glyphName="Y" x="0" y="0" flags="0x1000"/>
      <component glyphName="acute.cap" x="117" y="178" flags="0x1000"/>
    </TTGlyph>
    <TTGlyph name="Ycircumflex" xMin="51" yMin="0" xMax="623" yMax="895">
      <component glyphName="Y" x="0" y="0" flags="0x1000"/>
      <component glyphName="circumflex.cap" x="112" y="178" flags="0x1000"/>
    </TTGlyph>
    <TTGlyph name="Ydieresis" xMin="51" yMin="0" xMax="623" yMax="872">
      <component glyphName="Y" x="0" y="0" flags="0x1000"/>
      <component glyphName="dieresis" x="109" y="178" flags="0x1000"/>
    </TTGlyph>
    <TTGlyph name="Ydotbelow" xMin="51" yMin="-210" xMax="623" yMax="645">
      <component glyphName="Y" x="0" y="0" flags="0x1000"/>
      <component glyphName="dotbelowcomb" x="85" y="0" flags="0x1000"/>
    </TTGlyph>
    <TTGlyph name="Ygrave" xMin="51" yMin="0" xMax="623" yMax="901">
      <component glyphName="Y" x="0" y="0" flags="0x1000"/>
      <component glyphName="grave.cap" x="111" y="178" flags="0x1000"/>
    </TTGlyph>
    <TTGlyph name="Yhookabove" xMin="51" yMin="0" xMax="623" yMax="930">
      <component glyphName="Y" x="0" y="0" flags="0x1000"/>
      <component glyphName="hookabove" x="67" y="178" flags="0x1000"/>
    </TTGlyph>
    <TTGlyph name="Ytilde" xMin="51" yMin="0" xMax="623" yMax="894">
      <component glyphName="Y" x="0" y="0" flags="0x1000"/>
      <component glyphName="tilde" x="110" y="178" flags="0x1000"/>
    </TTGlyph>
    <TTGlyph name="Z" xMin="0" yMin="-5" xMax="565" yMax="647">
      <contour>
        <pt x="202" y="119" on="1"/>
        <pt x="393" y="119" on="1"/>
        <pt x="506" y="128" on="1"/>
        <pt x="510" y="120" on="1"/>
        <pt x="483" y="-4" on="1"/>
        <pt x="327" y="0" on="1"/>
        <pt x="86" y="0" on="1"/>
        <pt x="0" y="-5" on="1"/>
        <pt x="14" y="109" on="1"/>
        <pt x="366" y="525" on="1"/>
        <pt x="184" y="525" on="1"/>
        <pt x="72" y="516" on="1"/>
        <pt x="67" y="523" on="1"/>
        <pt x="94" y="647" on="1"/>
        <pt x="229" y="645" on="1"/>
        <pt x="498" y="645" on="1"/>
        <pt x="565" y="646" on="1"/>
        <pt x="550" y="531" on="1"/>
      </contour>
    </TTGlyph>
    <TTGlyph name="Zacute" xMin="0" yMin="-5" xMax="565" yMax="900">
      <component glyphName="Z" x="0" y="0" flags="0x1000"/>
      <component glyphName="acute.cap" x="67" y="178" flags="0x1000"/>
    </TTGlyph>
    <TTGlyph name="Zcaron" xMin="0" yMin="-5" xMax="565" yMax="887">
      <component glyphName="Z" x="0" y="0" flags="0x1000"/>
      <component glyphName="caron.cap" x="55" y="178" flags="0x1000"/>
    </TTGlyph>
    <TTGlyph name="Zdotaccent" xMin="0" yMin="-5" xMax="565" yMax="886">
      <component glyphName="Z" x="0" y="0" flags="0x1000"/>
      <component glyphName="dotaccent" x="59" y="178" flags="0x1000"/>
    </TTGlyph>
    <TTGlyph name="a" xMin="-16" yMin="0" xMax="480" yMax="508">
      <contour>
        <pt x="333" y="0" on="1"/>
        <pt x="330" y="80" on="1"/>
        <pt x="328" y="92" on="1"/>
        <pt x="235" y="93" on="1"/>
        <pt x="154" y="91" on="1"/>
        <pt x="153" y="88" on="1"/>
        <pt x="126" y="0" on="1"/>
        <pt x="-16" y="0" on="1"/>
        <pt x="216" y="508" on="1"/>
        <pt x="390" y="508" on="1"/>
        <pt x="480" y="0" on="1"/>
      </contour>
      <contour>
        <pt x="288" y="376" on="1"/>
        <pt x="279" y="376" on="1"/>
        <pt x="202" y="200" on="1"/>
        <pt x="257" y="199" on="1"/>
        <pt x="313" y="200" on="1"/>
      </contour>
    </TTGlyph>
    <TTGlyph name="a.sups" xMin="45" yMin="319" xMax="339" yMax="650">
      <contour>
        <pt x="307" y="402" on="1"/>
        <pt x="303" y="328" on="1"/>
        <pt x="209" y="322" on="1"/>
        <pt x="223" y="429" on="1"/>
        <pt x="213" y="429" on="1"/>
        <pt x="176" y="358" on="0"/>
        <pt x="138" y="319" on="1"/>
        <pt x="125" y="319" on="1"/>
        <pt x="80" y="333" on="0"/>
        <pt x="45" y="385" on="0"/>
        <pt x="45" y="429" on="1"/>
        <pt x="45" y="502" on="0"/>
        <pt x="129" y="626" on="0"/>
        <pt x="208" y="647" on="1"/>
        <pt x="213" y="647" on="1"/>
        <pt x="274" y="637" on="1"/>
        <pt x="332" y="650" on="1"/>
        <pt x="339" y="645" on="1"/>
      </contour>
      <contour>
        <pt x="161" y="404" on="0"/>
        <pt x="208" y="476" on="0"/>
        <pt x="237" y="540" on="1"/>
        <pt x="240" y="565" on="1"/>
        <pt x="240" y="569" on="1"/>
        <pt x="195" y="579" on="1"/>
        <pt x="166" y="578" on="0"/>
        <pt x="133" y="517" on="0"/>
        <pt x="133" y="466" on="1"/>
        <pt x="133" y="404" on="0"/>
        <pt x="151" y="404" on="1"/>
      </contour>
    </TTGlyph>
    <TTGlyph name="aacute" xMin="-16" yMin="0" xMax="480" yMax="776">
      <component glyphName="a" x="0" y="0" flags="0x1000"/>
      <component glyphName="acute" x="77" y="41" flags="0x1000"/>
    </TTGlyph>
    <TTGlyph name="abreve" xMin="-16" yMin="0" xMax="480" yMax="753">
      <component glyphName="a" x="0" y="0" flags="0x1000"/>
      <component glyphName="breve" x="70" y="41" flags="0x1000"/>
    </TTGlyph>
    <TTGlyph name="abreveacute" xMin="-16" yMin="0" xMax="481" yMax="882">
      <component glyphName="a" x="0" y="0" flags="0x1000"/>
      <component glyphName="breveacute" x="77" y="41" flags="0x1000"/>
    </TTGlyph>
    <TTGlyph name="abrevedotbelow" xMin="-15" yMin="-210" xMax="481" yMax="753">
      <contour>
        <pt x="237" y="573" on="0"/>
        <pt x="164" y="646" on="0"/>
        <pt x="156" y="702" on="1"/>
        <pt x="195" y="753" on="1"/>
        <pt x="217" y="753" on="1"/>
        <pt x="226" y="718" on="0"/>
        <pt x="277" y="681" on="0"/>
        <pt x="313" y="681" on="1"/>
        <pt x="391" y="681" on="0"/>
        <pt x="426" y="753" on="1"/>
        <pt x="448" y="753" on="1"/>
        <pt x="475" y="702" on="1"/>
        <pt x="454" y="645" on="0"/>
        <pt x="367" y="573" on="0"/>
        <pt x="305" y="573" on="1"/>
      </contour>
      <contour>
        <pt x="334" y="0" on="1"/>
        <pt x="331" y="80" on="1"/>
        <pt x="329" y="92" on="1"/>
        <pt x="235" y="93" on="1"/>
        <pt x="154" y="91" on="1"/>
        <pt x="153" y="88" on="1"/>
        <pt x="127" y="0" on="1"/>
        <pt x="-15" y="0" on="1"/>
        <pt x="217" y="508" on="1"/>
        <pt x="391" y="508" on="1"/>
        <pt x="481" y="0" on="1"/>
      </contour>
      <contour>
        <pt x="289" y="376" on="1"/>
        <pt x="280" y="376" on="1"/>
        <pt x="202" y="200" on="1"/>
        <pt x="257" y="199" on="1"/>
        <pt x="314" y="200" on="1"/>
      </contour>
      <contour>
        <pt x="269" y="-48" on="0"/>
        <pt x="309" y="-89" on="0"/>
        <pt x="309" y="-125" on="1"/>
        <pt x="309" y="-164" on="0"/>
        <pt x="265" y="-210" on="0"/>
        <pt x="227" y="-210" on="1"/>
        <pt x="190" y="-210" on="0"/>
        <pt x="150" y="-170" on="0"/>
        <pt x="150" y="-132" on="1"/>
        <pt x="150" y="-93" on="0"/>
        <pt x="195" y="-48" on="0"/>
        <pt x="233" y="-48" on="1"/>
      </contour>
    </TTGlyph>
    <TTGlyph name="abrevegrave" xMin="-16" yMin="0" xMax="481" yMax="882">
      <component glyphName="a" x="0" y="0" flags="0x1000"/>
      <component glyphName="brevegrave" x="77" y="41" flags="0x1000"/>
    </TTGlyph>
    <TTGlyph name="abrevehookabove" xMin="-16" yMin="0" xMax="481" yMax="939">
      <component glyphName="a" x="0" y="0" flags="0x1000"/>
      <component glyphName="brevehookabove" x="77" y="41" flags="0x1000"/>
    </TTGlyph>
    <TTGlyph name="abrevetilde" xMin="-16" yMin="0" xMax="513" yMax="909">
      <component glyphName="a" x="0" y="0" flags="0x1000"/>
      <component glyphName="brevetilde" x="77" y="41" flags="0x1000"/>
    </TTGlyph>
    <TTGlyph name="acaron" xMin="-16" yMin="0" xMax="481" yMax="768">
      <component glyphName="a" x="0" y="0" flags="0x1000"/>
      <component glyphName="caron" x="70" y="41" flags="0x1000"/>
    </TTGlyph>
    <TTGlyph name="acircumflex" xMin="-16" yMin="0" xMax="481" yMax="771">
      <component glyphName="a" x="0" y="0" flags="0x1000"/>
      <component glyphName="circumflex" x="80" y="41" flags="0x1000"/>
    </TTGlyph>
    <TTGlyph name="acircumflexacute" xMin="-16" yMin="0" xMax="540" yMax="879">
      <component glyphName="a" x="0" y="0" flags="0x1000"/>
      <component glyphName="circumflexacute" x="77" y="41" flags="0x1000"/>
    </TTGlyph>
    <TTGlyph name="acircumflexdotbelow" xMin="-15" yMin="-210" xMax="481" yMax="771">
      <contour>
        <pt x="154" y="627" on="1"/>
        <pt x="200" y="664" on="0"/>
        <pt x="299" y="755" on="1"/>
        <pt x="317" y="771" on="1"/>
        <pt x="348" y="771" on="1"/>
        <pt x="399" y="708" on="0"/>
        <pt x="480" y="627" on="1"/>
        <pt x="435" y="568" on="1"/>
        <pt x="420" y="568" on="1"/>
        <pt x="349" y="626" on="0"/>
        <pt x="320" y="656" on="1"/>
        <pt x="282" y="624" on="0"/>
        <pt x="199" y="568" on="1"/>
        <pt x="184" y="568" on="1"/>
      </contour>
      <contour>
        <pt x="334" y="0" on="1"/>
        <pt x="331" y="80" on="1"/>
        <pt x="329" y="92" on="1"/>
        <pt x="235" y="93" on="1"/>
        <pt x="154" y="91" on="1"/>
        <pt x="153" y="88" on="1"/>
        <pt x="127" y="0" on="1"/>
        <pt x="-15" y="0" on="1"/>
        <pt x="217" y="508" on="1"/>
        <pt x="391" y="508" on="1"/>
        <pt x="481" y="0" on="1"/>
      </contour>
      <contour>
        <pt x="289" y="376" on="1"/>
        <pt x="280" y="376" on="1"/>
        <pt x="202" y="200" on="1"/>
        <pt x="257" y="199" on="1"/>
        <pt x="314" y="200" on="1"/>
      </contour>
      <contour>
        <pt x="269" y="-48" on="0"/>
        <pt x="309" y="-89" on="0"/>
        <pt x="309" y="-125" on="1"/>
        <pt x="309" y="-164" on="0"/>
        <pt x="265" y="-210" on="0"/>
        <pt x="227" y="-210" on="1"/>
        <pt x="190" y="-210" on="0"/>
        <pt x="150" y="-170" on="0"/>
        <pt x="150" y="-132" on="1"/>
        <pt x="150" y="-93" on="0"/>
        <pt x="195" y="-48" on="0"/>
        <pt x="233" y="-48" on="1"/>
      </contour>
    </TTGlyph>
    <TTGlyph name="acircumflexgrave" xMin="-16" yMin="0" xMax="485" yMax="879">
      <component glyphName="a" x="0" y="0" flags="0x1000"/>
      <component glyphName="circumflexgrave" x="77" y="41" flags="0x1000"/>
    </TTGlyph>
    <TTGlyph name="acircumflexhookabove" xMin="-16" yMin="0" xMax="500" yMax="925">
      <component glyphName="a" x="0" y="0" flags="0x1000"/>
      <component glyphName="circumflexhookabove" x="77" y="41" flags="0x1000"/>
    </TTGlyph>
    <TTGlyph name="acircumflextilde" xMin="-16" yMin="0" xMax="518" yMax="906">
      <component glyphName="a" x="0" y="0" flags="0x1000"/>
      <component glyphName="circumflextilde" x="85" y="41" flags="0x1000"/>
    </TTGlyph>
    <TTGlyph name="acute" xMin="112" yMin="520" xMax="370" yMax="735">
      <contour>
        <pt x="370" y="650" on="1"/>
        <pt x="367" y="635" on="1"/>
        <pt x="225" y="553" on="0"/>
        <pt x="163" y="520" on="1"/>
        <pt x="149" y="521" on="1"/>
        <pt x="112" y="579" on="1"/>
        <pt x="221" y="664" on="0"/>
        <pt x="300" y="735" on="1"/>
        <pt x="315" y="734" on="1"/>
      </contour>
    </TTGlyph>
    <TTGlyph name="acute.cap" xMin="108" yMin="537" xMax="375" yMax="722">
      <contour>
        <pt x="375" y="626" on="1"/>
        <pt x="370" y="612" on="1"/>
        <pt x="283" y="580" on="0"/>
        <pt x="147" y="537" on="1"/>
        <pt x="132" y="541" on="1"/>
        <pt x="108" y="605" on="1"/>
        <pt x="232" y="669" on="0"/>
        <pt x="321" y="722" on="1"/>
        <pt x="335" y="718" on="1"/>
      </contour>
    </TTGlyph>
    <TTGlyph name="adieresis" xMin="-16" yMin="0" xMax="480" yMax="735">
      <component glyphName="a" x="0" y="0" flags="0x1000"/>
      <component glyphName="dieresis" x="74" y="41" flags="0x1000"/>
    </TTGlyph>
    <TTGlyph name="adotbelow" xMin="-16" yMin="-210" xMax="480" yMax="508">
      <component glyphName="a" x="0" y="0" flags="0x1000"/>
      <component glyphName="dotbelowcomb" x="80" y="0" flags="0x1000"/>
    </TTGlyph>
    <TTGlyph name="ae" xMin="-35" yMin="0" xMax="683" yMax="507">
      <contour>
        <pt x="662" y="0" on="1"/>
        <pt x="321" y="0" on="1"/>
        <pt x="328" y="76" on="1"/>
        <pt x="328" y="153" on="1"/>
        <pt x="146" y="104" on="1"/>
        <pt x="134" y="84" on="1"/>
        <pt x="99" y="0" on="1"/>
        <pt x="-35" y="0" on="1"/>
        <pt x="276" y="507" on="1"/>
        <pt x="671" y="507" on="1"/>
        <pt x="678" y="496" on="1"/>
        <pt x="656" y="396" on="1"/>
        <pt x="528" y="402" on="1"/>
        <pt x="459" y="402" on="1"/>
        <pt x="458" y="288" on="1"/>
        <pt x="618" y="331" on="1"/>
        <pt x="627" y="323" on="1"/>
        <pt x="626" y="226" on="1"/>
        <pt x="457" y="186" on="1"/>
        <pt x="456" y="106" on="1"/>
        <pt x="538" y="106" on="1"/>
        <pt x="677" y="111" on="1"/>
        <pt x="683" y="101" on="1"/>
      </contour>
      <contour>
        <pt x="329" y="384" on="1"/>
        <pt x="320" y="384" on="1"/>
        <pt x="222" y="226" on="1"/>
        <pt x="329" y="254" on="1"/>
      </contour>
    </TTGlyph>
    <TTGlyph name="aeacute" xMin="-35" yMin="0" xMax="683" yMax="776">
      <component glyphName="ae" x="0" y="0" flags="0x1000"/>
      <component glyphName="acute" x="234" y="41" flags="0x1000"/>
    </TTGlyph>
    <TTGlyph name="agrave" xMin="-16" yMin="0" xMax="480" yMax="776">
      <component glyphName="a" x="0" y="0" flags="0x1000"/>
      <component glyphName="grave" x="61" y="41" flags="0x1000"/>
    </TTGlyph>
    <TTGlyph name="ahookabove" xMin="-16" yMin="0" xMax="480" yMax="793">
      <component glyphName="a" x="0" y="0" flags="0x1000"/>
      <component glyphName="hookabove" x="32" y="41" flags="0x1000"/>
    </TTGlyph>
    <TTGlyph name="amacron" xMin="-16" yMin="0" xMax="480" yMax="712">
      <component glyphName="a" x="0" y="0" flags="0x1000"/>
      <component glyphName="macron" x="74" y="41" flags="0x1000"/>
    </TTGlyph>
    <TTGlyph name="ampersand" xMin="25" yMin="-12" xMax="705" yMax="712">
      <contour>
        <pt x="695" y="270" on="1"/>
        <pt x="683" y="174" on="1"/>
        <pt x="549" y="174" on="1"/>
        <pt x="495" y="-12" on="0"/>
        <pt x="292" y="-12" on="1"/>
        <pt x="166" y="-12" on="0"/>
        <pt x="25" y="128" on="0"/>
        <pt x="25" y="254" on="1"/>
        <pt x="25" y="333" on="0"/>
        <pt x="81" y="452" on="0"/>
        <pt x="185" y="517" on="0"/>
        <pt x="254" y="517" on="1"/>
        <pt x="319" y="517" on="0"/>
        <pt x="386" y="464" on="0"/>
        <pt x="386" y="420" on="1"/>
        <pt x="386" y="416" on="1"/>
        <pt x="562" y="554" on="0"/>
        <pt x="633" y="712" on="1"/>
        <pt x="645" y="712" on="1"/>
        <pt x="690" y="670" on="0"/>
        <pt x="705" y="614" on="1"/>
        <pt x="680" y="551" on="0"/>
        <pt x="514" y="382" on="0"/>
        <pt x="286" y="222" on="0"/>
        <pt x="172" y="171" on="1"/>
        <pt x="206" y="96" on="0"/>
        <pt x="302" y="96" on="1"/>
        <pt x="376" y="96" on="0"/>
        <pt x="457" y="187" on="0"/>
        <pt x="461" y="272" on="1"/>
        <pt x="472" y="282" on="1"/>
        <pt x="685" y="282" on="1"/>
      </contour>
      <contour>
        <pt x="206" y="419" on="0"/>
        <pt x="156" y="345" on="0"/>
        <pt x="154" y="278" on="1"/>
        <pt x="211" y="303" on="0"/>
        <pt x="266" y="335" on="1"/>
        <pt x="292" y="357" on="0"/>
        <pt x="292" y="386" on="1"/>
        <pt x="289" y="419" on="0"/>
        <pt x="250" y="419" on="1"/>
      </contour>
    </TTGlyph>
    <TTGlyph name="aogonek" xMin="-15" yMin="-197" xMax="481" yMax="508">
      <contour>
        <pt x="464" y="-149" on="1"/>
        <pt x="405" y="-197" on="0"/>
        <pt x="358" y="-197" on="1"/>
        <pt x="320" y="-197" on="0"/>
        <pt x="274" y="-153" on="0"/>
        <pt x="274" y="-117" on="1"/>
        <pt x="274" y="-90" on="0"/>
        <pt x="298" y="-38" on="0"/>
        <pt x="330" y="0" on="1"/>
        <pt x="334" y="0" on="1"/>
        <pt x="331" y="80" on="1"/>
        <pt x="329" y="92" on="1"/>
        <pt x="235" y="93" on="1"/>
        <pt x="154" y="91" on="1"/>
        <pt x="153" y="88" on="1"/>
        <pt x="127" y="0" on="1"/>
        <pt x="-15" y="0" on="1"/>
        <pt x="217" y="508" on="1"/>
        <pt x="391" y="508" on="1"/>
        <pt x="481" y="0" on="1"/>
        <pt x="414" y="0" on="1"/>
        <pt x="360" y="-57" on="0"/>
        <pt x="360" y="-86" on="1"/>
        <pt x="360" y="-113" on="0"/>
        <pt x="389" y="-113" on="1"/>
        <pt x="417" y="-113" on="0"/>
        <pt x="452" y="-86" on="1"/>
        <pt x="461" y="-86" on="1"/>
      </contour>
      <contour>
        <pt x="289" y="376" on="1"/>
        <pt x="280" y="376" on="1"/>
        <pt x="202" y="200" on="1"/>
        <pt x="257" y="199" on="1"/>
        <pt x="314" y="200" on="1"/>
      </contour>
    </TTGlyph>
    <TTGlyph name="approxequal" xMin="22" yMin="73" xMax="492" yMax="443">
      <component glyphName="asciitilde" x="26" y="99" flags="0x1000"/>
      <component glyphName="asciitilde" x="2" y="-97" flags="0x1000"/>
    </TTGlyph>
    <TTGlyph name="aring" xMin="-16" yMin="0" xMax="480" yMax="777">
      <component glyphName="a" x="0" y="0" flags="0x1000"/>
      <component glyphName="ring" x="74" y="41" flags="0x1000"/>
    </TTGlyph>
    <TTGlyph name="aringacute" xMin="-16" yMin="0" xMax="480" yMax="925">
      <component glyphName="a" x="0" y="0" flags="0x1000"/>
      <component glyphName="newGlyph#3" x="77" y="41" flags="0x1000"/>
    </TTGlyph>
    <TTGlyph name="arrowdown" xMin="52" yMin="-9" xMax="486" yMax="477">
      <contour>
        <pt x="281" y="-9" on="1"/>
        <pt x="258" y="-9" on="1"/>
        <pt x="52" y="189" on="1"/>
        <pt x="71" y="274" on="1"/>
        <pt x="91" y="274" on="1"/>
        <pt x="222" y="149" on="1"/>
        <pt x="215" y="467" on="1"/>
        <pt x="226" y="477" on="1"/>
        <pt x="323" y="472" on="1"/>
        <pt x="316" y="149" on="1"/>
        <pt x="448" y="274" on="1"/>
        <pt x="468" y="274" on="1"/>
        <pt x="486" y="189" on="1"/>
      </contour>
    </TTGlyph>
    <TTGlyph name="arrowdownleft" xMin="88" yMin="48" xMax="481" yMax="438">
      <component glyphName="arrowdown" x="-82" y="259" scalex="0.706970214844" scale01="-0.706970214844" scale10="0.706970214844" scaley="0.706970214844" flags="0x1000"/>
    </TTGlyph>
    <TTGlyph name="arrowdownright" xMin="60" yMin="44" xMax="449" yMax="437">
      <component glyphName="arrowdown" x="239" y="-126" scalex="0.706970214844" scale01="0.706970214844" scale10="-0.706970214844" scaley="0.706970214844" flags="0x1000"/>
    </TTGlyph>
    <TTGlyph name="arrowleft" xMin="24" yMin="21" xMax="510" yMax="455">
      <component glyphName="arrowdown" x="33" y="507" scalex="0.0" scale01="-1.0" scale10="1.0" scaley="0.0" flags="0x1000"/>
    </TTGlyph>
    <TTGlyph name="arrowright" xMin="27" yMin="22" xMax="513" yMax="456">
      <component glyphName="arrowdown" x="504" y="-30" scalex="0.0" scale01="1.0" scale10="-1.0" scaley="0.0" flags="0x1000"/>
    </TTGlyph>
    <TTGlyph name="arrowup" xMin="53" yMin="0" xMax="487" yMax="486">
      <component glyphName="arrowdown" x="539" y="477" scale="-1.0" flags="0x1000"/>
    </TTGlyph>
    <TTGlyph name="arrowupleft" xMin="87" yMin="35" xMax="477" yMax="428">
      <component glyphName="arrowdown" x="298" y="598" scalex="-0.706970214844" scale01="-0.706970214844" scale10="0.706970214844" scaley="-0.706970214844" flags="0x1000"/>
    </TTGlyph>
    <TTGlyph name="arrowupright" xMin="57" yMin="43" xMax="450" yMax="432">
      <component glyphName="arrowdown" x="620" y="222" scalex="-0.706970214844" scale01="0.706970214844" scale10="-0.706970214844" scaley="-0.706970214844" flags="0x1000"/>
    </TTGlyph>
    <TTGlyph name="asciicircum" xMin="4" yMin="111" xMax="423" yMax="498">
      <contour>
        <pt x="411" y="138" on="1"/>
        <pt x="322" y="118" on="1"/>
        <pt x="251" y="391" on="1"/>
        <pt x="243" y="391" on="1"/>
        <pt x="101" y="118" on="1"/>
        <pt x="88" y="111" on="1"/>
        <pt x="4" y="144" on="1"/>
        <pt x="186" y="490" on="1"/>
        <pt x="201" y="498" on="1"/>
        <pt x="326" y="498" on="1"/>
        <pt x="423" y="152" on="1"/>
      </contour>
    </TTGlyph>
    <TTGlyph name="asciitilde" xMin="20" yMin="170" xMax="466" yMax="344">
      <contour>
        <pt x="136" y="228" on="0"/>
        <pt x="106" y="206" on="0"/>
        <pt x="74" y="176" on="0"/>
        <pt x="68" y="170" on="1"/>
        <pt x="55" y="170" on="1"/>
        <pt x="20" y="221" on="1"/>
        <pt x="21" y="234" on="1"/>
        <pt x="120" y="334" on="1"/>
        <pt x="134" y="341" on="1"/>
        <pt x="170" y="334" on="0"/>
        <pt x="234" y="313" on="1"/>
        <pt x="317" y="286" on="0"/>
        <pt x="338" y="286" on="1"/>
        <pt x="352" y="286" on="0"/>
        <pt x="381" y="308" on="0"/>
        <pt x="413" y="338" on="0"/>
        <pt x="419" y="344" on="1"/>
        <pt x="433" y="344" on="1"/>
        <pt x="466" y="293" on="1"/>
        <pt x="465" y="280" on="1"/>
        <pt x="368" y="179" on="1"/>
        <pt x="353" y="174" on="1"/>
        <pt x="328" y="178" on="0"/>
        <pt x="246" y="203" on="1"/>
        <pt x="167" y="228" on="0"/>
        <pt x="149" y="228" on="1"/>
      </contour>
    </TTGlyph>
    <TTGlyph name="asterisk" xMin="71" yMin="381" xMax="424" yMax="745">
      <contour>
        <pt x="263" y="612" on="1"/>
        <pt x="218" y="607" on="1"/>
        <pt x="210" y="614" on="1"/>
        <pt x="206" y="731" on="1"/>
        <pt x="245" y="745" on="0"/>
        <pt x="290" y="745" on="1"/>
        <pt x="295" y="736" on="1"/>
      </contour>
      <contour>
        <pt x="190" y="557" on="1"/>
        <pt x="180" y="552" on="1"/>
        <pt x="71" y="583" on="1"/>
        <pt x="69" y="624" on="0"/>
        <pt x="82" y="668" on="1"/>
        <pt x="93" y="671" on="1"/>
        <pt x="198" y="602" on="1"/>
      </contour>
      <contour>
        <pt x="409" y="610" on="0"/>
        <pt x="424" y="567" on="1"/>
        <pt x="418" y="560" on="1"/>
        <pt x="294" y="552" on="1"/>
        <pt x="273" y="593" on="1"/>
        <pt x="278" y="603" on="1"/>
        <pt x="385" y="643" on="1"/>
      </contour>
      <contour>
        <pt x="359" y="442" on="1"/>
        <pt x="342" y="415" on="0"/>
        <pt x="300" y="381" on="1"/>
        <pt x="290" y="384" on="1"/>
        <pt x="246" y="505" on="1"/>
        <pt x="278" y="535" on="1"/>
        <pt x="289" y="534" on="1"/>
      </contour>
      <contour>
        <pt x="228" y="503" on="1"/>
        <pt x="166" y="405" on="1"/>
        <pt x="132" y="416" on="0"/>
        <pt x="88" y="443" on="1"/>
        <pt x="89" y="453" on="1"/>
        <pt x="186" y="534" on="1"/>
        <pt x="226" y="513" on="1"/>
      </contour>
    </TTGlyph>
    <TTGlyph name="at" xMin="25" yMin="-216" xMax="835" yMax="643">
      <contour>
        <pt x="835" y="166" on="0"/>
        <pt x="631" y="2" on="0"/>
        <pt x="443" y="0" on="1"/>
        <pt x="462" y="138" on="1"/>
        <pt x="448" y="138" on="1"/>
        <pt x="401" y="52" on="0"/>
        <pt x="347" y="-6" on="1"/>
        <pt x="327" y="-6" on="1"/>
        <pt x="267" y="13" on="0"/>
        <pt x="216" y="91" on="0"/>
        <pt x="216" y="153" on="1"/>
        <pt x="216" y="217" on="0"/>
        <pt x="267" y="342" on="0"/>
        <pt x="372" y="439" on="0"/>
        <pt x="447" y="460" on="1"/>
        <pt x="453" y="460" on="1"/>
        <pt x="536" y="442" on="1"/>
        <pt x="618" y="463" on="1"/>
        <pt x="629" y="457" on="1"/>
        <pt x="582" y="113" on="1"/>
        <pt x="582" y="105" on="1"/>
        <pt x="652" y="118" on="0"/>
        <pt x="734" y="229" on="0"/>
        <pt x="734" y="312" on="1"/>
        <pt x="734" y="383" on="0"/>
        <pt x="671" y="489" on="0"/>
        <pt x="554" y="547" on="0"/>
        <pt x="476" y="547" on="1"/>
        <pt x="372" y="547" on="0"/>
        <pt x="214" y="458" on="0"/>
        <pt x="127" y="301" on="0"/>
        <pt x="127" y="202" on="1"/>
        <pt x="127" y="98" on="0"/>
        <pt x="221" y="-52" on="0"/>
        <pt x="393" y="-130" on="0"/>
        <pt x="507" y="-130" on="1"/>
        <pt x="512" y="-144" on="1"/>
        <pt x="471" y="-216" on="1"/>
        <pt x="337" y="-215" on="0"/>
        <pt x="135" y="-121" on="0"/>
        <pt x="25" y="59" on="0"/>
        <pt x="25" y="184" on="1"/>
        <pt x="25" y="315" on="0"/>
        <pt x="138" y="524" on="0"/>
        <pt x="345" y="643" on="0"/>
        <pt x="479" y="643" on="1"/>
        <pt x="586" y="643" on="0"/>
        <pt x="747" y="564" on="0"/>
        <pt x="835" y="417" on="0"/>
        <pt x="835" y="317" on="1"/>
      </contour>
      <contour>
        <pt x="381" y="125" on="0"/>
        <pt x="446" y="224" on="0"/>
        <pt x="485" y="315" on="1"/>
        <pt x="488" y="339" on="1"/>
        <pt x="425" y="358" on="1"/>
        <pt x="385" y="358" on="0"/>
        <pt x="341" y="275" on="0"/>
        <pt x="341" y="205" on="1"/>
        <pt x="341" y="125" on="0"/>
        <pt x="365" y="125" on="1"/>
      </contour>
    </TTGlyph>
    <TTGlyph name="atilde" xMin="-16" yMin="0" xMax="500" yMax="757">
      <component glyphName="a" x="0" y="0" flags="0x1000"/>
      <component glyphName="tilde" x="75" y="41" flags="0x1000"/>
    </TTGlyph>
    <TTGlyph name="b" xMin="36" yMin="-5" xMax="491" yMax="508">
      <contour>
        <pt x="439" y="244" on="0"/>
        <pt x="482" y="190" on="0"/>
        <pt x="482" y="145" on="1"/>
        <pt x="482" y="71" on="0"/>
        <pt x="350" y="-5" on="0"/>
        <pt x="222" y="-5" on="1"/>
        <pt x="136" y="-5" on="0"/>
        <pt x="36" y="0" on="1"/>
        <pt x="62" y="149" on="1"/>
        <pt x="99" y="508" on="1"/>
        <pt x="320" y="508" on="1"/>
        <pt x="400" y="508" on="0"/>
        <pt x="491" y="448" on="0"/>
        <pt x="491" y="391" on="1"/>
        <pt x="491" y="348" on="0"/>
        <pt x="442" y="282" on="0"/>
        <pt x="396" y="262" on="1"/>
      </contour>
      <contour>
        <pt x="336" y="314" on="0"/>
        <pt x="336" y="365" on="1"/>
        <pt x="336" y="389" on="0"/>
        <pt x="306" y="406" on="0"/>
        <pt x="269" y="406" on="1"/>
        <pt x="229" y="406" on="1"/>
        <pt x="215" y="302" on="1"/>
        <pt x="286" y="299" on="1"/>
      </contour>
      <contour>
        <pt x="283" y="96" on="0"/>
        <pt x="331" y="128" on="0"/>
        <pt x="331" y="158" on="1"/>
        <pt x="331" y="190" on="0"/>
        <pt x="291" y="204" on="1"/>
        <pt x="200" y="202" on="1"/>
        <pt x="195" y="164" on="1"/>
        <pt x="189" y="99" on="1"/>
        <pt x="220" y="96" on="0"/>
        <pt x="242" y="96" on="1"/>
      </contour>
    </TTGlyph>
    <TTGlyph name="b.sups" xMin="52" yMin="319" xMax="347" yMax="812">
      <contour>
        <pt x="311" y="633" on="0"/>
        <pt x="347" y="582" on="0"/>
        <pt x="347" y="538" on="1"/>
        <pt x="347" y="463" on="0"/>
        <pt x="262" y="339" on="0"/>
        <pt x="184" y="319" on="1"/>
        <pt x="180" y="319" on="1"/>
        <pt x="127" y="329" on="1"/>
        <pt x="52" y="341" on="1"/>
        <pt x="104" y="733" on="1"/>
        <pt x="108" y="806" on="1"/>
        <pt x="203" y="812" on="1"/>
        <pt x="166" y="534" on="1"/>
        <pt x="175" y="534" on="1"/>
        <pt x="212" y="604" on="0"/>
        <pt x="253" y="646" on="1"/>
        <pt x="267" y="646" on="1"/>
      </contour>
      <contour>
        <pt x="227" y="387" on="0"/>
        <pt x="259" y="450" on="0"/>
        <pt x="259" y="500" on="1"/>
        <pt x="259" y="532" on="0"/>
        <pt x="248" y="563" on="0"/>
        <pt x="242" y="563" on="1"/>
        <pt x="231" y="563" on="0"/>
        <pt x="181" y="491" on="0"/>
        <pt x="152" y="428" on="1"/>
        <pt x="148" y="400" on="1"/>
        <pt x="198" y="387" on="1"/>
      </contour>
    </TTGlyph>
    <TTGlyph name="backslash" xMin="44" yMin="-116" xMax="368" yMax="681">
      <contour>
        <pt x="368" y="-104" on="1"/>
        <pt x="358" y="-116" on="1"/>
        <pt x="251" y="-116" on="1"/>
        <pt x="44" y="668" on="1"/>
        <pt x="56" y="681" on="1"/>
        <pt x="161" y="681" on="1"/>
      </contour>
    </TTGlyph>
    <TTGlyph name="bar" xMin="34" yMin="-258" xMax="282" yMax="806">
      <contour>
        <pt x="216" y="292" on="1"/>
        <pt x="151" y="-250" on="1"/>
        <pt x="44" y="-258" on="1"/>
        <pt x="34" y="-245" on="1"/>
        <pt x="163" y="797" on="1"/>
        <pt x="272" y="806" on="1"/>
        <pt x="282" y="795" on="1"/>
      </contour>
    </TTGlyph>
    <TTGlyph name="braceleft" xMin="30" yMin="-114" xMax="341" yMax="658">
      <contour>
        <pt x="302" y="658" on="0"/>
        <pt x="337" y="647" on="1"/>
        <pt x="341" y="637" on="1"/>
        <pt x="320" y="559" on="1"/>
        <pt x="300" y="564" on="0"/>
        <pt x="286" y="564" on="1"/>
        <pt x="226" y="564" on="0"/>
        <pt x="226" y="492" on="1"/>
        <pt x="226" y="471" on="0"/>
        <pt x="231" y="443" on="1"/>
        <pt x="236" y="398" on="0"/>
        <pt x="236" y="392" on="1"/>
        <pt x="236" y="353" on="0"/>
        <pt x="194" y="292" on="0"/>
        <pt x="154" y="275" on="1"/>
        <pt x="153" y="269" on="1"/>
        <pt x="210" y="241" on="0"/>
        <pt x="210" y="179" on="1"/>
        <pt x="210" y="152" on="0"/>
        <pt x="188" y="100" on="1"/>
        <pt x="168" y="50" on="0"/>
        <pt x="168" y="27" on="1"/>
        <pt x="168" y="-20" on="0"/>
        <pt x="214" y="-20" on="1"/>
        <pt x="227" y="-20" on="0"/>
        <pt x="249" y="-15" on="1"/>
        <pt x="252" y="-93" on="1"/>
        <pt x="245" y="-104" on="1"/>
        <pt x="211" y="-114" on="0"/>
        <pt x="173" y="-114" on="1"/>
        <pt x="110" y="-114" on="0"/>
        <pt x="43" y="-60" on="0"/>
        <pt x="43" y="-10" on="1"/>
        <pt x="43" y="24" on="0"/>
        <pt x="67" y="96" on="1"/>
        <pt x="85" y="150" on="0"/>
        <pt x="85" y="169" on="1"/>
        <pt x="85" y="218" on="0"/>
        <pt x="30" y="236" on="1"/>
        <pt x="38" y="307" on="1"/>
        <pt x="113" y="330" on="0"/>
        <pt x="113" y="401" on="1"/>
        <pt x="113" y="423" on="0"/>
        <pt x="110" y="448" on="1"/>
        <pt x="107" y="508" on="0"/>
        <pt x="107" y="508" on="1"/>
        <pt x="107" y="582" on="0"/>
        <pt x="190" y="658" on="0"/>
        <pt x="268" y="658" on="1"/>
      </contour>
    </TTGlyph>
    <TTGlyph name="braceright" xMin="-34" yMin="-115" xMax="277" yMax="657">
      <component glyphName="braceleft" x="307" y="543" scale="-1.0" flags="0x1000"/>
    </TTGlyph>
    <TTGlyph name="bracketleft" xMin="26" yMin="-125" xMax="348" yMax="648">
      <contour>
        <pt x="339" y="571" on="1"/>
        <pt x="234" y="557" on="1"/>
        <pt x="162" y="-34" on="1"/>
        <pt x="263" y="-48" on="1"/>
        <pt x="254" y="-118" on="1"/>
        <pt x="247" y="-125" on="1"/>
        <pt x="26" y="-115" on="1"/>
        <pt x="81" y="262" on="1"/>
        <pt x="119" y="638" on="1"/>
        <pt x="342" y="648" on="1"/>
        <pt x="348" y="640" on="1"/>
      </contour>
    </TTGlyph>
    <TTGlyph name="bracketright" xMin="-44" yMin="-125" xMax="278" yMax="648">
      <component glyphName="bracketleft" x="304" y="523" scale="-1.0" flags="0x1000"/>
    </TTGlyph>
    <TTGlyph name="breve" xMin="87" yMin="532" xMax="406" yMax="712">
      <contour>
        <pt x="385" y="604" on="0"/>
        <pt x="298" y="532" on="0"/>
        <pt x="236" y="532" on="1"/>
        <pt x="168" y="532" on="0"/>
        <pt x="95" y="605" on="0"/>
        <pt x="87" y="661" on="1"/>
        <pt x="126" y="712" on="1"/>
        <pt x="148" y="712" on="1"/>
        <pt x="157" y="677" on="0"/>
        <pt x="208" y="640" on="0"/>
        <pt x="244" y="640" on="1"/>
        <pt x="322" y="640" on="0"/>
        <pt x="357" y="712" on="1"/>
        <pt x="379" y="712" on="1"/>
        <pt x="406" y="661" on="1"/>
      </contour>
    </TTGlyph>
    <TTGlyph name="breve.cap" xMin="86" yMin="541" xMax="406" yMax="702">
      <contour>
        <pt x="355" y="541" on="0"/>
        <pt x="241" y="541" on="1"/>
        <pt x="181" y="541" on="0"/>
        <pt x="100" y="599" on="0"/>
        <pt x="86" y="654" on="1"/>
        <pt x="126" y="702" on="1"/>
        <pt x="148" y="702" on="1"/>
        <pt x="172" y="649" on="0"/>
        <pt x="248" y="649" on="1"/>
        <pt x="321" y="649" on="0"/>
        <pt x="357" y="702" on="1"/>
        <pt x="379" y="702" on="1"/>
        <pt x="406" y="654" on="1"/>
      </contour>
    </TTGlyph>
    <TTGlyph name="breveacute" xMin="84" yMin="521" xMax="404" yMax="841">
      <contour>
        <pt x="367" y="783" on="1"/>
        <pt x="302" y="720" on="0"/>
        <pt x="249" y="672" on="1"/>
        <pt x="236" y="668" on="1"/>
        <pt x="189" y="706" on="1"/>
        <pt x="230" y="761" on="0"/>
        <pt x="283" y="838" on="1"/>
        <pt x="294" y="841" on="1"/>
        <pt x="365" y="795" on="1"/>
      </contour>
      <contour>
        <pt x="351" y="521" on="0"/>
        <pt x="239" y="521" on="1"/>
        <pt x="179" y="521" on="0"/>
        <pt x="98" y="579" on="0"/>
        <pt x="84" y="634" on="1"/>
        <pt x="124" y="682" on="1"/>
        <pt x="146" y="682" on="1"/>
        <pt x="157" y="656" on="0"/>
        <pt x="210" y="629" on="0"/>
        <pt x="245" y="629" on="1"/>
        <pt x="320" y="629" on="0"/>
        <pt x="354" y="682" on="1"/>
        <pt x="376" y="682" on="1"/>
        <pt x="404" y="634" on="1"/>
      </contour>
    </TTGlyph>
    <TTGlyph name="brevegrave" xMin="84" yMin="521" xMax="404" yMax="841">
      <contour>
        <pt x="241" y="672" on="1"/>
        <pt x="188" y="720" on="0"/>
        <pt x="123" y="783" on="1"/>
        <pt x="125" y="795" on="1"/>
        <pt x="196" y="841" on="1"/>
        <pt x="207" y="838" on="1"/>
        <pt x="260" y="761" on="0"/>
        <pt x="301" y="706" on="1"/>
        <pt x="254" y="668" on="1"/>
      </contour>
      <contour>
        <pt x="353" y="521" on="0"/>
        <pt x="239" y="521" on="1"/>
        <pt x="179" y="521" on="0"/>
        <pt x="98" y="579" on="0"/>
        <pt x="84" y="633" on="1"/>
        <pt x="124" y="682" on="1"/>
        <pt x="146" y="682" on="1"/>
        <pt x="158" y="656" on="0"/>
        <pt x="210" y="628" on="0"/>
        <pt x="246" y="628" on="1"/>
        <pt x="318" y="628" on="0"/>
        <pt x="355" y="682" on="1"/>
        <pt x="377" y="682" on="1"/>
        <pt x="404" y="633" on="1"/>
      </contour>
    </TTGlyph>
    <TTGlyph name="brevehookabove" xMin="84" yMin="522" xMax="404" yMax="898">
      <contour>
        <pt x="276" y="898" on="0"/>
        <pt x="326" y="855" on="0"/>
        <pt x="326" y="821" on="1"/>
        <pt x="326" y="800" on="0"/>
        <pt x="301" y="763" on="0"/>
        <pt x="269" y="735" on="1"/>
        <pt x="293" y="695" on="1"/>
        <pt x="239" y="663" on="1"/>
        <pt x="193" y="734" on="1"/>
        <pt x="217" y="752" on="0"/>
        <pt x="246" y="791" on="0"/>
        <pt x="246" y="806" on="1"/>
        <pt x="246" y="829" on="0"/>
        <pt x="217" y="829" on="1"/>
        <pt x="182" y="829" on="0"/>
        <pt x="151" y="804" on="1"/>
        <pt x="126" y="844" on="1"/>
        <pt x="150" y="869" on="0"/>
        <pt x="209" y="898" on="0"/>
        <pt x="239" y="898" on="1"/>
      </contour>
      <contour>
        <pt x="351" y="522" on="0"/>
        <pt x="239" y="522" on="1"/>
        <pt x="179" y="522" on="0"/>
        <pt x="98" y="580" on="0"/>
        <pt x="84" y="634" on="1"/>
        <pt x="124" y="683" on="1"/>
        <pt x="146" y="683" on="1"/>
        <pt x="157" y="657" on="0"/>
        <pt x="210" y="629" on="0"/>
        <pt x="245" y="629" on="1"/>
        <pt x="319" y="629" on="0"/>
        <pt x="354" y="683" on="1"/>
        <pt x="376" y="683" on="1"/>
        <pt x="404" y="634" on="1"/>
      </contour>
    </TTGlyph>
    <TTGlyph name="brevetilde" xMin="88" yMin="521" xMax="436" yMax="868">
      <contour>
        <pt x="436" y="814" on="1"/>
        <pt x="369" y="723" on="1"/>
        <pt x="356" y="719" on="1"/>
        <pt x="328" y="723" on="0"/>
        <pt x="276" y="738" on="1"/>
        <pt x="224" y="752" on="0"/>
        <pt x="214" y="752" on="1"/>
        <pt x="203" y="752" on="0"/>
        <pt x="182" y="733" on="0"/>
        <pt x="160" y="707" on="0"/>
        <pt x="155" y="701" on="1"/>
        <pt x="143" y="701" on="1"/>
        <pt x="101" y="743" on="1"/>
        <pt x="101" y="755" on="1"/>
        <pt x="169" y="845" on="1"/>
        <pt x="182" y="850" on="1"/>
        <pt x="200" y="847" on="0"/>
        <pt x="255" y="832" on="1"/>
        <pt x="309" y="817" on="0"/>
        <pt x="323" y="817" on="1"/>
        <pt x="335" y="817" on="0"/>
        <pt x="356" y="835" on="0"/>
        <pt x="378" y="862" on="0"/>
        <pt x="383" y="868" on="1"/>
        <pt x="395" y="868" on="1"/>
        <pt x="436" y="826" on="1"/>
      </contour>
      <contour>
        <pt x="341" y="521" on="0"/>
        <pt x="235" y="521" on="1"/>
        <pt x="179" y="521" on="0"/>
        <pt x="102" y="576" on="0"/>
        <pt x="88" y="627" on="1"/>
        <pt x="127" y="672" on="1"/>
        <pt x="147" y="672" on="1"/>
        <pt x="170" y="622" on="0"/>
        <pt x="241" y="622" on="1"/>
        <pt x="311" y="622" on="0"/>
        <pt x="344" y="672" on="1"/>
        <pt x="365" y="672" on="1"/>
        <pt x="391" y="627" on="1"/>
      </contour>
    </TTGlyph>
    <TTGlyph name="brokenbar" xMin="34" yMin="-258" xMax="282" yMax="806">
      <contour>
        <pt x="228" y="379" on="1"/>
        <pt x="120" y="365" on="1"/>
        <pt x="111" y="375" on="1"/>
        <pt x="163" y="797" on="1"/>
        <pt x="272" y="806" on="1"/>
        <pt x="282" y="795" on="1"/>
      </contour>
      <contour>
        <pt x="151" y="-250" on="1"/>
        <pt x="45" y="-258" on="1"/>
        <pt x="34" y="-245" on="1"/>
        <pt x="83" y="149" on="1"/>
        <pt x="188" y="161" on="1"/>
        <pt x="199" y="147" on="1"/>
      </contour>
    </TTGlyph>
    <TTGlyph name="bullet" xMin="55" yMin="187" xMax="261" yMax="398">
      <component glyphName="period" x="36" y="197" scale="1.29040527344" flags="0x1000"/>
    </TTGlyph>
    <TTGlyph name="bulletoperator" xMin="43" yMin="143" xMax="248" yMax="353">
      <contour>
        <pt x="196" y="353" on="0"/>
        <pt x="248" y="300" on="0"/>
        <pt x="248" y="253" on="1"/>
        <pt x="248" y="202" on="0"/>
        <pt x="191" y="143" on="0"/>
        <pt x="142" y="143" on="1"/>
        <pt x="94" y="143" on="0"/>
        <pt x="43" y="196" on="0"/>
        <pt x="43" y="244" on="1"/>
        <pt x="43" y="294" on="0"/>
        <pt x="101" y="353" on="0"/>
        <pt x="150" y="353" on="1"/>
      </contour>
    </TTGlyph>
    <TTGlyph name="c" xMin="27" yMin="-9" xMax="464" yMax="515">
      <contour>
        <pt x="406" y="515" on="0"/>
        <pt x="464" y="493" on="1"/>
        <pt x="424" y="370" on="1"/>
        <pt x="412" y="364" on="1"/>
        <pt x="368" y="396" on="0"/>
        <pt x="305" y="396" on="1"/>
        <pt x="184" y="396" on="0"/>
        <pt x="184" y="237" on="1"/>
        <pt x="184" y="175" on="0"/>
        <pt x="231" y="113" on="0"/>
        <pt x="282" y="113" on="1"/>
        <pt x="339" y="113" on="0"/>
        <pt x="394" y="139" on="1"/>
        <pt x="406" y="132" on="1"/>
        <pt x="380" y="9" on="1"/>
        <pt x="322" y="-9" on="0"/>
        <pt x="270" y="-9" on="1"/>
        <pt x="27" y="-9" on="0"/>
        <pt x="27" y="217" on="1"/>
        <pt x="27" y="356" on="0"/>
        <pt x="183" y="515" on="0"/>
        <pt x="326" y="515" on="1"/>
      </contour>
    </TTGlyph>
    <TTGlyph name="c.sups" xMin="47" yMin="320" xMax="291" yMax="648">
      <contour>
        <pt x="291" y="622" on="1"/>
        <pt x="265" y="555" on="1"/>
        <pt x="244" y="554" on="1"/>
        <pt x="223" y="578" on="0"/>
        <pt x="203" y="578" on="1"/>
        <pt x="138" y="578" on="0"/>
        <pt x="138" y="462" on="1"/>
        <pt x="138" y="428" on="0"/>
        <pt x="154" y="397" on="0"/>
        <pt x="172" y="397" on="1"/>
        <pt x="199" y="397" on="0"/>
        <pt x="228" y="446" on="1"/>
        <pt x="240" y="446" on="1"/>
        <pt x="271" y="408" on="1"/>
        <pt x="249" y="371" on="0"/>
        <pt x="199" y="331" on="0"/>
        <pt x="163" y="320" on="1"/>
        <pt x="150" y="320" on="1"/>
        <pt x="95" y="328" on="0"/>
        <pt x="47" y="386" on="0"/>
        <pt x="47" y="445" on="1"/>
        <pt x="47" y="533" on="0"/>
        <pt x="140" y="648" on="0"/>
        <pt x="231" y="648" on="1"/>
        <pt x="287" y="632" on="1"/>
      </contour>
    </TTGlyph>
    <TTGlyph name="cacute" xMin="27" yMin="-9" xMax="464" yMax="776">
      <component glyphName="c" x="0" y="0" flags="0x1000"/>
      <component glyphName="acute" x="72" y="41" flags="0x1000"/>
    </TTGlyph>
    <TTGlyph name="caron" xMin="85" yMin="525" xMax="411" yMax="727">
      <contour>
        <pt x="366" y="633" on="0"/>
        <pt x="270" y="544" on="1"/>
        <pt x="249" y="525" on="1"/>
        <pt x="218" y="525" on="1"/>
        <pt x="172" y="582" on="0"/>
        <pt x="85" y="669" on="1"/>
        <pt x="130" y="727" on="1"/>
        <pt x="145" y="727" on="1"/>
        <pt x="211" y="673" on="0"/>
        <pt x="243" y="640" on="1"/>
        <pt x="277" y="668" on="0"/>
        <pt x="339" y="709" on="1"/>
        <pt x="365" y="727" on="1"/>
        <pt x="381" y="727" on="1"/>
        <pt x="411" y="669" on="1"/>
      </contour>
    </TTGlyph>
    <TTGlyph name="caron.alt" xMin="175" yMin="502" xMax="315" yMax="733">
      <contour>
        <pt x="252" y="513" on="1"/>
        <pt x="184" y="502" on="1"/>
        <pt x="175" y="511" on="1"/>
        <pt x="196" y="727" on="1"/>
        <pt x="307" y="733" on="1"/>
        <pt x="315" y="724" on="1"/>
      </contour>
    </TTGlyph>
    <TTGlyph name="caron.cap" xMin="90" yMin="539" xMax="401" yMax="709">
      <contour>
        <pt x="318" y="594" on="0"/>
        <pt x="254" y="539" on="1"/>
        <pt x="224" y="539" on="1"/>
        <pt x="173" y="589" on="0"/>
        <pt x="90" y="648" on="1"/>
        <pt x="126" y="709" on="1"/>
        <pt x="141" y="709" on="1"/>
        <pt x="175" y="689" on="0"/>
        <pt x="243" y="647" on="1"/>
        <pt x="297" y="675" on="0"/>
        <pt x="366" y="709" on="1"/>
        <pt x="381" y="709" on="1"/>
        <pt x="401" y="648" on="1"/>
      </contour>
    </TTGlyph>
    <TTGlyph name="ccaron" xMin="27" yMin="-9" xMax="476" yMax="768">
      <component glyphName="c" x="0" y="0" flags="0x1000"/>
      <component glyphName="caron" x="65" y="41" flags="0x1000"/>
    </TTGlyph>
    <TTGlyph name="ccedilla" xMin="27" yMin="-203" xMax="464" yMax="515">
      <contour>
        <pt x="406" y="515" on="0"/>
        <pt x="464" y="493" on="1"/>
        <pt x="424" y="370" on="1"/>
        <pt x="412" y="364" on="1"/>
        <pt x="368" y="396" on="0"/>
        <pt x="305" y="396" on="1"/>
        <pt x="184" y="396" on="0"/>
        <pt x="184" y="237" on="1"/>
        <pt x="184" y="175" on="0"/>
        <pt x="231" y="113" on="0"/>
        <pt x="282" y="113" on="1"/>
        <pt x="337" y="113" on="0"/>
        <pt x="394" y="139" on="1"/>
        <pt x="406" y="132" on="1"/>
        <pt x="379" y="9" on="1"/>
        <pt x="334" y="-6" on="0"/>
        <pt x="287" y="-9" on="1"/>
        <pt x="279" y="-45" on="1"/>
        <pt x="313" y="-64" on="1"/>
        <pt x="355" y="-88" on="0"/>
        <pt x="355" y="-125" on="1"/>
        <pt x="355" y="-159" on="0"/>
        <pt x="301" y="-203" on="0"/>
        <pt x="255" y="-203" on="1"/>
        <pt x="209" y="-203" on="0"/>
        <pt x="170" y="-176" on="1"/>
        <pt x="180" y="-113" on="1"/>
        <pt x="187" y="-111" on="1"/>
        <pt x="218" y="-140" on="0"/>
        <pt x="245" y="-140" on="1"/>
        <pt x="267" y="-140" on="0"/>
        <pt x="267" y="-121" on="1"/>
        <pt x="267" y="-111" on="0"/>
        <pt x="252" y="-103" on="1"/>
        <pt x="202" y="-75" on="1"/>
        <pt x="217" y="-6" on="1"/>
        <pt x="27" y="18" on="0"/>
        <pt x="27" y="217" on="1"/>
        <pt x="27" y="356" on="0"/>
        <pt x="183" y="515" on="0"/>
        <pt x="325" y="515" on="1"/>
      </contour>
    </TTGlyph>
    <TTGlyph name="ccircumflex" xMin="27" yMin="-9" xMax="476" yMax="771">
      <component glyphName="c" x="0" y="0" flags="0x1000"/>
      <component glyphName="circumflex" x="75" y="41" flags="0x1000"/>
    </TTGlyph>
    <TTGlyph name="cdotaccent" xMin="27" yMin="-9" xMax="464" yMax="749">
      <component glyphName="c" x="0" y="0" flags="0x1000"/>
      <component glyphName="dotaccent" x="70" y="41" flags="0x1000"/>
    </TTGlyph>
    <TTGlyph name="cedilla" xMin="55" yMin="-204" xMax="240" yMax="28">
      <contour>
        <pt x="198" y="-65" on="1"/>
        <pt x="240" y="-89" on="0"/>
        <pt x="240" y="-126" on="1"/>
        <pt x="240" y="-160" on="0"/>
        <pt x="186" y="-204" on="0"/>
        <pt x="140" y="-204" on="1"/>
        <pt x="94" y="-204" on="0"/>
        <pt x="55" y="-177" on="1"/>
        <pt x="65" y="-114" on="1"/>
        <pt x="72" y="-112" on="1"/>
        <pt x="103" y="-141" on="0"/>
        <pt x="130" y="-141" on="1"/>
        <pt x="152" y="-141" on="0"/>
        <pt x="152" y="-122" on="1"/>
        <pt x="152" y="-112" on="0"/>
        <pt x="137" y="-104" on="1"/>
        <pt x="87" y="-76" on="1"/>
        <pt x="110" y="28" on="1"/>
        <pt x="181" y="28" on="1"/>
        <pt x="164" y="-46" on="1"/>
      </contour>
    </TTGlyph>
    <TTGlyph name="cent" xMin="23" yMin="-124" xMax="382" yMax="657">
      <contour>
        <pt x="351" y="162" on="1"/>
        <pt x="300" y="79" on="0"/>
        <pt x="229" y="47" on="1"/>
        <pt x="203" y="-124" on="1"/>
        <pt x="126" y="-124" on="1"/>
        <pt x="117" y="-113" on="1"/>
        <pt x="139" y="38" on="1"/>
        <pt x="79" y="54" on="0"/>
        <pt x="23" y="139" on="0"/>
        <pt x="23" y="217" on="1"/>
        <pt x="23" y="322" on="0"/>
        <pt x="118" y="478" on="0"/>
        <pt x="211" y="503" on="1"/>
        <pt x="234" y="657" on="1"/>
        <pt x="309" y="657" on="1"/>
        <pt x="321" y="645" on="1"/>
        <pt x="301" y="511" on="1"/>
        <pt x="376" y="489" on="1"/>
        <pt x="382" y="475" on="1"/>
        <pt x="347" y="379" on="1"/>
        <pt x="318" y="378" on="1"/>
        <pt x="300" y="397" on="0"/>
        <pt x="271" y="413" on="0"/>
        <pt x="253" y="413" on="1"/>
        <pt x="201" y="413" on="0"/>
        <pt x="147" y="325" on="0"/>
        <pt x="147" y="242" on="1"/>
        <pt x="147" y="189" on="0"/>
        <pt x="174" y="142" on="0"/>
        <pt x="202" y="142" on="1"/>
        <pt x="246" y="142" on="0"/>
        <pt x="291" y="216" on="1"/>
        <pt x="308" y="215" on="1"/>
      </contour>
    </TTGlyph>
    <TTGlyph name="circle1" xMin="-5" yMin="-12" xMax="471" yMax="464">
      <contour>
        <pt x="297" y="464" on="0"/>
        <pt x="407" y="400" on="0"/>
        <pt x="471" y="290" on="0"/>
        <pt x="471" y="226" on="1"/>
        <pt x="471" y="162" on="0"/>
        <pt x="407" y="52" on="0"/>
        <pt x="297" y="-12" on="0"/>
        <pt x="233" y="-12" on="1"/>
        <pt x="169" y="-12" on="0"/>
        <pt x="59" y="52" on="0"/>
        <pt x="-5" y="162" on="0"/>
        <pt x="-5" y="226" on="1"/>
        <pt x="-5" y="290" on="0"/>
        <pt x="59" y="400" on="0"/>
        <pt x="169" y="464" on="0"/>
        <pt x="233" y="464" on="1"/>
      </contour>
    </TTGlyph>
    <TTGlyph name="circle2" xMin="-10" yMin="-14" xMax="653" yMax="649">
      <contour>
        <pt x="411" y="649" on="0"/>
        <pt x="564" y="560" on="0"/>
        <pt x="653" y="407" on="0"/>
        <pt x="653" y="317" on="1"/>
        <pt x="653" y="227" on="0"/>
        <pt x="564" y="75" on="0"/>
        <pt x="411" y="-14" on="0"/>
        <pt x="321" y="-14" on="1"/>
        <pt x="231" y="-14" on="0"/>
        <pt x="79" y="75" on="0"/>
        <pt x="-10" y="227" on="0"/>
        <pt x="-10" y="317" on="1"/>
        <pt x="-10" y="407" on="0"/>
        <pt x="79" y="560" on="0"/>
        <pt x="231" y="649" on="0"/>
        <pt x="321" y="649" on="1"/>
      </contour>
    </TTGlyph>
    <TTGlyph name="circumflex" xMin="75" yMin="527" xMax="401" yMax="730">
      <contour>
        <pt x="121" y="623" on="0"/>
        <pt x="220" y="714" on="1"/>
        <pt x="238" y="730" on="1"/>
        <pt x="269" y="730" on="1"/>
        <pt x="320" y="667" on="0"/>
        <pt x="401" y="586" on="1"/>
        <pt x="356" y="527" on="1"/>
        <pt x="341" y="527" on="1"/>
        <pt x="270" y="585" on="0"/>
        <pt x="241" y="615" on="1"/>
        <pt x="203" y="583" on="0"/>
        <pt x="120" y="527" on="1"/>
        <pt x="105" y="527" on="1"/>
        <pt x="75" y="586" on="1"/>
      </contour>
    </TTGlyph>
    <TTGlyph name="circumflex.cap" xMin="85" yMin="547" xMax="396" yMax="717">
      <contour>
        <pt x="167" y="662" on="0"/>
        <pt x="233" y="717" on="1"/>
        <pt x="263" y="717" on="1"/>
        <pt x="316" y="667" on="0"/>
        <pt x="396" y="608" on="1"/>
        <pt x="361" y="547" on="1"/>
        <pt x="346" y="547" on="1"/>
        <pt x="243" y="609" on="1"/>
        <pt x="177" y="575" on="1"/>
        <pt x="139" y="557" on="0"/>
        <pt x="121" y="547" on="1"/>
        <pt x="106" y="547" on="1"/>
        <pt x="85" y="608" on="1"/>
      </contour>
    </TTGlyph>
    <TTGlyph name="circumflexacute" xMin="83" yMin="528" xMax="463" yMax="838">
      <contour>
        <pt x="463" y="793" on="1"/>
        <pt x="362" y="661" on="1"/>
        <pt x="353" y="661" on="1"/>
        <pt x="301" y="700" on="1"/>
        <pt x="371" y="833" on="1"/>
        <pt x="381" y="838" on="1"/>
        <pt x="459" y="804" on="1"/>
      </contour>
      <contour>
        <pt x="315" y="647" on="0"/>
        <pt x="394" y="589" on="1"/>
        <pt x="359" y="528" on="1"/>
        <pt x="344" y="528" on="1"/>
        <pt x="321" y="541" on="0"/>
        <pt x="279" y="567" on="1"/>
        <pt x="241" y="590" on="1"/>
        <pt x="175" y="556" on="1"/>
        <pt x="137" y="538" on="0"/>
        <pt x="119" y="528" on="1"/>
        <pt x="104" y="528" on="1"/>
        <pt x="83" y="589" on="1"/>
        <pt x="167" y="645" on="0"/>
        <pt x="230" y="698" on="1"/>
        <pt x="260" y="698" on="1"/>
      </contour>
    </TTGlyph>
    <TTGlyph name="circumflexgrave" xMin="81" yMin="527" xMax="408" yMax="838">
      <contour>
        <pt x="408" y="700" on="1"/>
        <pt x="357" y="661" on="1"/>
        <pt x="347" y="661" on="1"/>
        <pt x="247" y="793" on="1"/>
        <pt x="250" y="804" on="1"/>
        <pt x="328" y="838" on="1"/>
        <pt x="338" y="833" on="1"/>
      </contour>
      <contour>
        <pt x="311" y="647" on="0"/>
        <pt x="391" y="588" on="1"/>
        <pt x="356" y="527" on="1"/>
        <pt x="341" y="527" on="1"/>
        <pt x="238" y="589" on="1"/>
        <pt x="172" y="555" on="1"/>
        <pt x="134" y="537" on="0"/>
        <pt x="116" y="527" on="1"/>
        <pt x="101" y="527" on="1"/>
        <pt x="81" y="588" on="1"/>
        <pt x="165" y="644" on="0"/>
        <pt x="228" y="697" on="1"/>
        <pt x="258" y="697" on="1"/>
      </contour>
    </TTGlyph>
    <TTGlyph name="circumflexhookabove" xMin="80" yMin="528" xMax="423" yMax="884">
      <contour>
        <pt x="375" y="884" on="0"/>
        <pt x="423" y="842" on="0"/>
        <pt x="423" y="810" on="1"/>
        <pt x="423" y="792" on="0"/>
        <pt x="399" y="757" on="0"/>
        <pt x="368" y="729" on="1"/>
        <pt x="391" y="691" on="1"/>
        <pt x="339" y="660" on="1"/>
        <pt x="295" y="728" on="1"/>
        <pt x="318" y="744" on="0"/>
        <pt x="345" y="782" on="0"/>
        <pt x="345" y="797" on="1"/>
        <pt x="345" y="819" on="0"/>
        <pt x="318" y="819" on="1"/>
        <pt x="288" y="819" on="0"/>
        <pt x="255" y="794" on="1"/>
        <pt x="232" y="832" on="1"/>
        <pt x="279" y="884" on="0"/>
        <pt x="340" y="884" on="1"/>
      </contour>
      <contour>
        <pt x="311" y="648" on="0"/>
        <pt x="391" y="589" on="1"/>
        <pt x="356" y="528" on="1"/>
        <pt x="341" y="528" on="1"/>
        <pt x="238" y="590" on="1"/>
        <pt x="172" y="556" on="1"/>
        <pt x="134" y="538" on="0"/>
        <pt x="116" y="528" on="1"/>
        <pt x="101" y="528" on="1"/>
        <pt x="80" y="589" on="1"/>
        <pt x="162" y="643" on="0"/>
        <pt x="228" y="698" on="1"/>
        <pt x="258" y="698" on="1"/>
      </contour>
    </TTGlyph>
    <TTGlyph name="circumflextilde" xMin="80" yMin="528" xMax="433" yMax="865">
      <contour>
        <pt x="433" y="811" on="1"/>
        <pt x="365" y="720" on="1"/>
        <pt x="353" y="716" on="1"/>
        <pt x="330" y="719" on="0"/>
        <pt x="272" y="734" on="1"/>
        <pt x="227" y="748" on="0"/>
        <pt x="211" y="748" on="1"/>
        <pt x="197" y="748" on="0"/>
        <pt x="175" y="726" on="0"/>
        <pt x="152" y="698" on="1"/>
        <pt x="140" y="698" on="1"/>
        <pt x="98" y="740" on="1"/>
        <pt x="98" y="752" on="1"/>
        <pt x="166" y="842" on="1"/>
        <pt x="178" y="847" on="1"/>
        <pt x="195" y="845" on="0"/>
        <pt x="253" y="829" on="1"/>
        <pt x="305" y="814" on="0"/>
        <pt x="320" y="814" on="1"/>
        <pt x="332" y="814" on="0"/>
        <pt x="354" y="834" on="0"/>
        <pt x="376" y="861" on="0"/>
        <pt x="379" y="865" on="1"/>
        <pt x="392" y="865" on="1"/>
        <pt x="433" y="823" on="1"/>
      </contour>
      <contour>
        <pt x="312" y="645" on="0"/>
        <pt x="391" y="590" on="1"/>
        <pt x="356" y="528" on="1"/>
        <pt x="341" y="528" on="1"/>
        <pt x="320" y="540" on="0"/>
        <pt x="282" y="564" on="1"/>
        <pt x="238" y="591" on="1"/>
        <pt x="116" y="528" on="1"/>
        <pt x="101" y="528" on="1"/>
        <pt x="80" y="590" on="1"/>
        <pt x="163" y="644" on="0"/>
        <pt x="227" y="699" on="1"/>
        <pt x="257" y="699" on="1"/>
      </contour>
    </TTGlyph>
    <TTGlyph name="colon" xMin="15" yMin="-8" xMax="206" yMax="415">
      <component glyphName="period" x="0" y="0" flags="0x1000"/>
      <component glyphName="period" x="32" y="260" flags="0x1000"/>
    </TTGlyph>
    <TTGlyph name="comma" xMin="-7" yMin="-132" xMax="176" yMax="150">
      <contour>
        <pt x="176" y="111" on="0"/>
        <pt x="176" y="57" on="1"/>
        <pt x="176" y="-40" on="0"/>
        <pt x="44" y="-132" on="1"/>
        <pt x="-5" y="-89" on="1"/>
        <pt x="-7" y="-78" on="1"/>
        <pt x="49" y="-31" on="0"/>
        <pt x="49" y="24" on="1"/>
        <pt x="49" y="61" on="0"/>
        <pt x="17" y="90" on="1"/>
        <pt x="17" y="103" on="1"/>
        <pt x="74" y="135" on="0"/>
        <pt x="130" y="150" on="1"/>
      </contour>
    </TTGlyph>
    <TTGlyph name="commaaccentcomb" xMin="61" yMin="-289" xMax="221" yMax="-42">
      <contour>
        <pt x="221" y="-77" on="0"/>
        <pt x="221" y="-123" on="1"/>
        <pt x="221" y="-208" on="0"/>
        <pt x="105" y="-289" on="1"/>
        <pt x="62" y="-251" on="1"/>
        <pt x="61" y="-241" on="1"/>
        <pt x="110" y="-201" on="0"/>
        <pt x="110" y="-152" on="1"/>
        <pt x="110" y="-121" on="0"/>
        <pt x="82" y="-94" on="1"/>
        <pt x="82" y="-83" on="1"/>
        <pt x="131" y="-54" on="0"/>
        <pt x="181" y="-42" on="1"/>
      </contour>
    </TTGlyph>
    <TTGlyph name="copyright" xMin="53" yMin="-12" xMax="655" yMax="598">
      <contour>
        <pt x="444" y="598" on="0"/>
        <pt x="580" y="522" on="0"/>
        <pt x="655" y="384" on="0"/>
        <pt x="655" y="293" on="1"/>
        <pt x="655" y="202" on="0"/>
        <pt x="580" y="64" on="0"/>
        <pt x="444" y="-12" on="0"/>
        <pt x="354" y="-12" on="1"/>
        <pt x="264" y="-12" on="0"/>
        <pt x="128" y="64" on="0"/>
        <pt x="53" y="202" on="0"/>
        <pt x="53" y="293" on="1"/>
        <pt x="53" y="384" on="0"/>
        <pt x="128" y="522" on="0"/>
        <pt x="264" y="598" on="0"/>
        <pt x="354" y="598" on="1"/>
      </contour>
      <contour>
        <pt x="280" y="546" on="0"/>
        <pt x="167" y="483" on="0"/>
        <pt x="105" y="368" on="0"/>
        <pt x="105" y="293" on="1"/>
        <pt x="105" y="218" on="0"/>
        <pt x="167" y="103" on="0"/>
        <pt x="280" y="40" on="0"/>
        <pt x="354" y="40" on="1"/>
        <pt x="428" y="40" on="0"/>
        <pt x="541" y="103" on="0"/>
        <pt x="603" y="218" on="0"/>
        <pt x="603" y="293" on="1"/>
        <pt x="603" y="368" on="0"/>
        <pt x="541" y="483" on="0"/>
        <pt x="428" y="546" on="0"/>
        <pt x="354" y="546" on="1"/>
      </contour>
      <contour>
        <pt x="422" y="464" on="0"/>
        <pt x="466" y="451" on="1"/>
        <pt x="447" y="370" on="1"/>
        <pt x="441" y="366" on="1"/>
        <pt x="409" y="381" on="0"/>
        <pt x="375" y="381" on="1"/>
        <pt x="340" y="381" on="0"/>
        <pt x="309" y="346" on="0"/>
        <pt x="309" y="304" on="1"/>
        <pt x="309" y="257" on="0"/>
        <pt x="343" y="212" on="0"/>
        <pt x="380" y="212" on="1"/>
        <pt x="415" y="212" on="0"/>
        <pt x="448" y="222" on="1"/>
        <pt x="456" y="218" on="1"/>
        <pt x="448" y="137" on="1"/>
        <pt x="416" y="128" on="0"/>
        <pt x="373" y="128" on="1"/>
        <pt x="202" y="128" on="0"/>
        <pt x="202" y="293" on="1"/>
        <pt x="202" y="374" on="0"/>
        <pt x="294" y="464" on="0"/>
        <pt x="379" y="464" on="1"/>
      </contour>
    </TTGlyph>
    <TTGlyph name="currency" xMin="-1" yMin="130" xMax="461" yMax="564">
      <contour>
        <pt x="459" y="483" on="1"/>
        <pt x="382" y="422" on="1"/>
        <pt x="394" y="395" on="0"/>
        <pt x="394" y="361" on="1"/>
        <pt x="394" y="320" on="0"/>
        <pt x="367" y="276" on="1"/>
        <pt x="430" y="219" on="1"/>
        <pt x="431" y="205" on="1"/>
        <pt x="355" y="134" on="1"/>
        <pt x="342" y="134" on="1"/>
        <pt x="290" y="204" on="1"/>
        <pt x="251" y="182" on="0"/>
        <pt x="210" y="182" on="1"/>
        <pt x="173" y="182" on="0"/>
        <pt x="141" y="201" on="1"/>
        <pt x="76" y="131" on="1"/>
        <pt x="61" y="130" on="1"/>
        <pt x="-1" y="196" on="1"/>
        <pt x="2" y="210" on="1"/>
        <pt x="78" y="270" on="1"/>
        <pt x="66" y="296" on="0"/>
        <pt x="66" y="330" on="1"/>
        <pt x="66" y="377" on="0"/>
        <pt x="94" y="417" on="1"/>
        <pt x="31" y="475" on="1"/>
        <pt x="31" y="489" on="1"/>
        <pt x="107" y="559" on="1"/>
        <pt x="120" y="559" on="1"/>
        <pt x="173" y="489" on="1"/>
        <pt x="209" y="508" on="0"/>
        <pt x="250" y="508" on="1"/>
        <pt x="287" y="508" on="0"/>
        <pt x="316" y="491" on="1"/>
        <pt x="384" y="562" on="1"/>
        <pt x="399" y="564" on="1"/>
        <pt x="461" y="497" on="1"/>
      </contour>
      <contour>
        <pt x="200" y="426" on="0"/>
        <pt x="148" y="376" on="0"/>
        <pt x="148" y="336" on="1"/>
        <pt x="148" y="304" on="0"/>
        <pt x="187" y="265" on="0"/>
        <pt x="220" y="265" on="1"/>
        <pt x="260" y="265" on="0"/>
        <pt x="312" y="316" on="0"/>
        <pt x="312" y="356" on="1"/>
        <pt x="312" y="388" on="0"/>
        <pt x="273" y="426" on="0"/>
        <pt x="240" y="426" on="1"/>
      </contour>
    </TTGlyph>
    <TTGlyph name="d" xMin="36" yMin="-7" xMax="545" yMax="511">
      <contour>
        <pt x="428" y="511" on="0"/>
        <pt x="545" y="406" on="0"/>
        <pt x="545" y="310" on="1"/>
        <pt x="545" y="160" on="0"/>
        <pt x="387" y="-7" on="0"/>
        <pt x="239" y="-7" on="1"/>
        <pt x="143" y="-7" on="0"/>
        <pt x="36" y="0" on="1"/>
        <pt x="61" y="149" on="1"/>
        <pt x="99" y="508" on="1"/>
        <pt x="323" y="511" on="1"/>
      </contour>
      <contour>
        <pt x="329" y="104" on="0"/>
        <pt x="390" y="189" on="0"/>
        <pt x="390" y="286" on="1"/>
        <pt x="390" y="344" on="0"/>
        <pt x="348" y="395" on="0"/>
        <pt x="303" y="395" on="1"/>
        <pt x="270" y="395" on="0"/>
        <pt x="231" y="392" on="1"/>
        <pt x="197" y="164" on="1"/>
        <pt x="192" y="111" on="1"/>
        <pt x="239" y="104" on="0"/>
        <pt x="271" y="104" on="1"/>
      </contour>
    </TTGlyph>
    <TTGlyph name="d.sups" xMin="44" yMin="319" xMax="360" yMax="812">
      <contour>
        <pt x="306" y="402" on="1"/>
        <pt x="302" y="328" on="1"/>
        <pt x="207" y="322" on="1"/>
        <pt x="221" y="430" on="1"/>
        <pt x="214" y="430" on="1"/>
        <pt x="178" y="362" on="0"/>
        <pt x="137" y="319" on="1"/>
        <pt x="124" y="319" on="1"/>
        <pt x="79" y="332" on="0"/>
        <pt x="44" y="384" on="0"/>
        <pt x="44" y="427" on="1"/>
        <pt x="44" y="502" on="0"/>
        <pt x="130" y="626" on="0"/>
        <pt x="210" y="646" on="1"/>
        <pt x="215" y="646" on="1"/>
        <pt x="250" y="641" on="1"/>
        <pt x="262" y="733" on="1"/>
        <pt x="264" y="806" on="1"/>
        <pt x="360" y="812" on="1"/>
      </contour>
      <contour>
        <pt x="160" y="403" on="0"/>
        <pt x="206" y="472" on="0"/>
        <pt x="235" y="534" on="1"/>
        <pt x="240" y="570" on="1"/>
        <pt x="196" y="579" on="1"/>
        <pt x="165" y="579" on="0"/>
        <pt x="131" y="515" on="0"/>
        <pt x="131" y="463" on="1"/>
        <pt x="131" y="433" on="0"/>
        <pt x="142" y="403" on="0"/>
        <pt x="149" y="403" on="1"/>
      </contour>
    </TTGlyph>
    <TTGlyph name="dagger" xMin="49" yMin="-94" xMax="493" yMax="592">
      <contour>
        <pt x="313" y="313" on="1"/>
        <pt x="310" y="290" on="1"/>
        <pt x="265" y="-87" on="1"/>
        <pt x="169" y="-94" on="1"/>
        <pt x="161" y="-83" on="1"/>
        <pt x="205" y="280" on="1"/>
        <pt x="209" y="313" on="1"/>
        <pt x="58" y="313" on="1"/>
        <pt x="49" y="323" on="1"/>
        <pt x="69" y="415" on="1"/>
        <pt x="222" y="415" on="1"/>
        <pt x="243" y="584" on="1"/>
        <pt x="342" y="592" on="1"/>
        <pt x="350" y="583" on="1"/>
        <pt x="327" y="415" on="1"/>
        <pt x="484" y="415" on="1"/>
        <pt x="493" y="405" on="1"/>
        <pt x="474" y="313" on="1"/>
      </contour>
    </TTGlyph>
    <TTGlyph name="daggerdbl" xMin="19" yMin="-94" xMax="494" yMax="592">
      <contour>
        <pt x="296" y="165" on="1"/>
        <pt x="453" y="165" on="1"/>
        <pt x="462" y="155" on="1"/>
        <pt x="443" y="62" on="1"/>
        <pt x="283" y="62" on="1"/>
        <pt x="265" y="-87" on="1"/>
        <pt x="169" y="-94" on="1"/>
        <pt x="161" y="-83" on="1"/>
        <pt x="179" y="62" on="1"/>
        <pt x="27" y="62" on="1"/>
        <pt x="19" y="73" on="1"/>
        <pt x="38" y="165" on="1"/>
        <pt x="191" y="165" on="1"/>
        <pt x="205" y="280" on="1"/>
        <pt x="211" y="326" on="1"/>
        <pt x="60" y="326" on="1"/>
        <pt x="51" y="336" on="1"/>
        <pt x="70" y="428" on="1"/>
        <pt x="224" y="428" on="1"/>
        <pt x="243" y="584" on="1"/>
        <pt x="342" y="592" on="1"/>
        <pt x="349" y="583" on="1"/>
        <pt x="329" y="428" on="1"/>
        <pt x="485" y="428" on="1"/>
        <pt x="494" y="418" on="1"/>
        <pt x="475" y="326" on="1"/>
        <pt x="316" y="326" on="1"/>
        <pt x="311" y="290" on="1"/>
      </contour>
    </TTGlyph>
    <TTGlyph name="dcaron" xMin="36" yMin="-7" xMax="545" yMax="768">
      <component glyphName="d" x="0" y="0" flags="0x1000"/>
      <component glyphName="caron" x="74" y="41" flags="0x1000"/>
    </TTGlyph>
    <TTGlyph name="dcroat" xMin="36" yMin="-7" xMax="545" yMax="712">
      <component glyphName="d" x="0" y="0" flags="0x1000"/>
      <component glyphName="macron" x="79" y="41" flags="0x1000"/>
    </TTGlyph>
    <TTGlyph name="degree" xMin="49" yMin="392" xMax="315" yMax="655">
      <contour>
        <pt x="249" y="655" on="0"/>
        <pt x="315" y="587" on="0"/>
        <pt x="315" y="537" on="1"/>
        <pt x="315" y="498" on="0"/>
        <pt x="274" y="431" on="0"/>
        <pt x="205" y="392" on="0"/>
        <pt x="166" y="392" on="1"/>
        <pt x="115" y="392" on="0"/>
        <pt x="49" y="460" on="0"/>
        <pt x="49" y="510" on="1"/>
        <pt x="49" y="549" on="0"/>
        <pt x="90" y="616" on="0"/>
        <pt x="159" y="655" on="0"/>
        <pt x="198" y="655" on="1"/>
      </contour>
      <contour>
        <pt x="158" y="590" on="0"/>
        <pt x="115" y="547" on="0"/>
        <pt x="115" y="516" on="1"/>
        <pt x="115" y="490" on="0"/>
        <pt x="148" y="457" on="0"/>
        <pt x="174" y="457" on="1"/>
        <pt x="205" y="457" on="0"/>
        <pt x="249" y="500" on="0"/>
        <pt x="249" y="531" on="1"/>
        <pt x="249" y="557" on="0"/>
        <pt x="216" y="590" on="0"/>
        <pt x="190" y="590" on="1"/>
      </contour>
    </TTGlyph>
    <TTGlyph name="dieresis" xMin="81" yMin="549" xMax="404" yMax="694">
      <contour>
        <pt x="186" y="694" on="0"/>
        <pt x="222" y="657" on="0"/>
        <pt x="222" y="625" on="1"/>
        <pt x="222" y="590" on="0"/>
        <pt x="183" y="550" on="0"/>
        <pt x="149" y="550" on="1"/>
        <pt x="116" y="550" on="0"/>
        <pt x="81" y="586" on="0"/>
        <pt x="81" y="619" on="1"/>
        <pt x="81" y="654" on="0"/>
        <pt x="121" y="694" on="0"/>
        <pt x="155" y="694" on="1"/>
      </contour>
      <contour>
        <pt x="369" y="693" on="0"/>
        <pt x="404" y="657" on="0"/>
        <pt x="404" y="625" on="1"/>
        <pt x="404" y="590" on="0"/>
        <pt x="365" y="549" on="0"/>
        <pt x="331" y="549" on="1"/>
        <pt x="263" y="549" on="0"/>
        <pt x="263" y="619" on="1"/>
        <pt x="263" y="654" on="0"/>
        <pt x="303" y="693" on="0"/>
        <pt x="337" y="693" on="1"/>
      </contour>
    </TTGlyph>
    <TTGlyph name="dieresis.i" xMin="90" yMin="549" xMax="395" yMax="693">
      <contour>
        <pt x="196" y="693" on="0"/>
        <pt x="231" y="657" on="0"/>
        <pt x="231" y="624" on="1"/>
        <pt x="231" y="589" on="0"/>
        <pt x="192" y="549" on="0"/>
        <pt x="158" y="549" on="1"/>
        <pt x="125" y="549" on="0"/>
        <pt x="90" y="585" on="0"/>
        <pt x="90" y="618" on="1"/>
        <pt x="90" y="653" on="0"/>
        <pt x="130" y="693" on="0"/>
        <pt x="164" y="693" on="1"/>
      </contour>
      <contour>
        <pt x="360" y="693" on="0"/>
        <pt x="395" y="657" on="0"/>
        <pt x="395" y="624" on="1"/>
        <pt x="395" y="589" on="0"/>
        <pt x="356" y="549" on="0"/>
        <pt x="322" y="549" on="1"/>
        <pt x="289" y="549" on="0"/>
        <pt x="254" y="585" on="0"/>
        <pt x="254" y="618" on="1"/>
        <pt x="254" y="653" on="0"/>
        <pt x="294" y="693" on="0"/>
        <pt x="328" y="693" on="1"/>
      </contour>
    </TTGlyph>
    <TTGlyph name="dieresisacute" xMin="80" yMin="531" xMax="399" yMax="868">
      <contour>
        <pt x="381" y="764" on="1"/>
        <pt x="374" y="751" on="1"/>
        <pt x="245" y="729" on="0"/>
        <pt x="141" y="717" on="1"/>
        <pt x="128" y="723" on="1"/>
        <pt x="114" y="791" on="1"/>
        <pt x="239" y="828" on="0"/>
        <pt x="345" y="868" on="1"/>
        <pt x="358" y="862" on="1"/>
      </contour>
      <contour>
        <pt x="184" y="673" on="0"/>
        <pt x="219" y="638" on="0"/>
        <pt x="219" y="606" on="1"/>
        <pt x="219" y="571" on="0"/>
        <pt x="181" y="531" on="0"/>
        <pt x="147" y="531" on="1"/>
        <pt x="115" y="531" on="0"/>
        <pt x="80" y="567" on="0"/>
        <pt x="80" y="600" on="1"/>
        <pt x="80" y="634" on="0"/>
        <pt x="119" y="673" on="0"/>
        <pt x="153" y="673" on="1"/>
      </contour>
      <contour>
        <pt x="364" y="673" on="0"/>
        <pt x="399" y="638" on="0"/>
        <pt x="399" y="606" on="1"/>
        <pt x="399" y="571" on="0"/>
        <pt x="361" y="531" on="0"/>
        <pt x="328" y="531" on="1"/>
        <pt x="296" y="531" on="0"/>
        <pt x="260" y="567" on="0"/>
        <pt x="260" y="600" on="1"/>
        <pt x="260" y="634" on="0"/>
        <pt x="299" y="673" on="0"/>
        <pt x="333" y="673" on="1"/>
      </contour>
    </TTGlyph>
    <TTGlyph name="dieresiscaron" xMin="85" yMin="531" xMax="408" yMax="854">
      <contour>
        <pt x="325" y="739" on="0"/>
        <pt x="260" y="683" on="1"/>
        <pt x="230" y="683" on="1"/>
        <pt x="181" y="731" on="0"/>
        <pt x="97" y="792" on="1"/>
        <pt x="132" y="854" on="1"/>
        <pt x="147" y="854" on="1"/>
        <pt x="250" y="792" on="1"/>
        <pt x="274" y="805" on="0"/>
        <pt x="326" y="831" on="1"/>
        <pt x="372" y="854" on="1"/>
        <pt x="387" y="854" on="1"/>
        <pt x="408" y="792" on="1"/>
      </contour>
      <contour>
        <pt x="189" y="673" on="0"/>
        <pt x="224" y="637" on="0"/>
        <pt x="224" y="606" on="1"/>
        <pt x="224" y="571" on="0"/>
        <pt x="186" y="531" on="0"/>
        <pt x="152" y="531" on="1"/>
        <pt x="120" y="531" on="0"/>
        <pt x="85" y="567" on="0"/>
        <pt x="85" y="600" on="1"/>
        <pt x="85" y="634" on="0"/>
        <pt x="124" y="673" on="0"/>
        <pt x="158" y="673" on="1"/>
      </contour>
      <contour>
        <pt x="369" y="673" on="0"/>
        <pt x="404" y="638" on="0"/>
        <pt x="404" y="606" on="1"/>
        <pt x="404" y="571" on="0"/>
        <pt x="366" y="531" on="0"/>
        <pt x="333" y="531" on="1"/>
        <pt x="300" y="531" on="0"/>
        <pt x="265" y="567" on="0"/>
        <pt x="265" y="600" on="1"/>
        <pt x="265" y="634" on="0"/>
        <pt x="304" y="673" on="0"/>
        <pt x="338" y="673" on="1"/>
      </contour>
    </TTGlyph>
    <TTGlyph name="dieresisgrave" xMin="79" yMin="531" xMax="399" yMax="868">
      <contour>
        <pt x="270" y="830" on="0"/>
        <pt x="396" y="791" on="1"/>
        <pt x="375" y="723" on="1"/>
        <pt x="360" y="717" on="1"/>
        <pt x="254" y="730" on="0"/>
        <pt x="133" y="751" on="1"/>
        <pt x="126" y="764" on="1"/>
        <pt x="161" y="862" on="1"/>
        <pt x="175" y="868" on="1"/>
      </contour>
      <contour>
        <pt x="185" y="673" on="0"/>
        <pt x="218" y="639" on="0"/>
        <pt x="218" y="608" on="1"/>
        <pt x="218" y="573" on="0"/>
        <pt x="178" y="531" on="0"/>
        <pt x="144" y="531" on="1"/>
        <pt x="79" y="531" on="0"/>
        <pt x="79" y="598" on="1"/>
        <pt x="79" y="632" on="0"/>
        <pt x="120" y="673" on="0"/>
        <pt x="154" y="673" on="1"/>
      </contour>
      <contour>
        <pt x="365" y="673" on="0"/>
        <pt x="399" y="639" on="0"/>
        <pt x="399" y="608" on="1"/>
        <pt x="399" y="573" on="0"/>
        <pt x="359" y="531" on="0"/>
        <pt x="325" y="531" on="1"/>
        <pt x="259" y="531" on="0"/>
        <pt x="259" y="598" on="1"/>
        <pt x="259" y="632" on="0"/>
        <pt x="300" y="673" on="0"/>
        <pt x="334" y="673" on="1"/>
      </contour>
    </TTGlyph>
    <TTGlyph name="dieresismacron" xMin="85" yMin="531" xMax="410" yMax="824">
      <contour>
        <pt x="401" y="727" on="1"/>
        <pt x="114" y="727" on="1"/>
        <pt x="103" y="738" on="1"/>
        <pt x="111" y="824" on="1"/>
        <pt x="399" y="824" on="1"/>
        <pt x="410" y="813" on="1"/>
      </contour>
      <contour>
        <pt x="189" y="673" on="0"/>
        <pt x="224" y="638" on="0"/>
        <pt x="224" y="606" on="1"/>
        <pt x="224" y="571" on="0"/>
        <pt x="186" y="531" on="0"/>
        <pt x="153" y="531" on="1"/>
        <pt x="120" y="531" on="0"/>
        <pt x="85" y="567" on="0"/>
        <pt x="85" y="600" on="1"/>
        <pt x="85" y="634" on="0"/>
        <pt x="124" y="673" on="0"/>
        <pt x="158" y="673" on="1"/>
      </contour>
      <contour>
        <pt x="370" y="673" on="0"/>
        <pt x="405" y="638" on="0"/>
        <pt x="405" y="606" on="1"/>
        <pt x="405" y="571" on="0"/>
        <pt x="367" y="531" on="0"/>
        <pt x="333" y="531" on="1"/>
        <pt x="301" y="531" on="0"/>
        <pt x="266" y="567" on="0"/>
        <pt x="266" y="600" on="1"/>
        <pt x="266" y="634" on="0"/>
        <pt x="305" y="673" on="0"/>
        <pt x="339" y="673" on="1"/>
      </contour>
    </TTGlyph>
    <TTGlyph name="divide" xMin="22" yMin="18" xMax="462" yMax="446">
      <component glyphName="minus" x="0" y="0" flags="0x1000"/>
      <component glyphName="period" x="120" y="25" scale="0.860168457031" flags="0x1000"/>
      <component glyphName="period" x="155" y="312" scale="0.860168457031" flags="0x1000"/>
    </TTGlyph>
    <TTGlyph name="divisionslash" xMin="-38" yMin="-116" xMax="340" yMax="681">
      <component glyphName="slash" x="0" y="0" flags="0x1000"/>
    </TTGlyph>
    <TTGlyph name="dollar" xMin="9" yMin="-136" xMax="425" yMax="644">
      <contour>
        <pt x="206" y="352" on="0"/>
        <pt x="238" y="331" on="0"/>
        <pt x="274" y="315" on="1"/>
        <pt x="313" y="298" on="0"/>
        <pt x="364" y="267" on="0"/>
        <pt x="402" y="213" on="0"/>
        <pt x="402" y="172" on="1"/>
        <pt x="402" y="114" on="0"/>
        <pt x="325" y="16" on="0"/>
        <pt x="251" y="-2" on="1"/>
        <pt x="236" y="-136" on="1"/>
        <pt x="159" y="-136" on="1"/>
        <pt x="149" y="-125" on="1"/>
        <pt x="161" y="-10" on="1"/>
        <pt x="76" y="-6" on="0"/>
        <pt x="9" y="20" on="1"/>
        <pt x="44" y="153" on="1"/>
        <pt x="59" y="163" on="1"/>
        <pt x="91" y="133" on="0"/>
        <pt x="172" y="96" on="0"/>
        <pt x="203" y="96" on="1"/>
        <pt x="225" y="96" on="0"/>
        <pt x="254" y="119" on="0"/>
        <pt x="254" y="136" on="1"/>
        <pt x="254" y="152" on="0"/>
        <pt x="221" y="175" on="0"/>
        <pt x="186" y="190" on="1"/>
        <pt x="147" y="206" on="0"/>
        <pt x="95" y="238" on="0"/>
        <pt x="57" y="293" on="0"/>
        <pt x="57" y="334" on="1"/>
        <pt x="57" y="398" on="0"/>
        <pt x="146" y="496" on="0"/>
        <pt x="223" y="511" on="1"/>
        <pt x="238" y="644" on="1"/>
        <pt x="314" y="644" on="1"/>
        <pt x="326" y="631" on="1"/>
        <pt x="312" y="515" on="1"/>
        <pt x="375" y="510" on="0"/>
        <pt x="425" y="490" on="1"/>
        <pt x="390" y="363" on="1"/>
        <pt x="368" y="358" on="1"/>
        <pt x="338" y="381" on="0"/>
        <pt x="277" y="406" on="0"/>
        <pt x="253" y="406" on="1"/>
        <pt x="231" y="406" on="0"/>
        <pt x="206" y="385" on="0"/>
        <pt x="206" y="369" on="1"/>
      </contour>
    </TTGlyph>
    <TTGlyph name="dotaccent" xMin="163" yMin="545" xMax="322" yMax="708">
      <contour>
        <pt x="282" y="708" on="0"/>
        <pt x="322" y="667" on="0"/>
        <pt x="322" y="630" on="1"/>
        <pt x="322" y="591" on="0"/>
        <pt x="278" y="545" on="0"/>
        <pt x="240" y="545" on="1"/>
        <pt x="203" y="545" on="0"/>
        <pt x="163" y="586" on="0"/>
        <pt x="163" y="623" on="1"/>
        <pt x="163" y="662" on="0"/>
        <pt x="208" y="708" on="0"/>
        <pt x="246" y="708" on="1"/>
      </contour>
    </TTGlyph>
    <TTGlyph name="dotbelowcomb" xMin="70" yMin="-210" xMax="229" yMax="-48">
      <contour>
        <pt x="189" y="-48" on="0"/>
        <pt x="229" y="-89" on="0"/>
        <pt x="229" y="-125" on="1"/>
        <pt x="229" y="-164" on="0"/>
        <pt x="185" y="-210" on="0"/>
        <pt x="147" y="-210" on="1"/>
        <pt x="110" y="-210" on="0"/>
        <pt x="70" y="-170" on="0"/>
        <pt x="70" y="-132" on="1"/>
        <pt x="70" y="-93" on="0"/>
        <pt x="115" y="-48" on="0"/>
        <pt x="153" y="-48" on="1"/>
      </contour>
    </TTGlyph>
    <TTGlyph name="dotlessi" xMin="37" yMin="0" xMax="249" yMax="508">
      <component glyphName="i" x="0" y="0" flags="0x1000"/>
    </TTGlyph>
    <TTGlyph name="dotlessj" xMin="-7" yMin="-92" xMax="278" yMax="508">
      <component glyphName="j" x="0" y="0" flags="0x1000"/>
    </TTGlyph>
    <TTGlyph name="down" xMin="61" yMin="71" xMax="363" yMax="373">
      <contour>
        <pt x="61" y="373" on="1"/>
        <pt x="363" y="373" on="1"/>
        <pt x="212" y="71" on="1"/>
      </contour>
    </TTGlyph>
    <TTGlyph name="e" xMin="36" yMin="0" xMax="472" yMax="508">
      <contour>
        <pt x="220" y="313" on="1"/>
        <pt x="305" y="312" on="1"/>
        <pt x="391" y="315" on="1"/>
        <pt x="398" y="305" on="1"/>
        <pt x="376" y="196" on="1"/>
        <pt x="281" y="199" on="1"/>
        <pt x="203" y="198" on="1"/>
        <pt x="198" y="164" on="1"/>
        <pt x="193" y="114" on="1"/>
        <pt x="276" y="114" on="1"/>
        <pt x="412" y="118" on="1"/>
        <pt x="420" y="108" on="1"/>
        <pt x="397" y="0" on="1"/>
        <pt x="36" y="0" on="1"/>
        <pt x="62" y="149" on="1"/>
        <pt x="99" y="508" on="1"/>
        <pt x="465" y="508" on="1"/>
        <pt x="472" y="497" on="1"/>
        <pt x="449" y="389" on="1"/>
        <pt x="321" y="394" on="1"/>
        <pt x="231" y="394" on="1"/>
      </contour>
    </TTGlyph>
    <TTGlyph name="e.sups" xMin="47" yMin="319" xMax="307" yMax="650">
      <contour>
        <pt x="291" y="400" on="1"/>
        <pt x="244" y="337" on="0"/>
        <pt x="171" y="319" on="1"/>
        <pt x="161" y="319" on="1"/>
        <pt x="47" y="331" on="0"/>
        <pt x="47" y="447" on="1"/>
        <pt x="47" y="536" on="0"/>
        <pt x="142" y="645" on="0"/>
        <pt x="222" y="650" on="1"/>
        <pt x="232" y="649" on="1"/>
        <pt x="307" y="636" on="0"/>
        <pt x="307" y="573" on="1"/>
        <pt x="307" y="532" on="0"/>
        <pt x="227" y="470" on="0"/>
        <pt x="137" y="446" on="1"/>
        <pt x="139" y="415" on="0"/>
        <pt x="158" y="389" on="0"/>
        <pt x="178" y="389" on="1"/>
        <pt x="218" y="389" on="0"/>
        <pt x="249" y="439" on="1"/>
        <pt x="261" y="437" on="1"/>
      </contour>
      <contour>
        <pt x="174" y="590" on="0"/>
        <pt x="141" y="543" on="0"/>
        <pt x="137" y="499" on="1"/>
        <pt x="181" y="513" on="0"/>
        <pt x="223" y="545" on="0"/>
        <pt x="223" y="567" on="1"/>
        <pt x="223" y="590" on="0"/>
        <pt x="199" y="590" on="1"/>
      </contour>
    </TTGlyph>
    <TTGlyph name="eacute" xMin="36" yMin="0" xMax="472" yMax="776">
      <component glyphName="e" x="0" y="0" flags="0x1000"/>
      <component glyphName="acute" x="49" y="41" flags="0x1000"/>
    </TTGlyph>
    <TTGlyph name="ebreve" xMin="36" yMin="0" xMax="472" yMax="753">
      <component glyphName="e" x="0" y="0" flags="0x1000"/>
      <component glyphName="breve" x="42" y="41" flags="0x1000"/>
    </TTGlyph>
    <TTGlyph name="ecaron" xMin="36" yMin="0" xMax="472" yMax="768">
      <component glyphName="e" x="0" y="0" flags="0x1000"/>
      <component glyphName="caron" x="42" y="41" flags="0x1000"/>
    </TTGlyph>
    <TTGlyph name="ecircumflex" xMin="36" yMin="0" xMax="472" yMax="771">
      <component glyphName="e" x="0" y="0" flags="0x1000"/>
      <component glyphName="circumflex" x="52" y="41" flags="0x1000"/>
    </TTGlyph>
    <TTGlyph name="ecircumflexacute" xMin="36" yMin="0" xMax="512" yMax="879">
      <component glyphName="e" x="0" y="0" flags="0x1000"/>
      <component glyphName="circumflexacute" x="49" y="41" flags="0x1000"/>
    </TTGlyph>
    <TTGlyph name="ecircumflexdotbelow" xMin="36" yMin="-210" xMax="472" yMax="771">
      <component glyphName="e" x="0" y="0" flags="0x1000"/>
      <component glyphName="dotbelowcomb" x="69" y="0" flags="0x1000"/>
      <component glyphName="circumflex" x="52" y="41" flags="0x1000"/>
    </TTGlyph>
    <TTGlyph name="ecircumflexgrave" xMin="36" yMin="0" xMax="472" yMax="879">
      <component glyphName="e" x="0" y="0" flags="0x1000"/>
      <component glyphName="circumflexgrave" x="49" y="41" flags="0x1000"/>
    </TTGlyph>
    <TTGlyph name="ecircumflexhookabove" xMin="36" yMin="0" xMax="472" yMax="925">
      <component glyphName="e" x="0" y="0" flags="0x1000"/>
      <component glyphName="circumflexhookabove" x="49" y="41" flags="0x1000"/>
    </TTGlyph>
    <TTGlyph name="ecircumflextilde" xMin="36" yMin="0" xMax="491" yMax="906">
      <component glyphName="e" x="0" y="0" flags="0x1000"/>
      <component glyphName="circumflextilde" x="58" y="41" flags="0x1000"/>
    </TTGlyph>
    <TTGlyph name="edieresis" xMin="36" yMin="0" xMax="472" yMax="735">
      <component glyphName="e" x="0" y="0" flags="0x1000"/>
      <component glyphName="dieresis" x="47" y="41" flags="0x1000"/>
    </TTGlyph>
    <TTGlyph name="edotaccent" xMin="36" yMin="0" xMax="472" yMax="749">
      <component glyphName="e" x="0" y="0" flags="0x1000"/>
      <component glyphName="dotaccent" x="47" y="41" flags="0x1000"/>
    </TTGlyph>
    <TTGlyph name="edotbelow" xMin="36" yMin="-210" xMax="472" yMax="508">
      <component glyphName="e" x="0" y="0" flags="0x1000"/>
      <component glyphName="dotbelowcomb" x="69" y="0" flags="0x1000"/>
    </TTGlyph>
    <TTGlyph name="egrave" xMin="36" yMin="0" xMax="472" yMax="776">
      <component glyphName="e" x="0" y="0" flags="0x1000"/>
      <component glyphName="grave" x="33" y="41" flags="0x1000"/>
    </TTGlyph>
    <TTGlyph name="ehookabove" xMin="36" yMin="0" xMax="472" yMax="793">
      <component glyphName="e" x="0" y="0" flags="0x1000"/>
      <component glyphName="hookabove" x="4" y="41" flags="0x1000"/>
    </TTGlyph>
    <TTGlyph name="eight" xMin="29" yMin="-10" xMax="469" yMax="596">
      <contour>
        <pt x="373" y="596" on="0"/>
        <pt x="469" y="520" on="0"/>
        <pt x="469" y="455" on="1"/>
        <pt x="469" y="367" on="0"/>
        <pt x="367" y="312" on="1"/>
        <pt x="366" y="305" on="1"/>
        <pt x="409" y="280" on="0"/>
        <pt x="454" y="219" on="0"/>
        <pt x="454" y="170" on="1"/>
        <pt x="454" y="117" on="0"/>
        <pt x="399" y="36" on="0"/>
        <pt x="299" y="-10" on="0"/>
        <pt x="233" y="-10" on="1"/>
        <pt x="138" y="-10" on="0"/>
        <pt x="29" y="69" on="0"/>
        <pt x="29" y="136" on="1"/>
        <pt x="29" y="190" on="0"/>
        <pt x="91" y="258" on="0"/>
        <pt x="152" y="282" on="1"/>
        <pt x="153" y="289" on="1"/>
        <pt x="117" y="311" on="0"/>
        <pt x="77" y="372" on="0"/>
        <pt x="77" y="419" on="1"/>
        <pt x="77" y="471" on="0"/>
        <pt x="130" y="551" on="0"/>
        <pt x="226" y="596" on="0"/>
        <pt x="289" y="596" on="1"/>
      </contour>
      <contour>
        <pt x="245" y="490" on="0"/>
        <pt x="204" y="455" on="0"/>
        <pt x="204" y="427" on="1"/>
        <pt x="204" y="399" on="0"/>
        <pt x="241" y="365" on="0"/>
        <pt x="279" y="350" on="1"/>
        <pt x="345" y="388" on="0"/>
        <pt x="345" y="435" on="1"/>
        <pt x="345" y="461" on="0"/>
        <pt x="311" y="490" on="0"/>
        <pt x="280" y="490" on="1"/>
      </contour>
      <contour>
        <pt x="199" y="226" on="0"/>
        <pt x="159" y="190" on="0"/>
        <pt x="159" y="159" on="1"/>
        <pt x="159" y="93" on="0"/>
        <pt x="236" y="93" on="1"/>
        <pt x="278" y="93" on="0"/>
        <pt x="327" y="133" on="0"/>
        <pt x="327" y="161" on="1"/>
        <pt x="327" y="189" on="0"/>
        <pt x="284" y="223" on="0"/>
        <pt x="240" y="241" on="1"/>
      </contour>
    </TTGlyph>
    <TTGlyph name="eight.dnom" xMin="15" yMin="-7" xMax="333" yMax="394">
      <contour>
        <pt x="264" y="394" on="0"/>
        <pt x="333" y="345" on="0"/>
        <pt x="333" y="303" on="1"/>
        <pt x="333" y="272" on="0"/>
        <pt x="296" y="228" on="0"/>
        <pt x="261" y="209" on="1"/>
        <pt x="260" y="204" on="1"/>
        <pt x="290" y="188" on="0"/>
        <pt x="320" y="149" on="0"/>
        <pt x="320" y="119" on="1"/>
        <pt x="320" y="62" on="0"/>
        <pt x="230" y="-7" on="0"/>
        <pt x="154" y="-7" on="1"/>
        <pt x="89" y="-7" on="0"/>
        <pt x="15" y="45" on="0"/>
        <pt x="15" y="89" on="1"/>
        <pt x="15" y="153" on="0"/>
        <pt x="102" y="183" on="1"/>
        <pt x="103" y="187" on="1"/>
        <pt x="48" y="217" on="0"/>
        <pt x="48" y="272" on="1"/>
        <pt x="48" y="328" on="0"/>
        <pt x="133" y="394" on="0"/>
        <pt x="204" y="394" on="1"/>
      </contour>
      <contour>
        <pt x="173" y="317" on="0"/>
        <pt x="148" y="297" on="0"/>
        <pt x="148" y="280" on="1"/>
        <pt x="148" y="264" on="0"/>
        <pt x="173" y="244" on="0"/>
        <pt x="197" y="234" on="1"/>
        <pt x="236" y="259" on="0"/>
        <pt x="236" y="286" on="1"/>
        <pt x="236" y="317" on="0"/>
        <pt x="196" y="317" on="1"/>
      </contour>
      <contour>
        <pt x="115" y="140" on="0"/>
        <pt x="115" y="105" on="1"/>
        <pt x="115" y="87" on="0"/>
        <pt x="140" y="67" on="0"/>
        <pt x="164" y="67" on="1"/>
        <pt x="191" y="67" on="0"/>
        <pt x="222" y="91" on="0"/>
        <pt x="222" y="109" on="1"/>
        <pt x="222" y="124" on="0"/>
        <pt x="193" y="144" on="0"/>
        <pt x="166" y="155" on="1"/>
      </contour>
    </TTGlyph>
    <TTGlyph name="eight.lf" xMin="29" yMin="-10" xMax="469" yMax="596">
      <component glyphName="eight" x="0" y="0" flags="0x1000"/>
    </TTGlyph>
    <TTGlyph name="eight.numr" xMin="46" yMin="250" xMax="364" yMax="651">
      <component glyphName="eight.dnom" x="31" y="257" flags="0x1000"/>
    </TTGlyph>
    <TTGlyph name="eight.sinf" xMin="-3" yMin="-127" xMax="315" yMax="274">
      <component glyphName="eight.dnom" x="-18" y="-120" flags="0x1000"/>
    </TTGlyph>
    <TTGlyph name="eight.tf" xMin="20" yMin="-10" xMax="453" yMax="596">
      <contour>
        <pt x="359" y="596" on="0"/>
        <pt x="453" y="521" on="0"/>
        <pt x="453" y="456" on="1"/>
        <pt x="453" y="366" on="0"/>
        <pt x="354" y="312" on="1"/>
        <pt x="353" y="305" on="1"/>
        <pt x="394" y="280" on="0"/>
        <pt x="438" y="219" on="0"/>
        <pt x="438" y="171" on="1"/>
        <pt x="438" y="118" on="0"/>
        <pt x="384" y="36" on="0"/>
        <pt x="285" y="-10" on="0"/>
        <pt x="221" y="-10" on="1"/>
        <pt x="127" y="-10" on="0"/>
        <pt x="20" y="69" on="0"/>
        <pt x="20" y="136" on="1"/>
        <pt x="20" y="190" on="0"/>
        <pt x="80" y="258" on="0"/>
        <pt x="140" y="282" on="1"/>
        <pt x="141" y="289" on="1"/>
        <pt x="68" y="335" on="0"/>
        <pt x="68" y="418" on="1"/>
        <pt x="68" y="471" on="0"/>
        <pt x="120" y="551" on="0"/>
        <pt x="215" y="596" on="0"/>
        <pt x="277" y="596" on="1"/>
      </contour>
      <contour>
        <pt x="234" y="490" on="0"/>
        <pt x="195" y="455" on="0"/>
        <pt x="195" y="427" on="1"/>
        <pt x="195" y="399" on="0"/>
        <pt x="230" y="365" on="0"/>
        <pt x="267" y="350" on="1"/>
        <pt x="329" y="388" on="0"/>
        <pt x="329" y="435" on="1"/>
        <pt x="329" y="490" on="0"/>
        <pt x="267" y="490" on="1"/>
      </contour>
      <contour>
        <pt x="188" y="226" on="0"/>
        <pt x="150" y="190" on="0"/>
        <pt x="150" y="159" on="1"/>
        <pt x="150" y="93" on="0"/>
        <pt x="224" y="93" on="1"/>
        <pt x="264" y="93" on="0"/>
        <pt x="311" y="133" on="0"/>
        <pt x="311" y="161" on="1"/>
        <pt x="311" y="189" on="0"/>
        <pt x="270" y="223" on="0"/>
        <pt x="227" y="241" on="1"/>
      </contour>
    </TTGlyph>
    <TTGlyph name="eight.tosf" xMin="23" yMin="-10" xMax="453" yMax="596">
      <contour>
        <pt x="359" y="596" on="0"/>
        <pt x="453" y="521" on="0"/>
        <pt x="453" y="456" on="1"/>
        <pt x="453" y="367" on="0"/>
        <pt x="354" y="312" on="1"/>
        <pt x="353" y="305" on="1"/>
        <pt x="394" y="280" on="0"/>
        <pt x="438" y="219" on="0"/>
        <pt x="438" y="171" on="1"/>
        <pt x="438" y="118" on="0"/>
        <pt x="384" y="36" on="0"/>
        <pt x="286" y="-10" on="0"/>
        <pt x="222" y="-10" on="1"/>
        <pt x="129" y="-10" on="0"/>
        <pt x="23" y="69" on="0"/>
        <pt x="23" y="136" on="1"/>
        <pt x="23" y="190" on="0"/>
        <pt x="83" y="258" on="0"/>
        <pt x="142" y="283" on="1"/>
        <pt x="143" y="289" on="1"/>
        <pt x="70" y="335" on="0"/>
        <pt x="70" y="418" on="1"/>
        <pt x="70" y="471" on="0"/>
        <pt x="121" y="551" on="0"/>
        <pt x="216" y="596" on="0"/>
        <pt x="278" y="596" on="1"/>
      </contour>
      <contour>
        <pt x="234" y="491" on="0"/>
        <pt x="195" y="455" on="0"/>
        <pt x="195" y="427" on="1"/>
        <pt x="195" y="399" on="0"/>
        <pt x="231" y="365" on="0"/>
        <pt x="268" y="349" on="1"/>
        <pt x="330" y="389" on="0"/>
        <pt x="330" y="435" on="1"/>
        <pt x="330" y="491" on="0"/>
        <pt x="268" y="491" on="1"/>
      </contour>
      <contour>
        <pt x="190" y="227" on="0"/>
        <pt x="152" y="190" on="0"/>
        <pt x="152" y="159" on="1"/>
        <pt x="152" y="127" on="0"/>
        <pt x="189" y="91" on="0"/>
        <pt x="225" y="91" on="1"/>
        <pt x="265" y="91" on="0"/>
        <pt x="312" y="132" on="0"/>
        <pt x="312" y="161" on="1"/>
        <pt x="312" y="190" on="0"/>
        <pt x="271" y="224" on="0"/>
        <pt x="228" y="242" on="1"/>
      </contour>
    </TTGlyph>
    <TTGlyph name="eightsuperior" xMin="53" yMin="305" xMax="371" yMax="706">
      <component glyphName="eight.dnom" x="38" y="312" flags="0x1000"/>
    </TTGlyph>
    <TTGlyph name="ellipsis" xMin="-8" yMin="-8" xMax="573" yMax="155">
      <component glyphName="period" x="188" y="0" flags="0x1000"/>
      <component glyphName="period" x="399" y="0" flags="0x1000"/>
      <component glyphName="period" x="-23" y="0" flags="0x1000"/>
    </TTGlyph>
    <TTGlyph name="emacron" xMin="36" yMin="0" xMax="472" yMax="712">
      <component glyphName="e" x="0" y="0" flags="0x1000"/>
      <component glyphName="macron" x="47" y="41" flags="0x1000"/>
    </TTGlyph>
    <TTGlyph name="emdash" xMin="-20" yMin="206" xMax="898" yMax="311">
      <contour>
        <pt x="879" y="206" on="1"/>
        <pt x="-11" y="206" on="1"/>
        <pt x="-20" y="217" on="1"/>
        <pt x="-1" y="311" on="1"/>
        <pt x="889" y="311" on="1"/>
        <pt x="898" y="300" on="1"/>
      </contour>
    </TTGlyph>
    <TTGlyph name="endash" xMin="-17" yMin="206" xMax="483" yMax="311">
      <contour>
        <pt x="465" y="206" on="1"/>
        <pt x="-8" y="206" on="1"/>
        <pt x="-17" y="217" on="1"/>
        <pt x="2" y="311" on="1"/>
        <pt x="475" y="311" on="1"/>
        <pt x="483" y="300" on="1"/>
      </contour>
    </TTGlyph>
    <TTGlyph name="eng" xMin="38" yMin="-139" xMax="571" yMax="511">
      <contour>
        <pt x="509" y="42" on="1"/>
        <pt x="500" y="-26" on="0"/>
        <pt x="424" y="-106" on="0"/>
        <pt x="335" y="-139" on="1"/>
        <pt x="296" y="-78" on="1"/>
        <pt x="297" y="-66" on="1"/>
        <pt x="347" y="-37" on="0"/>
        <pt x="360" y="-6" on="1"/>
        <pt x="210" y="286" on="1"/>
        <pt x="200" y="286" on="1"/>
        <pt x="188" y="182" on="1"/>
        <pt x="171" y="0" on="1"/>
        <pt x="38" y="0" on="1"/>
        <pt x="63" y="149" on="1"/>
        <pt x="101" y="508" on="1"/>
        <pt x="260" y="508" on="1"/>
        <pt x="397" y="239" on="1"/>
        <pt x="406" y="239" on="1"/>
        <pt x="435" y="502" on="1"/>
        <pt x="571" y="511" on="1"/>
        <pt x="519" y="164" on="1"/>
      </contour>
    </TTGlyph>
    <TTGlyph name="eogonek" xMin="36" yMin="-197" xMax="472" yMax="508">
      <contour>
        <pt x="219" y="313" on="1"/>
        <pt x="305" y="312" on="1"/>
        <pt x="391" y="315" on="1"/>
        <pt x="398" y="305" on="1"/>
        <pt x="376" y="196" on="1"/>
        <pt x="281" y="199" on="1"/>
        <pt x="202" y="198" on="1"/>
        <pt x="197" y="164" on="1"/>
        <pt x="193" y="114" on="1"/>
        <pt x="277" y="114" on="1"/>
        <pt x="413" y="118" on="1"/>
        <pt x="420" y="108" on="1"/>
        <pt x="397" y="0" on="1"/>
        <pt x="315" y="0" on="1"/>
        <pt x="293" y="-33" on="1"/>
        <pt x="277" y="-59" on="0"/>
        <pt x="277" y="-78" on="1"/>
        <pt x="277" y="-114" on="0"/>
        <pt x="314" y="-114" on="1"/>
        <pt x="342" y="-114" on="0"/>
        <pt x="378" y="-88" on="1"/>
        <pt x="386" y="-88" on="1"/>
        <pt x="397" y="-149" on="1"/>
        <pt x="342" y="-197" on="0"/>
        <pt x="291" y="-197" on="1"/>
        <pt x="248" y="-197" on="0"/>
        <pt x="196" y="-145" on="0"/>
        <pt x="196" y="-106" on="1"/>
        <pt x="196" y="-62" on="0"/>
        <pt x="226" y="-21" on="1"/>
        <pt x="241" y="0" on="1"/>
        <pt x="36" y="0" on="1"/>
        <pt x="61" y="149" on="1"/>
        <pt x="99" y="508" on="1"/>
        <pt x="465" y="508" on="1"/>
        <pt x="472" y="497" on="1"/>
        <pt x="449" y="389" on="1"/>
        <pt x="320" y="394" on="1"/>
        <pt x="231" y="394" on="1"/>
      </contour>
    </TTGlyph>
    <TTGlyph name="equal" xMin="12" yMin="107" xMax="476" yMax="409">
      <component glyphName="minus" x="14" y="98" flags="0x1000"/>
      <component glyphName="minus" x="-10" y="-99" flags="0x1000"/>
    </TTGlyph>
    <TTGlyph name="estimated" xMin="48" yMin="-12" xMax="785" yMax="651">
      <contour>
        <pt x="517" y="651" on="0"/>
        <pt x="686" y="562" on="0"/>
        <pt x="785" y="409" on="0"/>
        <pt x="785" y="319" on="1"/>
        <pt x="785" y="311" on="1"/>
        <pt x="188" y="311" on="1"/>
        <pt x="183" y="311" on="0"/>
        <pt x="183" y="307" on="1"/>
        <pt x="183" y="126" on="1"/>
        <pt x="183" y="116" on="0"/>
        <pt x="192" y="105" on="1"/>
        <pt x="235" y="59" on="0"/>
        <pt x="352" y="8" on="0"/>
        <pt x="418" y="8" on="1"/>
        <pt x="488" y="8" on="0"/>
        <pt x="611" y="66" on="0"/>
        <pt x="655" y="117" on="1"/>
        <pt x="709" y="117" on="1"/>
        <pt x="658" y="57" on="0"/>
        <pt x="504" y="-12" on="0"/>
        <pt x="417" y="-12" on="1"/>
        <pt x="317" y="-12" on="0"/>
        <pt x="148" y="77" on="0"/>
        <pt x="48" y="229" on="0"/>
        <pt x="48" y="319" on="1"/>
        <pt x="48" y="409" on="0"/>
        <pt x="148" y="562" on="0"/>
        <pt x="317" y="651" on="0"/>
        <pt x="417" y="651" on="1"/>
      </contour>
      <contour>
        <pt x="353" y="631" on="0"/>
        <pt x="237" y="580" on="0"/>
        <pt x="193" y="535" on="1"/>
        <pt x="183" y="525" on="0"/>
        <pt x="183" y="512" on="1"/>
        <pt x="183" y="334" on="1"/>
        <pt x="183" y="329" on="0"/>
        <pt x="188" y="329" on="1"/>
        <pt x="646" y="329" on="1"/>
        <pt x="651" y="329" on="0"/>
        <pt x="651" y="334" on="1"/>
        <pt x="651" y="516" on="1"/>
        <pt x="651" y="528" on="0"/>
        <pt x="641" y="538" on="1"/>
        <pt x="597" y="582" on="0"/>
        <pt x="482" y="631" on="0"/>
        <pt x="418" y="631" on="1"/>
      </contour>
    </TTGlyph>
    <TTGlyph name="eth" xMin="3" yMin="-7" xMax="556" yMax="511">
      <contour>
        <pt x="438" y="511" on="0"/>
        <pt x="556" y="406" on="0"/>
        <pt x="556" y="310" on="1"/>
        <pt x="556" y="160" on="0"/>
        <pt x="398" y="-7" on="0"/>
        <pt x="250" y="-7" on="1"/>
        <pt x="152" y="-7" on="0"/>
        <pt x="47" y="0" on="1"/>
        <pt x="72" y="149" on="1"/>
        <pt x="78" y="203" on="1"/>
        <pt x="10" y="203" on="1"/>
        <pt x="3" y="214" on="1"/>
        <pt x="19" y="296" on="1"/>
        <pt x="87" y="296" on="1"/>
        <pt x="109" y="508" on="1"/>
        <pt x="333" y="511" on="1"/>
      </contour>
      <contour>
        <pt x="339" y="104" on="0"/>
        <pt x="400" y="189" on="0"/>
        <pt x="400" y="286" on="1"/>
        <pt x="400" y="344" on="0"/>
        <pt x="358" y="395" on="0"/>
        <pt x="314" y="395" on="1"/>
        <pt x="280" y="395" on="0"/>
        <pt x="241" y="392" on="1"/>
        <pt x="227" y="296" on="1"/>
        <pt x="325" y="296" on="1"/>
        <pt x="330" y="285" on="1"/>
        <pt x="314" y="203" on="1"/>
        <pt x="213" y="203" on="1"/>
        <pt x="207" y="164" on="1"/>
        <pt x="203" y="111" on="1"/>
        <pt x="248" y="104" on="0"/>
        <pt x="282" y="104" on="1"/>
      </contour>
    </TTGlyph>
    <TTGlyph name="etilde" xMin="36" yMin="0" xMax="472" yMax="757">
      <component glyphName="e" x="0" y="0" flags="0x1000"/>
      <component glyphName="tilde" x="47" y="41" flags="0x1000"/>
    </TTGlyph>
    <TTGlyph name="exclam" xMin="44" yMin="-8" xMax="285" yMax="668">
      <contour>
        <pt x="193" y="245" on="1"/>
        <pt x="104" y="232" on="1"/>
        <pt x="90" y="248" on="1"/>
        <pt x="128" y="642" on="1"/>
        <pt x="143" y="660" on="1"/>
        <pt x="269" y="668" on="1"/>
        <pt x="285" y="649" on="1"/>
      </contour>
      <contour>
        <pt x="164" y="155" on="0"/>
        <pt x="203" y="114" on="0"/>
        <pt x="203" y="77" on="1"/>
        <pt x="203" y="38" on="0"/>
        <pt x="159" y="-8" on="0"/>
        <pt x="121" y="-8" on="1"/>
        <pt x="84" y="-8" on="0"/>
        <pt x="44" y="33" on="0"/>
        <pt x="44" y="70" on="1"/>
        <pt x="44" y="109" on="0"/>
        <pt x="89" y="155" on="0"/>
        <pt x="127" y="155" on="1"/>
      </contour>
    </TTGlyph>
    <TTGlyph name="exclamdown" xMin="1" yMin="-197" xMax="242" yMax="479">
      <component glyphName="exclam" x="286" y="471" scale="-1.0" flags="0x1000"/>
    </TTGlyph>
    <TTGlyph name="f" xMin="32" yMin="0" xMax="444" yMax="508">
      <contour>
        <pt x="212" y="294" on="1"/>
        <pt x="275" y="294" on="1"/>
        <pt x="369" y="297" on="1"/>
        <pt x="376" y="286" on="1"/>
        <pt x="353" y="177" on="1"/>
        <pt x="250" y="180" on="1"/>
        <pt x="195" y="180" on="1"/>
        <pt x="193" y="164" on="1"/>
        <pt x="179" y="0" on="1"/>
        <pt x="32" y="0" on="1"/>
        <pt x="57" y="149" on="1"/>
        <pt x="95" y="508" on="1"/>
        <pt x="437" y="508" on="1"/>
        <pt x="444" y="497" on="1"/>
        <pt x="420" y="389" on="1"/>
        <pt x="292" y="394" on="1"/>
        <pt x="227" y="394" on="1"/>
      </contour>
    </TTGlyph>
    <TTGlyph name="f.sups" xMin="56" yMin="236" xMax="338" yMax="811">
      <contour>
        <pt x="321" y="732" on="1"/>
        <pt x="308" y="728" on="1"/>
        <pt x="273" y="744" on="0"/>
        <pt x="254" y="744" on="1"/>
        <pt x="217" y="744" on="0"/>
        <pt x="210" y="686" on="1"/>
        <pt x="203" y="638" on="1"/>
        <pt x="270" y="638" on="1"/>
        <pt x="277" y="630" on="1"/>
        <pt x="270" y="585" on="1"/>
        <pt x="196" y="585" on="1"/>
        <pt x="179" y="464" on="1"/>
        <pt x="160" y="316" on="1"/>
        <pt x="156" y="242" on="1"/>
        <pt x="60" y="236" on="1"/>
        <pt x="89" y="454" on="1"/>
        <pt x="104" y="585" on="1"/>
        <pt x="61" y="585" on="1"/>
        <pt x="56" y="591" on="1"/>
        <pt x="63" y="638" on="1"/>
        <pt x="109" y="638" on="1"/>
        <pt x="112" y="661" on="1"/>
        <pt x="121" y="734" on="0"/>
        <pt x="202" y="811" on="0"/>
        <pt x="268" y="811" on="1"/>
        <pt x="335" y="802" on="1"/>
        <pt x="338" y="795" on="1"/>
      </contour>
    </TTGlyph>
    <TTGlyph name="firstofchinese" xMin="95" yMin="575" xMax="391" yMax="671">
      <component glyphName="macron" x="0" y="0" flags="0x1000"/>
    </TTGlyph>
    <TTGlyph name="firsttonechinese" xMin="95" yMin="575" xMax="391" yMax="671">
      <contour>
        <pt x="383" y="575" on="1"/>
        <pt x="104" y="575" on="1"/>
        <pt x="95" y="585" on="1"/>
        <pt x="102" y="671" on="1"/>
        <pt x="381" y="671" on="1"/>
        <pt x="391" y="661" on="1"/>
      </contour>
    </TTGlyph>
    <TTGlyph name="five" xMin="-13" yMin="-96" xMax="438" yMax="515">
      <contour>
        <pt x="409" y="386" on="1"/>
        <pt x="397" y="375" on="1"/>
        <pt x="300" y="387" on="1"/>
        <pt x="198" y="387" on="1"/>
        <pt x="185" y="293" on="1"/>
        <pt x="245" y="280" on="1"/>
        <pt x="390" y="249" on="0"/>
        <pt x="390" y="133" on="1"/>
        <pt x="390" y="67" on="0"/>
        <pt x="316" y="-37" on="0"/>
        <pt x="186" y="-96" on="0"/>
        <pt x="105" y="-96" on="1"/>
        <pt x="49" y="-96" on="0"/>
        <pt x="-13" y="-84" on="1"/>
        <pt x="-7" y="33" on="1"/>
        <pt x="4" y="44" on="1"/>
        <pt x="66" y="22" on="0"/>
        <pt x="124" y="22" on="1"/>
        <pt x="178" y="22" on="0"/>
        <pt x="240" y="68" on="0"/>
        <pt x="240" y="107" on="1"/>
        <pt x="240" y="157" on="0"/>
        <pt x="167" y="169" on="1"/>
        <pt x="64" y="187" on="1"/>
        <pt x="55" y="199" on="1"/>
        <pt x="92" y="495" on="1"/>
        <pt x="111" y="512" on="1"/>
        <pt x="170" y="509" on="1"/>
        <pt x="322" y="509" on="1"/>
        <pt x="431" y="515" on="1"/>
        <pt x="438" y="505" on="1"/>
      </contour>
    </TTGlyph>
</ttFont>
